<?xml version="1.0" standalone="no"?>
<!DOCTYPE svg PUBLIC "-//W3C//DTD SVG 1.1//EN" "http://www.w3.org/Graphics/SVG/1.1/DTD/svg11.dtd" >
<svg xmlns="http://www.w3.org/2000/svg" xmlns:xlink="http://www.w3.org/1999/xlink" version="1.1">
<metadata>
Created by FontForge 20170731 at Tue Dec  2 08:39:24 2014
 By Aleksey,,,
2013 published by FontShop International GmbH
</metadata>
<defs>
<font id="MarkWebW03-Medium" horiz-adv-x="1" >
  <font-face 
    font-family="MarkWebW03-Medium"
    font-weight="500"
    font-stretch="normal"
    units-per-em="2000"
    panose-1="2 11 6 4 2 1 1 1 1 2"
    ascent="1600"
    descent="-400"
    x-height="958"
    cap-height="1400"
    bbox="-1360 -474 3154 1987"
    underline-thickness="100"
    underline-position="-450"
    unicode-range="U+0020-FEFF"
  />
<missing-glyph horiz-adv-x="1209" 
d="M164 1400h881v-1400h-881v1400zM855 190v1020h-501v-1020h501z" />
    <glyph glyph-name=".notdef" horiz-adv-x="1209" 
d="M164 1400h881v-1400h-881v1400zM855 190v1020h-501v-1020h501z" />
    <glyph glyph-name="glyph1" horiz-adv-x="0" 
 />
    <glyph glyph-name="glyph1" horiz-adv-x="0" 
 />
    <glyph glyph-name="nonmarkingreturn" horiz-adv-x="666" 
 />
    <glyph glyph-name="space" unicode=" " horiz-adv-x="540" 
 />
    <glyph glyph-name="exclam" unicode="!" horiz-adv-x="530" 
d="M359 462h-190l-34 938h258zM265 325q35 0 66.5 -14t55.5 -38t38 -55.5t14 -66.5t-14 -67t-38 -56t-55.5 -38.5t-66.5 -14.5t-66.5 14.5t-55.5 38.5t-38.5 56t-14.5 67t14.5 66.5t38.5 55.5t55.5 38t66.5 14z" />
    <glyph glyph-name="quotedbl" unicode="&#x22;" horiz-adv-x="1112" 
d="M476 1440v-545h-210v545h210zM846 1440v-545h-210v545h210z" />
    <glyph glyph-name="numbersign" unicode="#" horiz-adv-x="1480" 
d="M482 1044l76 356h196l-76 -356h269l76 356h196l-76 -356h223l-40 -186h-223l-65 -309h221l-39 -186h-222l-77 -363h-196l77 363h-269l-77 -363h-196l77 363h-223l40 186h223l65 309h-223l40 186h223zM573 549h269l65 309h-269z" />
    <glyph glyph-name="dollar" unicode="$" horiz-adv-x="1400" 
d="M816 1571v-189q125 -11 227 -48.5t193 -96.5l-110 -176q-69 45 -147 74.5t-163 40.5v-384q85 -12 163.5 -37.5t138.5 -69t95 -107.5t33 -154q-2 -87 -35.5 -156.5t-91.5 -120.5t-135.5 -83t-166.5 -44v-201h-194v197q-64 5 -128.5 19t-126 36t-117 51.5t-100.5 67.5
l117 173q30 -26 69.5 -48.5t85.5 -41.5t96.5 -32t102.5 -19v383l-18 3q-81 12 -155.5 37t-131.5 69t-90.5 109.5t-31.5 157.5q1 85 34 153.5t90 119t135 82t168 43.5v192h194zM1027 413q1 63 -54.5 101.5t-156.5 61.5v-349q94 17 151.5 64t59.5 122zM416 987
q-1 -69 50.5 -107t155.5 -59v351q-94 -17 -149 -65t-57 -120z" />
    <glyph glyph-name="percent" unicode="%" horiz-adv-x="1983" 
d="M477 1425q84 0 155 -29t123 -79.5t81.5 -119.5t29.5 -150t-29.5 -150.5t-81.5 -120.5t-123 -79.5t-155 -28.5q-83 0 -153.5 28.5t-122.5 79.5t-81 120.5t-29 150.5t29 150t81 119.5t122.5 79.5t153.5 29zM477 1240q-41 0 -75.5 -14t-59.5 -39.5t-39.5 -61t-14.5 -78.5
t14.5 -79t39.5 -61.5t59.5 -39.5t75.5 -14q42 0 77 14t60.5 39.5t40 61.5t14.5 79t-14.5 78.5t-40 61t-60.5 39.5t-77 14zM659 0h-219l883 1400h219zM1503 732q84 0 155 -29t123 -79.5t81.5 -119.5t29.5 -150t-29.5 -150.5t-81.5 -120.5t-123 -79.5t-155 -28.5
q-83 0 -153.5 28.5t-122.5 79.5t-81 120.5t-29 150.5t29 150t81 119.5t122.5 79.5t153.5 29zM1503 547q-41 0 -75.5 -14t-59.5 -39.5t-39.5 -61t-14.5 -78.5t14.5 -79t39.5 -61.5t59.5 -39.5t75.5 -14q42 0 77 14t60.5 39.5t40 61.5t14.5 79t-14.5 78.5t-40 61t-60.5 39.5
t-77 14z" />
    <glyph glyph-name="ampersand" unicode="&#x26;" horiz-adv-x="1454" 
d="M1122 0l-174 166q-38 -41 -82 -76t-96 -60.5t-113 -40t-132 -14.5q-98 0 -176.5 25t-133 72t-83.5 116t-29 156q0 63 20.5 117.5t54.5 102.5t79 90t95 80q-48 48 -83.5 90t-59 83.5t-35 86t-11.5 96.5q0 71 28 132.5t78.5 106.5t122 70.5t158.5 25.5q86 0 157 -23.5
t121.5 -67t78.5 -104t28 -133.5q0 -59 -22 -110t-59 -96t-84.5 -86t-99.5 -79l259 -249l193 299l170 -106l-177 -277q-9 -15 -18.5 -29.5t-19.5 -29.5l347 -334h-302zM538 172q83 0 145 33t120 99l-308 294q-35 -28 -65.5 -57t-53 -59t-35 -62.5t-12.5 -68.5q0 -40 15 -73
t43 -56.5t66 -36.5t85 -13zM389 1077q0 -26 6 -47.5t22 -45.5t43 -53t68 -69q39 28 72.5 55t58 55t39 56.5t14.5 58.5q0 67 -42.5 103.5t-119.5 36.5t-119 -39.5t-42 -110.5z" />
    <glyph glyph-name="quotesingle" unicode="'" horiz-adv-x="742" 
d="M476 1440v-545h-210v545h210z" />
    <glyph glyph-name="parenleft" unicode="(" horiz-adv-x="850" 
d="M774 1248q-98 -45 -174.5 -115.5t-129 -159.5t-80.5 -192t-28 -213t28 -213t80.5 -192t129 -159.5t174.5 -115.5l-74 -193q-127 53 -231 139.5t-177.5 199.5t-114 248.5t-40.5 285.5t40.5 285.5t114 248.5t177.5 199.5t231 139.5z" />
    <glyph glyph-name="parenright" unicode=")" horiz-adv-x="850" 
d="M76 -110q97 45 174 115.5t129.5 159.5t80.5 192t28 213t-28 213t-80.5 192t-129.5 159.5t-174 115.5l74 193q127 -53 231 -139.5t177.5 -199.5t114 -248.5t40.5 -285.5t-40.5 -285.5t-114 -248.5t-177.5 -199.5t-231 -139.5z" />
    <glyph glyph-name="asterisk" unicode="*" horiz-adv-x="950" 
d="M395 1176v264h160v-264l251 82l49 -153l-251 -81l156 -214l-130 -94l-155 213l-155 -213l-130 94l155 214l-250 81l49 153z" />
    <glyph glyph-name="plus" unicode="+" horiz-adv-x="1200" 
d="M503 83v355h-353v190h353v355h194v-355h353v-190h-353v-355h-194z" />
    <glyph glyph-name="comma" unicode="," horiz-adv-x="505" 
d="M400 271l-120 -545h-180l55 545h245z" />
    <glyph glyph-name="hyphen" unicode="-" horiz-adv-x="846" 
d="M713 438h-580v190h580v-190z" />
    <glyph glyph-name="period" unicode="." horiz-adv-x="529" 
d="M265 325q35 0 66.5 -14t55.5 -38t38 -55.5t14 -66.5t-14 -67t-38 -56t-55.5 -38.5t-66.5 -14.5t-66.5 14.5t-55.5 38.5t-38.5 56t-14.5 67t14.5 66.5t38.5 55.5t55.5 38t66.5 14z" />
    <glyph glyph-name="slash" unicode="/" horiz-adv-x="1007" 
d="M201 -200h-231l849 1740h231z" />
    <glyph glyph-name="zero" unicode="0" horiz-adv-x="1423" 
d="M711 1424q122 0 229.5 -49.5t188 -142.5t127 -227.5t46.5 -304.5t-46.5 -304t-127 -227.5t-188 -143t-229.5 -49.5t-229.5 49.5t-187.5 143t-126.5 227.5t-46.5 304t46.5 304.5t126.5 227.5t187.5 142.5t229.5 49.5zM711 1216q-75 0 -141 -33t-115.5 -98t-78 -161.5
t-28.5 -223.5t28.5 -223.5t78 -161.5t115.5 -98t141 -33q76 0 142 33t115.5 98t78 161.5t28.5 223.5t-28.5 223.5t-78 161.5t-115.5 98t-142 33z" />
    <glyph glyph-name="one" unicode="1" horiz-adv-x="828" 
d="M634 0h-217v1107l-356 -153v226l573 242v-1422z" />
    <glyph glyph-name="two" unicode="2" horiz-adv-x="1113" 
d="M79 1190q25 34 62.5 75t91.5 76t126 59t167 24q109 0 195 -33.5t146 -93t91.5 -142t31.5 -181.5q0 -66 -17 -122.5t-44 -104.5t-60 -89t-65 -76l-351 -376h575v-206h-896v170l506 538q59 63 92 127.5t33 139.5q0 52 -16.5 96.5t-48 77t-76.5 50.5t-102 18
q-53 0 -95 -12.5t-75.5 -33.5t-61.5 -49.5t-54 -59.5z" />
    <glyph glyph-name="three" unicode="3" horiz-adv-x="1141" 
d="M530 1424q107 0 194.5 -28.5t150 -81t97 -126.5t34.5 -164q0 -112 -58 -192.5t-155 -125.5q55 -22 100 -54t77.5 -73t50 -91t17.5 -107q0 -102 -41.5 -178.5t-110.5 -126.5t-158.5 -75t-184.5 -25q-157 0 -280.5 52.5t-201.5 147.5l139 145q63 -68 152.5 -105.5
t185.5 -37.5q57 0 107 13t87 39.5t58 66.5t21 94q0 53 -24 93t-65 67t-96 41t-118 14h-169v199h168q57 0 106.5 13t86.5 38.5t58.5 64.5t21.5 92q0 50 -21 89t-57 65.5t-84 40.5t-102 14q-49 0 -92 -12.5t-78.5 -33.5t-64 -48.5t-48.5 -56.5l-156 133q30 47 73.5 87
t100.5 69.5t126.5 46.5t152.5 17z" />
    <glyph glyph-name="four" unicode="4" horiz-adv-x="1152" 
d="M890 478h214v-206h-214v-272h-217v272h-625v167l524 959h246l-509 -920h364v376h217v-376z" />
    <glyph glyph-name="five" unicode="5" horiz-adv-x="1166" 
d="M985 1195h-585l-7 -338h184q123 0 213.5 -35t149.5 -93t88 -134t29 -158q0 -114 -40 -200t-107.5 -144.5t-156.5 -88t-187 -29.5q-305 0 -487 224l144 141q31 -37 71 -66t84.5 -49.5t92 -31.5t94.5 -11q68 0 118 20t83 53t49 75.5t16 87.5t-15 87.5t-52 75t-98.5 52
t-155.5 19.5h-322l13 748h784v-205z" />
    <glyph glyph-name="six" unicode="6" horiz-adv-x="1168" 
d="M511 892q20 5 46.5 9.5t61.5 4.5q96 0 181.5 -35.5t149.5 -97.5t101.5 -147t37.5 -185t-38.5 -185t-106.5 -147.5t-161 -97.5t-202 -35t-202 35t-161 97.5t-106.5 147.5t-38.5 185q0 93 32 177t94 176l403 606h265zM581 705q-60 0 -112 -19.5t-90.5 -54t-60 -83.5
t-21.5 -107q0 -59 21.5 -107.5t60 -83.5t90.5 -54t112 -19q61 0 113 19.5t90 54t59.5 83t21.5 107.5q0 58 -21.5 107t-59.5 83.5t-90 54t-113 19.5z" />
    <glyph glyph-name="seven" unicode="7" horiz-adv-x="1096" 
d="M1035 1230l-606 -1230h-253l598 1195h-701v205h962v-170z" />
    <glyph glyph-name="eight" unicode="8" horiz-adv-x="1272" 
d="M636 1424q103 0 194.5 -27t159 -78.5t107 -126t39.5 -168.5q0 -61 -16.5 -110.5t-45.5 -88.5t-68.5 -68.5t-84.5 -50.5q51 -20 96.5 -49.5t79 -69.5t53 -91.5t19.5 -115.5q0 -95 -42 -170t-114.5 -127t-169.5 -79.5t-207 -27.5t-207 27.5t-169.5 79.5t-114.5 127t-42 170
q0 64 19.5 115.5t53 91.5t78.5 69.5t97 49.5q-45 21 -84.5 50.5t-68.5 68.5t-45.5 88.5t-16.5 110.5q0 94 39.5 168.5t107 126t158.5 78.5t195 27zM636 609q-62 0 -117.5 -14t-96.5 -41.5t-65 -68t-24 -93.5t24 -93t65 -67t96.5 -41t117.5 -14t117 14t96 41t65 67t24 93
t-24 93.5t-65 68t-96 41.5t-117 14zM636 1222q-56 0 -105 -13.5t-86 -40t-58 -65.5t-21 -90q0 -53 21 -93t58 -67t86 -40.5t105 -13.5t105.5 13.5t86 40.5t58 67t21.5 93q0 51 -21.5 90t-58 65.5t-86 40t-105.5 13.5z" />
    <glyph glyph-name="nine" unicode="9" horiz-adv-x="1168" 
d="M657 508q-20 -6 -46.5 -10t-61.5 -4q-96 0 -181.5 35t-149.5 97.5t-101.5 147.5t-37.5 185t38.5 185t106.5 147t161 97.5t202 35.5t202 -35.5t161 -97.5t106.5 -147t38.5 -185q0 -93 -32 -177t-94 -176l-403 -606h-265zM587 695q60 0 112 19.5t90.5 54t60 83t21.5 107.5
t-21.5 107.5t-60 83.5t-90.5 54t-112 19q-61 0 -113 -19.5t-90 -54t-59.5 -83.5t-21.5 -107q0 -59 21.5 -107.5t59.5 -83t90 -54t113 -19.5z" />
    <glyph glyph-name="colon" unicode=":" horiz-adv-x="529" 
d="M265 983q35 0 66.5 -14t55.5 -38t38 -55.5t14 -66.5t-14 -67t-38 -56t-55.5 -38.5t-66.5 -14.5t-66.5 14.5t-55.5 38.5t-38.5 56t-14.5 67t14.5 66.5t38.5 55.5t55.5 38t66.5 14zM265 325q35 0 66.5 -14t55.5 -38t38 -55.5t14 -66.5t-14 -67t-38 -56t-55.5 -38.5
t-66.5 -14.5t-66.5 14.5t-55.5 38.5t-38.5 56t-14.5 67t14.5 66.5t38.5 55.5t55.5 38t66.5 14z" />
    <glyph glyph-name="semicolon" unicode=";" horiz-adv-x="505" 
d="M268 983q35 0 66.5 -14t55.5 -38t38 -55.5t14 -66.5t-14 -67t-38 -56t-55.5 -38.5t-66.5 -14.5t-66.5 14.5t-55.5 38.5t-38.5 56t-14.5 67t14.5 66.5t38.5 55.5t55.5 38t66.5 14zM400 271l-120 -545h-180l55 545h245z" />
    <glyph glyph-name="less" unicode="&#x3c;" horiz-adv-x="1200" 
d="M1008 51l-815 380v205l815 380v-224l-598 -258l598 -259v-224z" />
    <glyph glyph-name="equal" unicode="=" horiz-adv-x="1200" 
d="M1050 238h-900v190h900v-190zM1050 638h-900v190h900v-190z" />
    <glyph glyph-name="greater" unicode="&#x3e;" horiz-adv-x="1200" 
d="M193 1016l815 -380v-205l-815 -380v224l598 258l-598 259v224z" />
    <glyph glyph-name="question" unicode="?" horiz-adv-x="890" 
d="M192 462v322h89q161 0 247 57.5t86 166.5q0 98 -84.5 151t-243.5 53q-45 0 -86.5 -3t-73.5 -6l-18 215q19 3 42.5 5.5t48.5 4.5t50 3t47 1q132 0 234.5 -29.5t173 -83.5t107.5 -131t37 -171q0 -181 -117 -289.5t-341 -137.5l-8 -128h-190zM287 325q35 0 66.5 -14
t55.5 -38t38 -55.5t14 -66.5t-14 -67t-38 -56t-55.5 -38.5t-66.5 -14.5t-66.5 14.5t-55.5 38.5t-38.5 56t-14.5 67t14.5 66.5t38.5 55.5t55.5 38t66.5 14z" />
    <glyph glyph-name="at" unicode="@" horiz-adv-x="1972" 
d="M1366 460q0 -106 22 -155t79 -49q33 0 61 15.5t48.5 49t32.5 87.5t12 132q0 132 -47.5 243t-132 191.5t-201 125.5t-254.5 45t-254.5 -47t-201 -132t-132 -204t-47.5 -262q0 -145 47.5 -265t132 -205.5t201 -132.5t254.5 -47q116 0 219.5 33t195.5 95l97 -135
q-113 -82 -241.5 -121.5t-270.5 -39.5q-182 0 -333.5 61.5t-261 171t-170.5 259t-61 326.5q0 175 61 323.5t170.5 257.5t261 170.5t333.5 61.5q121 0 229 -27t200 -77t165.5 -120t125 -156t79 -185.5t27.5 -207.5q0 -97 -23.5 -179t-68.5 -142t-111 -94t-151 -34
q-49 0 -87.5 10t-68.5 27t-51 41t-35 51q-42 -56 -106.5 -89.5t-155.5 -33.5q-84 0 -155.5 30t-123.5 84t-81 128t-29 161t29.5 161t81 128t121.5 84t151 30t140 -28t99 -76v84h179v-423zM973 734q-52 0 -93 -18.5t-70 -50t-44.5 -74.5t-15.5 -91t15.5 -91t44.5 -74.5
t70 -50t93 -18.5q50 0 91 17.5t70.5 49t45.5 74.5t16 93t-16 93t-45.5 74.5t-70.5 49t-91 17.5z" />
    <glyph glyph-name="A" unicode="A" horiz-adv-x="1448" 
d="M1418 0h-243l-138 357h-634l-138 -357h-235l553 1400h282zM486 571h468l-234 604z" />
    <glyph glyph-name="B" unicode="B" horiz-adv-x="1403" 
d="M733 1400q112 0 208 -20.5t166 -66t110 -118t40 -176.5q0 -54 -16.5 -102.5t-45.5 -87.5t-68.5 -67t-85.5 -41q50 -15 95 -44t79 -70.5t54 -94t20 -112.5q0 -105 -37 -180.5t-105.5 -124t-165 -72t-216.5 -23.5h-575v1400h543zM416 600v-388h339q67 0 121.5 8t93.5 29.5
t60.5 59.5t21.5 99q0 59 -21.5 96.5t-60.5 58.5t-93.5 29t-121.5 8h-339zM416 1188v-377h310q59 0 112 6.5t93.5 26.5t64.5 57.5t24 100.5q0 60 -24 97t-65 56.5t-94.5 26t-112.5 6.5h-308z" />
    <glyph glyph-name="C" unicode="C" horiz-adv-x="1532" 
d="M847 1426q93 0 180 -20t162 -58t136 -92.5t102 -122.5l-189 -126q-64 94 -164.5 148t-226.5 54q-107 0 -198 -37t-157 -104t-103.5 -161t-37.5 -207t37.5 -207t103.5 -161t157 -104t198 -37q125 0 224.5 53t165.5 148l184 -135q-45 -66 -105.5 -118t-134 -89t-158 -56.5
t-176.5 -19.5q-161 0 -296 54.5t-232 151.5t-151 230t-54 290t54 290t151 230t232 151.5t296 54.5z" />
    <glyph glyph-name="D" unicode="D" horiz-adv-x="1587" 
d="M746 1400q164 0 298 -50t229.5 -141.5t147.5 -221t52 -287.5t-52 -287.5t-147.5 -221t-229.5 -141.5t-298 -50h-556v1400h556zM416 1186v-972h330q123 0 215 36.5t153 101t91.5 153.5t30.5 195q0 107 -30.5 196t-91.5 153.5t-153 100.5t-215 36h-330z" />
    <glyph glyph-name="E" unicode="E" horiz-adv-x="1363" 
d="M1211 0h-1021v1400h1008v-212h-782v-377h755v-212h-755v-387h795v-212z" />
    <glyph glyph-name="F" unicode="F" horiz-adv-x="1303" 
d="M1143 598h-727v-598h-226v1400h999v-214h-773v-374h727v-214z" />
    <glyph glyph-name="G" unicode="G" horiz-adv-x="1639" 
d="M847 1426q168 0 307 -59.5t235 -166.5l-166 -161q-66 79 -162 124.5t-214 45.5q-107 0 -198 -37t-157 -104t-103.5 -161t-37.5 -207t37 -207t102.5 -161t154 -104t192.5 -37q192 0 303 94.5t138 268.5h-371v210h616q1 -14 1.5 -27t0.5 -27q0 -151 -46.5 -284.5
t-135 -233.5t-216.5 -158.5t-290 -58.5q-90 0 -179 21.5t-169 63t-149 103t-119 142t-78.5 179.5t-28.5 216q0 158 55 291t152.5 230t232 151t293.5 54z" />
    <glyph glyph-name="H" unicode="H" horiz-adv-x="1588" 
d="M416 812h756v588h226v-1400h-226v598h-756v-598h-226v1400h226v-588z" />
    <glyph glyph-name="I" unicode="I" horiz-adv-x="606" 
d="M416 0h-226v1400h226v-1400z" />
    <glyph glyph-name="J" unicode="J" horiz-adv-x="1149" 
d="M969 495q0 -126 -37 -223t-102.5 -163t-155 -100t-193.5 -34q-92 0 -163 19.5t-125.5 50.5t-93.5 69.5t-67 75.5l151 155q22 -32 51 -60t66 -48.5t81.5 -32.5t98.5 -12q123 0 193 80.5t70 244.5v883h226v-905z" />
    <glyph glyph-name="K" unicode="K" horiz-adv-x="1424" 
d="M551 597h-135v-597h-226v1400h226v-589h138l526 589h292l-630 -683l673 -717h-307z" />
    <glyph glyph-name="L" unicode="L" horiz-adv-x="1229" 
d="M1191 0h-1001v1400h226v-1186h775v-214z" />
    <glyph glyph-name="M" unicode="M" horiz-adv-x="1888" 
d="M1698 0h-226v1152l-409 -1015h-238l-409 1004v-1141h-226v1400h347l407 -1000l407 1000h347v-1400z" />
    <glyph glyph-name="N" unicode="N" horiz-adv-x="1592" 
d="M1402 0h-204l-781 1013l-1 -1013h-226v1400h204l782 -1013v1013h226v-1400z" />
    <glyph glyph-name="O" unicode="O" horiz-adv-x="1694" 
d="M847 1426q161 0 296 -54.5t232 -151.5t151 -230t54 -290t-54 -290t-151 -230t-232 -151.5t-296 -54.5t-296 54.5t-232 151.5t-151 230t-54 290t54 290t151 230t232 151.5t296 54.5zM847 1209q-107 0 -198 -37t-157 -104t-103.5 -161t-37.5 -207t37.5 -207t103.5 -161
t157 -104t198 -37t198 37t157 104t103.5 161t37.5 207t-37.5 207t-103.5 161t-157 104t-198 37z" />
    <glyph glyph-name="P" unicode="P" horiz-adv-x="1324" 
d="M416 550v-550h-226v1400h543q121 0 213.5 -29.5t155.5 -84.5t95 -134t32 -177t-32 -177t-95 -134t-155.5 -84.5t-213.5 -29.5h-317zM416 1187v-424h311q138 0 202.5 51.5t64.5 160.5t-64.5 160.5t-202.5 51.5h-311z" />
    <glyph glyph-name="Q" unicode="Q" horiz-adv-x="1694" 
d="M847 1426q161 0 296 -54.5t232 -151.5t151 -230t54 -290q0 -137 -41.5 -255t-116.5 -212l174 -233h-265l-68 90q-88 -56 -192.5 -86t-223.5 -30q-161 0 -296 54.5t-232 151.5t-151 230t-54 290t54 290t151 230t232 151.5t296 54.5zM847 1209q-107 0 -198 -37t-157 -104
t-103.5 -161t-37.5 -207t37.5 -207t103.5 -161t157 -104t198 -37q80 0 150 20.5t130 59.5l-289 384h270l167 -225q32 57 50 124.5t18 145.5q0 113 -37.5 207t-103.5 161t-157 104t-198 37z" />
    <glyph glyph-name="R" unicode="R" horiz-adv-x="1372" 
d="M766 1400q243 0 369.5 -104t126.5 -301q0 -89 -33 -162.5t-93.5 -126t-147 -83t-193.5 -34.5l461 -589h-280l-446 589h-114v-589h-226v1400h576zM416 1188v-394h344q137 0 202 49.5t65 151.5q0 100 -66.5 146.5t-200.5 46.5h-344z" />
    <glyph glyph-name="S" unicode="S" horiz-adv-x="1352" 
d="M1107 1090q-90 57 -188 88.5t-205 31.5q-70 0 -128 -14.5t-99.5 -42t-64.5 -66t-23 -86.5q0 -44 20 -75t57.5 -52.5t91.5 -35.5t122 -24l97 -13q85 -12 166 -37t144.5 -70t102 -113t38.5 -165q0 -107 -45 -189t-122 -138t-178.5 -85t-215.5 -29q-71 0 -147.5 12
t-151 35.5t-142.5 58.5t-122 82l123 180q36 -33 86.5 -61t108.5 -49t120.5 -32.5t123.5 -11.5q69 0 128.5 14t103.5 41t69.5 65.5t25.5 86.5q0 82 -80.5 125t-234.5 64l-109 15q-78 11 -152.5 36t-133 70.5t-94 114t-35.5 166.5q0 105 43.5 186.5t118.5 137t175.5 84.5
t214.5 29q153 0 276.5 -40.5t229.5 -110.5z" />
    <glyph glyph-name="T" unicode="T" horiz-adv-x="1208" 
d="M1170 1186h-453v-1186h-226v1186h-453v214h1132v-214z" />
    <glyph glyph-name="U" unicode="U" horiz-adv-x="1530" 
d="M1359 552q0 -146 -46.5 -254.5t-126.5 -180t-188.5 -107t-232.5 -35.5t-232.5 35.5t-188.5 107t-126.5 180t-46.5 254.5v848h226v-831q0 -100 27 -171.5t75.5 -117t116.5 -67t149 -21.5t149 21.5t116.5 67t75.5 117t27 171.5v831h226v-848z" />
    <glyph glyph-name="V" unicode="V" horiz-adv-x="1410" 
d="M846 0h-282l-534 1400h241l436 -1171l439 1171h234z" />
    <glyph glyph-name="W" unicode="W" horiz-adv-x="2180" 
d="M1705 0h-280l-335 1093l-335 -1093h-280l-427 1400h237l333 -1139l346 1139h257l345 -1139l334 1139h232z" />
    <glyph glyph-name="X" unicode="X" horiz-adv-x="1356" 
d="M813 714l498 -714h-273l-362 539l-365 -539h-266l497 714l-477 686h273l342 -510l345 510h267z" />
    <glyph glyph-name="Y" unicode="Y" horiz-adv-x="1328" 
d="M779 568v-568h-226v572l-544 828h270l388 -627l389 627h263z" />
    <glyph glyph-name="Z" unicode="Z" horiz-adv-x="1292" 
d="M1178 1225l-764 -1011h764v-214h-1064v175l764 1011h-762v214h1062v-175z" />
    <glyph glyph-name="bracketleft" unicode="[" horiz-adv-x="775" 
d="M699 -263h-509v1663h509v-194h-293v-1275h293v-194z" />
    <glyph glyph-name="backslash" unicode="\" horiz-adv-x="1007" 
d="M-43 1540h231l849 -1740h-231z" />
    <glyph glyph-name="bracketright" unicode="]" horiz-adv-x="775" 
d="M76 1400h509v-1663h-509v194h293v1275h-293v194z" />
    <glyph glyph-name="asciicircum" unicode="^" horiz-adv-x="1200" 
d="M141 635l357 765h204l357 -765h-228l-234 542l-233 -542h-223z" />
    <glyph glyph-name="underscore" unicode="_" horiz-adv-x="940" 
d="M945 -303h-950v190h950v-190z" />
    <glyph glyph-name="grave" unicode="`" horiz-adv-x="1000" 
d="M523 1110l-251 300h266l191 -300h-206z" />
    <glyph glyph-name="a" unicode="a" horiz-adv-x="1248" 
d="M1084 0h-209v115q-50 -64 -124 -102t-177 -38q-101 0 -188 37.5t-152 104.5t-102 159.5t-37 202.5t37 202.5t102 159.5t152 104.5t188 37.5q103 0 177 -38.5t124 -102.5v116h209v-958zM599 786q-68 0 -121.5 -24.5t-90.5 -66t-57 -97.5t-20 -119t20 -119t57 -97.5
t90.5 -66t121.5 -24.5q65 0 118 23.5t91 64.5t59 97t21 122t-21 122t-59 97t-91 64.5t-118 23.5z" />
    <glyph glyph-name="b" unicode="b" horiz-adv-x="1247" 
d="M673 983q100 0 187.5 -37.5t152.5 -104.5t102 -159.5t37 -202.5t-37 -202.5t-102 -159.5t-152.5 -104.5t-187.5 -37.5q-103 0 -176.5 38t-123.5 101v-114h-209v1440h209v-596q50 63 123.5 101t176.5 38zM648 786q-65 0 -118 -23.5t-91 -64.5t-59 -97t-21 -122t21 -122
t59 -97t91 -64.5t118 -23.5q67 0 121 24.5t91 66t57 97.5t20 119t-20 119t-57 97.5t-91 66t-121 24.5z" />
    <glyph glyph-name="c" unicode="c" horiz-adv-x="1027" 
d="M599 983q108 0 201 -38.5t157 -114.5l-134 -143q-51 48 -106 73.5t-124 25.5q-60 0 -112 -22.5t-90 -63t-59.5 -97t-21.5 -124.5t21.5 -124.5t59.5 -97t90 -63t112 -22.5q69 0 129 28.5t106 71.5l129 -144q-66 -76 -158 -114.5t-200 -38.5q-114 0 -207 38.5t-159 106
t-102 159.5t-36 200t36 200t102 159.5t159 106t207 38.5z" />
    <glyph glyph-name="d" unicode="d" horiz-adv-x="1248" 
d="M574 983q103 0 177 -38.5t124 -102.5v598h209v-1440h-209v115q-50 -64 -124 -102t-177 -38q-101 0 -188 37.5t-152 104.5t-102 159.5t-37 202.5t37 202.5t102 159.5t152 104.5t188 37.5zM599 786q-68 0 -121.5 -24.5t-90.5 -66t-57 -97.5t-20 -119t20 -119t57 -97.5
t90.5 -66t121.5 -24.5q65 0 118 23.5t91 64.5t59 97t21 122t-21 122t-59 97t-91 64.5t-118 23.5z" />
    <glyph glyph-name="e" unicode="e" horiz-adv-x="1120" 
d="M572 983q100 0 183.5 -36.5t143 -103t93 -159t33.5 -204.5q0 -20 -1 -40t-3 -38h-708q10 -65 37 -111t65 -75.5t85 -43.5t98 -14q72 0 144.5 26.5t132.5 74.5l104 -149q-88 -75 -186.5 -105t-207.5 -30q-108 0 -198 36t-155 102t-101 159t-36 207q0 112 35 205t98 159.5
t150.5 103t193.5 36.5zM568 797q-56 0 -99.5 -17t-75 -48.5t-51.5 -75t-28 -95.5h497q-17 112 -80 174t-163 62z" />
    <glyph glyph-name="f" unicode="f" horiz-adv-x="844" 
d="M779 768h-328v-768h-210v768h-192v190h192v162q0 72 18.5 135t58 109.5t100 73.5t144.5 27q85 0 149 -20t118 -52l-74 -176q-37 21 -84 36t-95 15q-61 0 -93 -38t-32 -110v-162h328v-190z" />
    <glyph glyph-name="g" unicode="g" horiz-adv-x="1232" 
d="M539 983q105 0 185 -35.5t134 -104.5v115h210v-891q0 -113 -35.5 -203t-101.5 -153t-161.5 -96.5t-215.5 -33.5q-54 0 -109 7t-107.5 21.5t-99.5 35t-85 47.5l76 177q73 -45 155 -71t170 -26q148 0 226 76t78 210v77q-54 -69 -134 -104.5t-185 -35.5q-82 0 -161.5 33.5
t-142.5 97t-101.5 155.5t-38.5 208t38.5 208t101.5 155.5t142.5 97t161.5 33.5zM593 786q-66 0 -118.5 -23.5t-89 -64t-56 -94.5t-19.5 -115q0 -60 19.5 -114t56 -94.5t89 -64.5t118.5 -24q63 0 115.5 23t89.5 62.5t57.5 94t20.5 117.5t-20.5 117.5t-57.5 94t-89.5 62.5
t-115.5 23z" />
    <glyph glyph-name="h" unicode="h" horiz-adv-x="1209" 
d="M374 844q29 41 64.5 68t74 42.5t78 22t75.5 6.5q85 0 156.5 -28t123.5 -78.5t80.5 -120.5t28.5 -154v-602h-210v533q0 121 -58.5 186t-164.5 65q-51 0 -96 -16.5t-78.5 -48.5t-53.5 -79.5t-20 -108.5v-531h-210v1440h210v-596z" />
    <glyph glyph-name="i" unicode="i" horiz-adv-x="538" 
d="M374 0h-210v958h210v-958zM268 1437q31 0 58 -11.5t47 -31.5t31.5 -47t11.5 -58t-11.5 -58t-31.5 -46.5t-47 -30.5t-58 -11t-58 11t-46.5 30.5t-30.5 46.5t-11 58t11 58t30.5 47t46.5 31.5t58 11.5z" />
    <glyph glyph-name="j" unicode="j" horiz-adv-x="544" 
d="M380 -118q0 -74 -20.5 -130t-58 -94t-89 -57.5t-113.5 -19.5q-37 0 -76.5 7.5t-68.5 21.5l49 182q37 -14 77 -14q37 0 63.5 26t26.5 88v1066h210v-1076zM273 1437q31 0 58 -11.5t47 -31.5t31.5 -47t11.5 -58t-11.5 -58t-31.5 -46.5t-47 -30.5t-58 -11t-58 11t-46.5 30.5
t-30.5 46.5t-11 58t11 58t30.5 47t46.5 31.5t58 11.5z" />
    <glyph glyph-name="k" unicode="k" horiz-adv-x="1085" 
d="M374 594h105l316 364h263l-401 -451l405 -507h-265l-319 404h-104v-404h-210v1440h210v-846z" />
    <glyph glyph-name="l" unicode="l" horiz-adv-x="538" 
d="M374 0h-210v1440h210v-1440z" />
    <glyph glyph-name="m" unicode="m" horiz-adv-x="1890" 
d="M1347 983q85 0 156.5 -28t123.5 -78.5t80.5 -120.5t28.5 -154v-602h-210v533q0 121 -58.5 186t-164.5 65q-51 0 -96 -16.5t-78.5 -48.5t-53.5 -79.5t-20 -108.5v-531h-210v533q0 121 -58.5 186t-164.5 65q-51 0 -96 -16.5t-78.5 -48.5t-53.5 -79.5t-20 -108.5v-531h-210
v958h208v-117q29 42 64.5 69.5t74.5 43.5t78.5 22.5t76.5 6.5q110 0 195.5 -45.5t135.5 -125.5q31 51 73 84.5t88.5 52.5t95 26.5t93.5 7.5z" />
    <glyph glyph-name="n" unicode="n" horiz-adv-x="1209" 
d="M666 983q85 0 156.5 -28t123.5 -78.5t80.5 -120.5t28.5 -154v-602h-210v533q0 121 -58.5 186t-164.5 65q-51 0 -96 -16.5t-78.5 -48.5t-53.5 -79.5t-20 -108.5v-531h-210v958h208v-117q29 42 64.5 69.5t74.5 43.5t78.5 22.5t76.5 6.5z" />
    <glyph glyph-name="o" unicode="o" horiz-adv-x="1221" 
d="M610 983q111 0 205.5 -38.5t163.5 -106t108 -159.5t39 -200t-39 -200t-108 -159.5t-163.5 -106t-205.5 -38.5t-205.5 38.5t-163 106t-107.5 159.5t-39 200t39 200t107.5 159.5t163 106t205.5 38.5zM610 786q-64 0 -119 -22.5t-95 -63t-63 -97t-23 -124.5t23 -124.5
t63 -97t95 -63t119 -22.5t119 22.5t95.5 63t63.5 97t23 124.5t-23 124.5t-63.5 97t-95.5 63t-119 22.5z" />
    <glyph glyph-name="p" unicode="p" horiz-adv-x="1247" 
d="M673 983q100 0 187.5 -37.5t152.5 -104.5t102 -159.5t37 -202.5t-37 -202.5t-102 -159.5t-152.5 -104.5t-187.5 -37.5q-103 0 -176.5 38t-123.5 101v-514h-209v1358h209v-114q50 63 123.5 101t176.5 38zM648 786q-65 0 -118 -23.5t-91 -64.5t-59 -97t-21 -122t21 -122
t59 -97t91 -64.5t118 -23.5q67 0 121 24.5t91 66t57 97.5t20 119t-20 119t-57 97.5t-91 66t-121 24.5z" />
    <glyph glyph-name="q" unicode="q" horiz-adv-x="1248" 
d="M574 983q103 0 177 -38.5t124 -102.5v116h209v-1358h-209v515q-50 -64 -124 -102t-177 -38q-101 0 -188 37.5t-152 104.5t-102 159.5t-37 202.5t37 202.5t102 159.5t152 104.5t188 37.5zM599 786q-68 0 -121.5 -24.5t-90.5 -66t-57 -97.5t-20 -119t20 -119t57 -97.5
t90.5 -66t121.5 -24.5q65 0 118 23.5t91 64.5t59 97t21 122t-21 122t-59 97t-91 64.5t-118 23.5z" />
    <glyph glyph-name="r" unicode="r" horiz-adv-x="859" 
d="M649 983q48 0 86.5 -6.5t74.5 -20.5l-50 -207q-33 17 -77 26t-82 9q-50 0 -92 -17t-72 -50t-47 -81t-17 -109v-527h-209v958h207v-108q48 69 119 101t159 32z" />
    <glyph glyph-name="s" unicode="s" horiz-adv-x="1011" 
d="M816 718q-22 13 -54 27.5t-71 26.5t-82.5 20t-88.5 8q-86 0 -133.5 -31.5t-47.5 -82.5q0 -25 12.5 -42t33.5 -28t50 -17.5t62 -11.5l99 -15q157 -23 245 -91.5t88 -191.5q0 -69 -29.5 -126.5t-85 -99t-137 -64.5t-184.5 -23q-37 0 -86 4.5t-104 18t-112 37.5t-109 63
l97 157q26 -20 56.5 -37.5t69 -31t85 -21.5t105.5 -8q108 0 163 31.5t55 85.5q0 41 -40 67.5t-126 38.5l-100 13q-160 22 -242.5 93.5t-82.5 187.5q0 71 27.5 128t79 96.5t124.5 61t165 21.5q113 0 213 -26.5t175 -74.5z" />
    <glyph glyph-name="t" unicode="t" horiz-adv-x="908" 
d="M817 768h-367v-417q0 -48 12 -82t32.5 -55.5t48 -31.5t59.5 -10q49 0 99.5 19t93.5 46l83 -167q-58 -39 -130.5 -67t-163.5 -28q-163 0 -253.5 90.5t-90.5 281.5v421h-191v190h191v290h210v-290h367v-190z" />
    <glyph glyph-name="u" unicode="u" horiz-adv-x="1196" 
d="M1042 406q0 -114 -38 -196t-100 -134t-142 -76.5t-164 -24.5t-164 24.5t-142.5 76.5t-100 134t-37.5 196v552h210v-533q0 -69 18 -117.5t49.5 -78.5t74.5 -43.5t92 -13.5t92 13.5t74.5 43.5t49.5 78.5t18 117.5v533h210v-552z" />
    <glyph glyph-name="v" unicode="v" horiz-adv-x="1062" 
d="M656 0h-248l-385 958h228l283 -741l283 741h222z" />
    <glyph glyph-name="w" unicode="w" horiz-adv-x="1674" 
d="M1195 226l226 732h218l-317 -958h-250l-237 722l-237 -722h-246l-317 958h223l225 -728l236 728h237z" />
    <glyph glyph-name="x" unicode="x" horiz-adv-x="1051" 
d="M657 491l361 -491h-257l-243 333l-240 -333h-245l361 489l-355 469h257l233 -320l235 320h247z" />
    <glyph glyph-name="y" unicode="y" horiz-adv-x="1098" 
d="M330 -406h-232l343 603l-425 761h235l308 -550l297 550h230z" />
    <glyph glyph-name="z" unicode="z" horiz-adv-x="1041" 
d="M916 806l-523 -616h533v-190h-811v152l532 616h-516v190h785v-152z" />
    <glyph glyph-name="braceleft" unicode="{" horiz-adv-x="880" 
d="M756 1206q-50 0 -90 -13.5t-68 -39.5t-42.5 -64t-12.5 -87l5 -108q5 -117 -46.5 -200t-159.5 -125q108 -42 159.5 -125t46.5 -200l-5 -108q-2 -49 12.5 -87t42.5 -64t68 -39.5t90 -13.5h48v-194h-48q-108 0 -190.5 29.5t-137 84.5t-80.5 133t-21 175l5 108q2 49 -12 87
t-42.5 64t-70 39.5t-93.5 13.5v194q52 0 93.5 13.5t70 39.5t42.5 64t12 87l-5 108q-5 97 21 175t80.5 133t137 84.5t190.5 29.5h48v-194h-48z" />
    <glyph glyph-name="bar" unicode="|" horiz-adv-x="742" 
d="M476 -265h-210v1665h210v-1665z" />
    <glyph glyph-name="braceright" unicode="}" horiz-adv-x="880" 
d="M124 -68q49 0 89.5 13.5t68.5 39.5t42.5 64t12.5 87l-5 108q-5 117 46.5 200t159.5 125q-108 42 -159.5 125t-46.5 200l5 108q2 49 -12.5 87t-42.5 64t-68.5 39.5t-89.5 13.5h-48v194h48q108 0 190.5 -29.5t137 -84.5t80 -133t21.5 -175l-5 -108q-2 -49 12 -87t42.5 -64
t70 -39.5t93.5 -13.5v-194q-52 0 -93.5 -13.5t-70 -39.5t-42.5 -64t-12 -87l5 -108q4 -97 -21.5 -175t-80 -133t-137 -84.5t-190.5 -29.5h-48v194h48z" />
    <glyph glyph-name="asciitilde" unicode="~" horiz-adv-x="1200" 
d="M1068 523q-59 -62 -125.5 -92t-154.5 -30q-73 0 -122.5 12t-90.5 27t-81.5 27t-94.5 12q-38 0 -73 -18.5t-79 -56.5l-114 133q30 31 60.5 54t64.5 38t72.5 22.5t82.5 7.5q73 0 122.5 -12t90.5 -27t81.5 -27t94.5 -12q38 0 73 18.5t79 56.5z" />
    <glyph glyph-name="uni00A0" unicode="&#xa0;" horiz-adv-x="540" 
 />
    <glyph glyph-name="exclamdown" unicode="&#xa1;" horiz-adv-x="530" 
d="M171 496h190l34 -938h-258zM265 633q-35 0 -66.5 14t-55.5 38t-38 55.5t-14 66.5t14 67t38 56t55.5 38.5t66.5 14.5t66.5 -14.5t55.5 -38.5t38.5 -56t14.5 -67t-14.5 -66.5t-38.5 -55.5t-55.5 -38t-66.5 -14z" />
    <glyph glyph-name="cent" unicode="&#xa2;" horiz-adv-x="1400" 
d="M851 1400v-202q91 -11 169 -48t135 -100l-123 -137q-42 35 -86 58.5t-95 33.5v-611q54 11 101 36t86 58l117 -138q-59 -63 -136.5 -100t-167.5 -48v-202h-194v209q-95 18 -170.5 62.5t-128.5 109t-81.5 145.5t-28.5 174t28.5 174t81.5 145.5t128.5 108.5t170.5 62v210
h194zM455 700q0 -53 14.5 -99.5t41 -84t64 -65.5t82.5 -44v586q-45 -16 -82.5 -44t-64 -65.5t-41 -84t-14.5 -99.5z" />
    <glyph glyph-name="sterling" unicode="&#xa3;" horiz-adv-x="1400" 
d="M1227 0h-1053v206h166v399h-166v190h166v80q0 138 39.5 241.5t108 171.5t159.5 102t194 34q112 0 208.5 -36t167.5 -109l-146 -153q-44 46 -102 68.5t-128 22.5q-62 0 -114 -20.5t-90 -64t-59.5 -111t-21.5 -162.5v-64h499v-190h-499v-399h671v-206z" />
    <glyph glyph-name="currency" unicode="&#xa4;" horiz-adv-x="1400" 
d="M292 1230l147 -146q56 38 122 58.5t139 20.5q72 0 138 -20.5t122 -58.5l146 146l123 -123l-146 -146q38 -56 59.5 -122t21.5 -139q0 -74 -21 -139.5t-59 -122.5l146 -145l-123 -123l-146 146q-57 -38 -122.5 -59t-138.5 -21q-74 0 -140 21t-122 59l-145 -146l-122 123
l145 145q-38 56 -59 122t-21 140q0 73 21 139t59 122l-146 146zM700 408q61 0 114 22.5t92.5 62t62 93t22.5 114.5t-22.5 114t-62 92.5t-92.5 62t-114 22.5t-114 -22.5t-92.5 -62t-62 -92.5t-22.5 -114t22.5 -114.5t62 -93t92.5 -62t114 -22.5z" />
    <glyph glyph-name="yen" unicode="&#xa5;" horiz-adv-x="1400" 
d="M1190 280h-374v-280h-217v280h-375v173h375v156h-375v173h287l-423 618h258l361 -552l352 552h254l-415 -618h292v-173h-374v-156h374v-173z" />
    <glyph glyph-name="brokenbar" unicode="&#xa6;" horiz-adv-x="742" 
d="M476 706h-210v694h210v-694zM476 -265h-210v694h210v-694z" />
    <glyph glyph-name="section" unicode="&#xa7;" horiz-adv-x="1308" 
d="M1042 1127q-77 45 -164.5 73t-185.5 28q-63 0 -115 -11.5t-90 -33t-59.5 -52.5t-21.5 -69q0 -36 18.5 -61t53.5 -42t87 -28.5t118 -20.5l85 -11q80 -11 153 -33t128.5 -61t88.5 -96t33 -137q0 -84 -39.5 -147.5t-107.5 -108.5q57 -38 91.5 -96t34.5 -139
q0 -95 -41.5 -166.5t-111 -119.5t-162 -72t-194.5 -24q-66 0 -135 10t-135 29.5t-126 48t-108 66.5l111 170q33 -26 77 -49.5t95.5 -41t107.5 -27.5t113 -10q62 0 115.5 11t93.5 32t63 52.5t23 72.5q0 34 -20 58.5t-57.5 42.5t-90.5 30t-120 20l-96 12q-76 9 -145 31.5
t-121.5 62t-83.5 98t-31 139.5q0 80 38 142.5t105 107.5q-56 40 -89 98t-33 143q0 89 39 159t106.5 118t158.5 73.5t195 25.5q70 0 131.5 -8.5t117 -25t106 -40t97.5 -52.5zM574 717q-18 2 -36 5.5t-36 7.5q-55 -23 -86 -64.5t-31 -95.5q0 -35 18.5 -60t53.5 -42.5t87 -29
t118 -19.5l85 -11q23 -3 45.5 -7t44.5 -9q55 23 87.5 64t32.5 98q0 33 -20 58t-57.5 43t-90.5 30t-120 20z" />
    <glyph glyph-name="dieresis" unicode="&#xa8;" horiz-adv-x="1020" 
d="M309 1399q31 0 58 -11.5t47 -31.5t31.5 -47t11.5 -58t-11.5 -58t-31.5 -46.5t-47 -30.5t-58 -11t-58 11t-46.5 30.5t-30.5 46.5t-11 58t11 58t30.5 47t46.5 31.5t58 11.5zM709 1399q31 0 58 -11.5t47 -31.5t31.5 -47t11.5 -58t-11.5 -58t-31.5 -46.5t-47 -30.5t-58 -11
t-58 11t-46.5 30.5t-30.5 46.5t-11 58t11 58t30.5 47t46.5 31.5t58 11.5z" />
    <glyph glyph-name="copyright" unicode="&#xa9;" horiz-adv-x="1912" 
d="M956 1522q113 0 218 -29t196 -82t165.5 -127t128 -164t82.5 -193.5t29 -215.5t-29 -216t-82.5 -194t-128 -164.5t-165.5 -127.5t-196 -82t-218 -29t-218 29t-196 82t-165.5 127.5t-128 164.5t-82.5 194t-29 216t29 215.5t82.5 193.5t128 164t165.5 127t196 82t218 29z
M956 1337q-130 0 -244.5 -49t-199.5 -134t-134.5 -199t-49.5 -244q0 -131 49.5 -245t134.5 -199.5t199.5 -134.5t244.5 -49t244.5 49t199.5 134.5t134.5 199.5t49.5 245q0 130 -49.5 244t-134.5 199t-199.5 134t-244.5 49zM1169 858q-34 49 -83 76.5t-112 27.5
q-50 0 -92 -19t-73.5 -52.5t-49 -79.5t-17.5 -100q0 -61 19 -107.5t51 -78.5t74 -48.5t89 -16.5q62 0 112 27.5t85 76.5l147 -116q-58 -80 -144.5 -125.5t-198.5 -45.5q-94 0 -173 32.5t-136.5 90t-89.5 137t-32 174.5q0 94 32 174t89.5 137.5t136.5 90t173 32.5
q111 0 202.5 -48t146.5 -134z" />
    <glyph glyph-name="ordfeminine" unicode="&#xaa;" horiz-adv-x="791" 
d="M375 1282q72 0 130 -19t98 -56.5t61.5 -92t21.5 -126.5v-400h-169v70q-36 -38 -88.5 -63t-121.5 -25q-56 0 -100.5 16t-75 45.5t-46.5 69.5t-16 88t19.5 86t55.5 64.5t87.5 41t115.5 14.5h165q-6 65 -44 99.5t-113 34.5q-57 0 -103.5 -19.5t-81.5 -45.5l-68 133
q115 85 273 85zM347 712q46 0 90 22t78 61v80h-143q-34 0 -57.5 -7t-37.5 -18.5t-20.5 -26.5t-6.5 -30q0 -30 23 -55.5t74 -25.5z" />
    <glyph glyph-name="guillemotleft" unicode="&#xab;" horiz-adv-x="1062" 
d="M944 154h-225l-189 379l189 379h225l-189 -379zM519 154h-225l-189 379l189 379h225l-189 -379z" />
    <glyph glyph-name="logicalnot" unicode="&#xac;" horiz-adv-x="1200" 
d="M1050 628v-500h-194v310h-706v190h900z" />
    <glyph glyph-name="uni00AD" unicode="&#xad;" horiz-adv-x="846" 
d="M713 438h-580v190h580v-190z" />
    <glyph glyph-name="registered" unicode="&#xae;" horiz-adv-x="1017" 
d="M510 1441q96 0 180 -35.5t146.5 -96.5t98.5 -142.5t36 -174.5q0 -92 -36 -174t-98.5 -143.5t-146.5 -97t-180 -35.5q-98 0 -183 35.5t-147.5 97t-98 143.5t-35.5 174q0 93 35.5 174.5t98 142.5t147.5 96.5t183 35.5zM510 667q67 0 126 25.5t102.5 69.5t68.5 103t25 127
q0 67 -25 126.5t-68.5 103t-102.5 69t-126 25.5q-69 0 -128.5 -25.5t-103.5 -69t-69 -103t-25 -126.5q0 -68 25 -127t69 -103t103.5 -69.5t128.5 -25.5zM536 1191q82 0 124.5 -36.5t42.5 -97.5q0 -48 -30.5 -79.5t-88.5 -41.5l124 -143h-134l-111 139h-13v-139h-112v398h198
zM450 1094v-73h84q26 0 40 8t14 28q0 19 -14 28t-40 9h-84z" />
    <glyph glyph-name="macron" unicode="&#xaf;" horiz-adv-x="1000" 
d="M190 1335h620v-170h-620v170z" />
    <glyph glyph-name="degree" unicode="&#xb0;" horiz-adv-x="842" 
d="M421 686q-78 0 -146 29t-119 79t-80.5 117.5t-29.5 144.5q0 76 29.5 143.5t80.5 117.5t119 79t146 29t146 -29t119 -79t80.5 -117.5t29.5 -143.5q0 -77 -29.5 -144.5t-80.5 -117.5t-119 -79t-146 -29zM421 856q39 0 74.5 15.5t62 42.5t42.5 63.5t16 78.5q0 41 -16 77.5
t-42.5 63.5t-62 42.5t-74.5 15.5q-40 0 -75.5 -15.5t-62 -42.5t-42 -63.5t-15.5 -77.5q0 -42 15.5 -78.5t42 -63.5t62 -42.5t75.5 -15.5z" />
    <glyph glyph-name="plusminus" unicode="&#xb1;" horiz-adv-x="1200" 
d="M503 283v265h-353v190h353v325h194v-325h353v-190h-353v-265h-194zM1050 0h-900v190h900v-190z" />
    <glyph glyph-name="uni00B2" unicode="&#xb2;" horiz-adv-x="721" 
d="M62 1273q18 22 44 47t61 46t81 34.5t104 13.5q65 0 117.5 -19t89 -53.5t56.5 -82.5t20 -107q0 -37 -8.5 -68.5t-24.5 -61t-39 -57t-51 -55.5l-164 -161h307v-161h-554v135l290 285q31 31 48 63t17 67q0 50 -33 80.5t-86 30.5q-28 0 -51 -7t-42.5 -18.5t-36.5 -26.5
t-33 -32z" />
    <glyph glyph-name="uni00B3" unicode="&#xb3;" horiz-adv-x="730" 
d="M333 1414q66 0 121 -16.5t94 -47t61 -73.5t22 -96q0 -65 -32.5 -111.5t-89.5 -72.5q65 -26 102.5 -73t37.5 -112q0 -60 -26 -105t-69.5 -74.5t-99 -44t-115.5 -14.5q-94 0 -168.5 30.5t-122.5 87.5l100 114q35 -37 82.5 -57t100.5 -20q29 0 54 6t44 18t29.5 30t10.5 43
q0 24 -12.5 41.5t-33.5 29.5t-49 18t-59 6h-95v153h96q57 0 96.5 23.5t39.5 69.5q0 45 -36 68.5t-91 23.5q-58 0 -100 -24t-68 -56l-104 111q44 54 112 89t168 35z" />
    <glyph glyph-name="acute" unicode="&#xb4;" horiz-adv-x="1000" 
d="M272 1110l191 300h266l-251 -300h-206z" />
    <glyph glyph-name="mu" unicode="&#xb5;" horiz-adv-x="1209" 
d="M154 -400v1358h210v-533q0 -121 58.5 -186t164.5 -65q51 0 96 16.5t78.5 48.5t53.5 79t20 109v531h210v-958h-208v117q-29 -42 -64.5 -69.5t-74.5 -43.5t-78.5 -22.5t-76.5 -6.5q-51 0 -96 10t-85 28v-413h-208z" />
    <glyph glyph-name="paragraph" unicode="&#xb6;" horiz-adv-x="1267" 
d="M568 629q-106 2 -187.5 29.5t-136.5 77.5t-83 120.5t-28 157.5q0 88 28 158.5t83 120t136.5 77t187.5 29.5v1h166v-1400h-166v629zM835 1400h166v-1400h-166v1400z" />
    <glyph glyph-name="periodcentered" unicode="&#xb7;" horiz-adv-x="655" 
d="M328 708q35 0 66.5 -14t55.5 -38t38 -55.5t14 -66.5t-14 -67t-38 -56t-55.5 -38.5t-66.5 -14.5t-66.5 14.5t-55.5 38.5t-38.5 56t-14.5 67t14.5 66.5t38.5 55.5t55.5 38t66.5 14z" />
    <glyph glyph-name="cedilla" unicode="&#xb8;" horiz-adv-x="1014" 
d="M565 -321h-219l111 328h209z" />
    <glyph glyph-name="uni00B9" unicode="&#xb9;" horiz-adv-x="565" 
d="M413 588h-173v585l-192 -74v171l365 143v-825z" />
    <glyph glyph-name="ordmasculine" unicode="&#xba;" horiz-adv-x="868" 
d="M434 1282q79 0 145.5 -27t115.5 -74.5t76.5 -113t27.5 -141.5t-27.5 -141t-76.5 -113t-115.5 -75t-145.5 -27t-146 27t-115.5 75t-76 113t-27.5 141t27.5 141.5t76 113t115.5 74.5t146 27zM434 1121q-41 0 -75 -14.5t-59.5 -40t-39.5 -61.5t-14 -79t14 -78.5t39.5 -61
t59.5 -40t75 -14.5q40 0 74.5 14.5t60 40t40 61t14.5 78.5t-14.5 79t-40 61.5t-60 40t-74.5 14.5z" />
    <glyph glyph-name="guillemotright" unicode="&#xbb;" horiz-adv-x="1062" 
d="M118 912h225l189 -379l-189 -379h-225l189 379zM543 912h225l189 -379l-189 -379h-225l189 379z" />
    <glyph glyph-name="onequarter" unicode="&#xbc;" horiz-adv-x="1701" 
d="M489 0h-209l883 1400h209zM1553 301h110v-158h-110v-143h-173v143h-365v124l281 544h191l-268 -510h161v218h173v-218zM413 588h-173v585l-192 -74v171l365 143v-825z" />
    <glyph glyph-name="onehalf" unicode="&#xbd;" horiz-adv-x="1778" 
d="M489 0h-209l883 1400h209zM1119 685q18 22 44 47t61 46t81 34.5t104 13.5q65 0 117.5 -19t89 -53.5t56.5 -82.5t20 -107q0 -37 -8.5 -68.5t-24.5 -61t-39 -57t-51 -55.5l-164 -161h307v-161h-554v135l290 285q31 31 48 63t17 67q0 50 -33 80.5t-86 30.5q-28 0 -51 -7
t-42.5 -18.5t-36.5 -26.5t-33 -32zM413 588h-173v585l-192 -74v171l365 143v-825z" />
    <glyph glyph-name="threequarters" unicode="&#xbe;" horiz-adv-x="1836" 
d="M624 0h-209l883 1400h209zM1688 301h110v-158h-110v-143h-173v143h-365v124l281 544h191l-268 -510h161v218h173v-218zM333 1414q66 0 121 -16.5t94 -47t61 -73.5t22 -96q0 -65 -32.5 -111.5t-89.5 -72.5q65 -26 102.5 -73t37.5 -112q0 -60 -26 -105t-69.5 -74.5t-99 -44
t-115.5 -14.5q-94 0 -168.5 30.5t-122.5 87.5l100 114q35 -37 82.5 -57t100.5 -20q29 0 54 6t44 18t29.5 30t10.5 43q0 24 -12.5 41.5t-33.5 29.5t-49 18t-59 6h-95v153h96q57 0 96.5 23.5t39.5 69.5q0 45 -36 68.5t-91 23.5q-58 0 -100 -24t-68 -56l-104 111q44 54 112 89
t168 35z" />
    <glyph glyph-name="questiondown" unicode="&#xbf;" horiz-adv-x="890" 
d="M698 496v-322h-89q-161 0 -247 -57.5t-86 -166.5q0 -98 84.5 -151t243.5 -53q45 0 86.5 3t73.5 6l18 -215q-19 -3 -42.5 -5.5t-48.5 -4.5t-50 -3t-47 -1q-132 0 -234.5 29.5t-173 83.5t-107.5 130.5t-37 171.5q0 181 117 289.5t340 136.5l9 129h190zM603 633
q-35 0 -66.5 14t-55.5 38t-38 55.5t-14 66.5t14 67t38 56t55.5 38.5t66.5 14.5t66.5 -14.5t55.5 -38.5t38.5 -56t14.5 -67t-14.5 -66.5t-38.5 -55.5t-55.5 -38t-66.5 -14z" />
    <glyph glyph-name="Agrave" unicode="&#xc0;" horiz-adv-x="1448" 
d="M1418 0h-243l-138 357h-634l-138 -357h-235l553 1400h282zM486 571h468l-234 604zM410 1825h266l191 -300h-206z" />
    <glyph glyph-name="Aacute" unicode="&#xc1;" horiz-adv-x="1448" 
d="M1418 0h-243l-138 357h-634l-138 -357h-235l553 1400h282zM486 571h468l-234 604zM566 1525l191 300h266l-251 -300h-206z" />
    <glyph glyph-name="Acircumflex" unicode="&#xc2;" horiz-adv-x="1448" 
d="M1418 0h-243l-138 357h-634l-138 -357h-235l553 1400h282zM486 571h468l-234 604zM855 1515l-131 163l-131 -163h-223l211 300h286l211 -300h-223z" />
    <glyph glyph-name="Atilde" unicode="&#xc3;" horiz-adv-x="1448" 
d="M1418 0h-243l-138 357h-634l-138 -357h-235l553 1400h282zM486 571h468l-234 604zM351 1679q51 57 107 84.5t133 27.5q51 0 90 -10.5t69.5 -23.5t56 -23.5t49.5 -10.5q33 0 63.5 16.5t68.5 48.5l108 -133q-51 -57 -107 -84.5t-133 -27.5q-50 0 -88.5 10.5t-69 23.5
t-56.5 23.5t-51 10.5q-33 0 -63.5 -16.5t-68.5 -48.5z" />
    <glyph glyph-name="Adieresis" unicode="&#xc4;" horiz-adv-x="1448" 
d="M1418 0h-243l-138 357h-634l-138 -357h-235l553 1400h282zM486 571h468l-234 604zM523 1814q31 0 58 -11.5t47 -31.5t31.5 -47t11.5 -58t-11.5 -58t-31.5 -46.5t-47 -30.5t-58 -11t-58 11t-46.5 30.5t-30.5 46.5t-11 58t11 58t30.5 47t46.5 31.5t58 11.5zM923 1814
q31 0 58 -11.5t47 -31.5t31.5 -47t11.5 -58t-11.5 -58t-31.5 -46.5t-47 -30.5t-58 -11t-58 11t-46.5 30.5t-30.5 46.5t-11 58t11 58t30.5 47t46.5 31.5t58 11.5z" />
    <glyph glyph-name="Aring" unicode="&#xc5;" horiz-adv-x="1448" 
d="M1418 0h-243l-138 357h-634l-138 -357h-235l553 1400h282zM486 571h468l-234 604zM724 1498q-51 0 -96 19t-79 52.5t-53.5 78t-19.5 95.5q0 50 19.5 94.5t53.5 77.5t79 52.5t96 19.5t96.5 -19.5t79.5 -52.5t53.5 -77.5t19.5 -94.5q0 -51 -19.5 -95.5t-53.5 -78
t-79.5 -52.5t-96.5 -19zM724 1630q22 0 42 8.5t35 24t24 36t9 44.5q0 23 -9 43.5t-24 35.5t-35 23.5t-42 8.5t-42 -8.5t-35 -23.5t-23.5 -35.5t-8.5 -43.5q0 -24 8.5 -44.5t23.5 -36t35 -24t42 -8.5z" />
    <glyph glyph-name="AE" unicode="&#xc6;" horiz-adv-x="2317" 
d="M2165 0h-1021v321h-606l-241 -321h-273l1057 1400h1071v-212h-782v-377h755v-212h-755v-387h795v-212zM1144 535v592l-445 -592h445z" />
    <glyph glyph-name="Ccedilla" unicode="&#xc7;" horiz-adv-x="1532" 
d="M847 1426q93 0 180 -20t162 -58t136 -92.5t102 -122.5l-189 -126q-64 94 -164.5 148t-226.5 54q-107 0 -198 -37t-157 -104t-103.5 -161t-37.5 -207t37.5 -207t103.5 -161t157 -104t198 -37q125 0 224.5 53t165.5 148l184 -135q-45 -66 -105.5 -118t-134 -89t-158 -56.5
t-176.5 -19.5q-161 0 -296 54.5t-232 151.5t-151 230t-54 290t54 290t151 230t232 151.5t296 54.5zM860 -321h-229l113 328h219z" />
    <glyph glyph-name="Egrave" unicode="&#xc8;" horiz-adv-x="1363" 
d="M1211 0h-1021v1400h1008v-212h-782v-377h755v-212h-755v-387h795v-212zM377 1825h266l191 -300h-206z" />
    <glyph glyph-name="Eacute" unicode="&#xc9;" horiz-adv-x="1363" 
d="M1211 0h-1021v1400h1008v-212h-782v-377h755v-212h-755v-387h795v-212zM533 1525l191 300h266l-251 -300h-206z" />
    <glyph glyph-name="Ecircumflex" unicode="&#xca;" horiz-adv-x="1363" 
d="M1211 0h-1021v1400h1008v-212h-782v-377h755v-212h-755v-387h795v-212zM822 1515l-131 163l-131 -163h-223l211 300h286l211 -300h-223z" />
    <glyph glyph-name="Edieresis" unicode="&#xcb;" horiz-adv-x="1363" 
d="M1211 0h-1021v1400h1008v-212h-782v-377h755v-212h-755v-387h795v-212zM490 1814q31 0 58 -11.5t47 -31.5t31.5 -47t11.5 -58t-11.5 -58t-31.5 -46.5t-47 -30.5t-58 -11t-58 11t-46.5 30.5t-30.5 46.5t-11 58t11 58t30.5 47t46.5 31.5t58 11.5zM890 1814q31 0 58 -11.5
t47 -31.5t31.5 -47t11.5 -58t-11.5 -58t-31.5 -46.5t-47 -30.5t-58 -11t-58 11t-46.5 30.5t-30.5 46.5t-11 58t11 58t30.5 47t46.5 31.5t58 11.5z" />
    <glyph glyph-name="Igrave" unicode="&#xcc;" horiz-adv-x="606" 
d="M416 0h-226v1400h226v-1400zM-11 1825h266l191 -300h-206z" />
    <glyph glyph-name="Iacute" unicode="&#xcd;" horiz-adv-x="606" 
d="M416 0h-226v1400h226v-1400zM145 1525l191 300h266l-251 -300h-206z" />
    <glyph glyph-name="Icircumflex" unicode="&#xce;" horiz-adv-x="606" 
d="M416 0h-226v1400h226v-1400zM434 1515l-131 163l-131 -163h-223l211 300h286l211 -300h-223z" />
    <glyph glyph-name="Idieresis" unicode="&#xcf;" horiz-adv-x="606" 
d="M416 0h-226v1400h226v-1400zM102 1814q31 0 58 -11.5t47 -31.5t31.5 -47t11.5 -58t-11.5 -58t-31.5 -46.5t-47 -30.5t-58 -11t-58 11t-46.5 30.5t-30.5 46.5t-11 58t11 58t30.5 47t46.5 31.5t58 11.5zM502 1814q31 0 58 -11.5t47 -31.5t31.5 -47t11.5 -58t-11.5 -58
t-31.5 -46.5t-47 -30.5t-58 -11t-58 11t-46.5 30.5t-30.5 46.5t-11 58t11 58t30.5 47t46.5 31.5t58 11.5z" />
    <glyph glyph-name="Eth" unicode="&#xd0;" horiz-adv-x="1701" 
d="M860 1400q164 0 298 -50t229.5 -141.5t147.5 -221t52 -287.5t-52 -287.5t-147.5 -221t-229.5 -141.5t-298 -50h-556v598h-190v214h190v588h556zM904 598h-374v-384h330q123 0 215 36.5t153 101t91.5 153.5t30.5 195q0 107 -30.5 196t-91.5 153.5t-153 100.5t-215 36h-330
v-374h374v-214z" />
    <glyph glyph-name="Ntilde" unicode="&#xd1;" horiz-adv-x="1592" 
d="M1402 0h-204l-781 1013l-1 -1013h-226v1400h204l782 -1013v1013h226v-1400zM423 1679q51 57 107 84.5t133 27.5q51 0 90 -10.5t69.5 -23.5t56 -23.5t49.5 -10.5q33 0 63.5 16.5t68.5 48.5l108 -133q-51 -57 -107 -84.5t-133 -27.5q-50 0 -88.5 10.5t-69 23.5t-56.5 23.5
t-51 10.5q-33 0 -63.5 -16.5t-68.5 -48.5z" />
    <glyph glyph-name="Ograve" unicode="&#xd2;" horiz-adv-x="1694" 
d="M847 1426q161 0 296 -54.5t232 -151.5t151 -230t54 -290t-54 -290t-151 -230t-232 -151.5t-296 -54.5t-296 54.5t-232 151.5t-151 230t-54 290t54 290t151 230t232 151.5t296 54.5zM847 1209q-107 0 -198 -37t-157 -104t-103.5 -161t-37.5 -207t37.5 -207t103.5 -161
t157 -104t198 -37t198 37t157 104t103.5 161t37.5 207t-37.5 207t-103.5 161t-157 104t-198 37zM533 1825h266l191 -300h-206z" />
    <glyph glyph-name="Oacute" unicode="&#xd3;" horiz-adv-x="1694" 
d="M847 1426q161 0 296 -54.5t232 -151.5t151 -230t54 -290t-54 -290t-151 -230t-232 -151.5t-296 -54.5t-296 54.5t-232 151.5t-151 230t-54 290t54 290t151 230t232 151.5t296 54.5zM847 1209q-107 0 -198 -37t-157 -104t-103.5 -161t-37.5 -207t37.5 -207t103.5 -161
t157 -104t198 -37t198 37t157 104t103.5 161t37.5 207t-37.5 207t-103.5 161t-157 104t-198 37zM689 1525l191 300h266l-251 -300h-206z" />
    <glyph glyph-name="Ocircumflex" unicode="&#xd4;" horiz-adv-x="1694" 
d="M847 1426q161 0 296 -54.5t232 -151.5t151 -230t54 -290t-54 -290t-151 -230t-232 -151.5t-296 -54.5t-296 54.5t-232 151.5t-151 230t-54 290t54 290t151 230t232 151.5t296 54.5zM847 1209q-107 0 -198 -37t-157 -104t-103.5 -161t-37.5 -207t37.5 -207t103.5 -161
t157 -104t198 -37t198 37t157 104t103.5 161t37.5 207t-37.5 207t-103.5 161t-157 104t-198 37zM978 1515l-131 163l-131 -163h-223l211 300h286l211 -300h-223z" />
    <glyph glyph-name="Otilde" unicode="&#xd5;" horiz-adv-x="1694" 
d="M847 1426q161 0 296 -54.5t232 -151.5t151 -230t54 -290t-54 -290t-151 -230t-232 -151.5t-296 -54.5t-296 54.5t-232 151.5t-151 230t-54 290t54 290t151 230t232 151.5t296 54.5zM847 1209q-107 0 -198 -37t-157 -104t-103.5 -161t-37.5 -207t37.5 -207t103.5 -161
t157 -104t198 -37t198 37t157 104t103.5 161t37.5 207t-37.5 207t-103.5 161t-157 104t-198 37zM474 1679q51 57 107 84.5t133 27.5q51 0 90 -10.5t69.5 -23.5t56 -23.5t49.5 -10.5q33 0 63.5 16.5t68.5 48.5l108 -133q-51 -57 -107 -84.5t-133 -27.5q-50 0 -88.5 10.5
t-69 23.5t-56.5 23.5t-51 10.5q-33 0 -63.5 -16.5t-68.5 -48.5z" />
    <glyph glyph-name="Odieresis" unicode="&#xd6;" horiz-adv-x="1694" 
d="M847 1426q161 0 296 -54.5t232 -151.5t151 -230t54 -290t-54 -290t-151 -230t-232 -151.5t-296 -54.5t-296 54.5t-232 151.5t-151 230t-54 290t54 290t151 230t232 151.5t296 54.5zM847 1209q-107 0 -198 -37t-157 -104t-103.5 -161t-37.5 -207t37.5 -207t103.5 -161
t157 -104t198 -37t198 37t157 104t103.5 161t37.5 207t-37.5 207t-103.5 161t-157 104t-198 37zM646 1814q31 0 58 -11.5t47 -31.5t31.5 -47t11.5 -58t-11.5 -58t-31.5 -46.5t-47 -30.5t-58 -11t-58 11t-46.5 30.5t-30.5 46.5t-11 58t11 58t30.5 47t46.5 31.5t58 11.5z
M1046 1814q31 0 58 -11.5t47 -31.5t31.5 -47t11.5 -58t-11.5 -58t-31.5 -46.5t-47 -30.5t-58 -11t-58 11t-46.5 30.5t-30.5 46.5t-11 58t11 58t30.5 47t46.5 31.5t58 11.5z" />
    <glyph glyph-name="multiply" unicode="&#xd7;" horiz-adv-x="1200" 
d="M179 247l284 284l-286 286l139 139l286 -286l284 284l135 -135l-284 -284l286 -286l-139 -139l-286 286l-284 -284z" />
    <glyph glyph-name="Oslash" unicode="&#xd8;" horiz-adv-x="1694" 
d="M847 1426q129 0 240.5 -35t202.5 -100l134 134l149 -149l-133 -133q67 -91 103.5 -203t36.5 -240q0 -157 -54 -290t-151 -230t-232 -151.5t-296 -54.5q-130 0 -241 35t-202 99l-133 -133l-149 148l132 132q-67 91 -103.5 203t-36.5 242q0 157 54 290t151 230t232 151.5
t296 54.5zM847 1209q-107 0 -198 -37t-157 -104t-103.5 -161t-37.5 -207q0 -80 18 -149.5t53 -127.5l705 705q-59 39 -129.5 60t-150.5 21zM1343 700q0 79 -18.5 148t-52.5 127l-705 -705q60 -38 130 -58.5t150 -20.5q107 0 198 37t157 104t103.5 161t37.5 207z" />
    <glyph glyph-name="Ugrave" unicode="&#xd9;" horiz-adv-x="1530" 
d="M1359 552q0 -146 -46.5 -254.5t-126.5 -180t-188.5 -107t-232.5 -35.5t-232.5 35.5t-188.5 107t-126.5 180t-46.5 254.5v848h226v-831q0 -100 27 -171.5t75.5 -117t116.5 -67t149 -21.5t149 21.5t116.5 67t75.5 117t27 171.5v831h226v-848zM451 1825h266l191 -300h-206z
" />
    <glyph glyph-name="Uacute" unicode="&#xda;" horiz-adv-x="1530" 
d="M1359 552q0 -146 -46.5 -254.5t-126.5 -180t-188.5 -107t-232.5 -35.5t-232.5 35.5t-188.5 107t-126.5 180t-46.5 254.5v848h226v-831q0 -100 27 -171.5t75.5 -117t116.5 -67t149 -21.5t149 21.5t116.5 67t75.5 117t27 171.5v831h226v-848zM607 1525l191 300h266
l-251 -300h-206z" />
    <glyph glyph-name="Ucircumflex" unicode="&#xdb;" horiz-adv-x="1530" 
d="M1359 552q0 -146 -46.5 -254.5t-126.5 -180t-188.5 -107t-232.5 -35.5t-232.5 35.5t-188.5 107t-126.5 180t-46.5 254.5v848h226v-831q0 -100 27 -171.5t75.5 -117t116.5 -67t149 -21.5t149 21.5t116.5 67t75.5 117t27 171.5v831h226v-848zM896 1515l-131 163l-131 -163
h-223l211 300h286l211 -300h-223z" />
    <glyph glyph-name="Udieresis" unicode="&#xdc;" horiz-adv-x="1530" 
d="M1359 552q0 -146 -46.5 -254.5t-126.5 -180t-188.5 -107t-232.5 -35.5t-232.5 35.5t-188.5 107t-126.5 180t-46.5 254.5v848h226v-831q0 -100 27 -171.5t75.5 -117t116.5 -67t149 -21.5t149 21.5t116.5 67t75.5 117t27 171.5v831h226v-848zM564 1814q31 0 58 -11.5
t47 -31.5t31.5 -47t11.5 -58t-11.5 -58t-31.5 -46.5t-47 -30.5t-58 -11t-58 11t-46.5 30.5t-30.5 46.5t-11 58t11 58t30.5 47t46.5 31.5t58 11.5zM964 1814q31 0 58 -11.5t47 -31.5t31.5 -47t11.5 -58t-11.5 -58t-31.5 -46.5t-47 -30.5t-58 -11t-58 11t-46.5 30.5
t-30.5 46.5t-11 58t11 58t30.5 47t46.5 31.5t58 11.5z" />
    <glyph glyph-name="Yacute" unicode="&#xdd;" horiz-adv-x="1328" 
d="M779 568v-568h-226v572l-544 828h270l388 -627l389 627h263zM509 1525l191 300h266l-251 -300h-206z" />
    <glyph glyph-name="Thorn" unicode="&#xde;" horiz-adv-x="1324" 
d="M416 1140h317q121 0 213.5 -29.5t155.5 -84.5t95 -134t32 -177t-32 -177t-95 -134t-155.5 -84.5t-213.5 -29.5h-317v-290h-226v1400h226v-260zM416 927v-424h311q138 0 202.5 51.5t64.5 160.5t-64.5 160.5t-202.5 51.5h-311z" />
    <glyph glyph-name="germandbls" unicode="&#xdf;" horiz-adv-x="1241" 
d="M156 1024q0 85 27 164.5t85.5 141t149 98.5t218.5 37q97 0 182 -28.5t148.5 -80.5t100.5 -124.5t37 -160.5q0 -62 -17.5 -117t-48 -99t-72.5 -75t-91 -45q55 -12 104.5 -43.5t86.5 -76.5t58.5 -101t21.5 -117q0 -99 -34.5 -177t-94 -132.5t-140 -83.5t-171.5 -29
q-74 0 -125 7.5t-97 21.5l40 194q35 -14 72.5 -21t76.5 -7q125 0 191.5 58t66.5 176q0 63 -23 105.5t-66 69t-103 37.5t-134 11h-29v190h1q58 0 114.5 8t100 32t70.5 67.5t27 114.5q0 60 -21 103.5t-56 71t-82 41t-98 13.5q-65 0 -114.5 -19.5t-83.5 -54t-51 -81.5t-17 -103
v-1010h-210v1024z" />
    <glyph glyph-name="agrave" unicode="&#xe0;" horiz-adv-x="1248" 
d="M1084 0h-209v115q-50 -64 -124 -102t-177 -38q-101 0 -188 37.5t-152 104.5t-102 159.5t-37 202.5t37 202.5t102 159.5t152 104.5t188 37.5q103 0 177 -38.5t124 -102.5v116h209v-958zM599 786q-68 0 -121.5 -24.5t-90.5 -66t-57 -97.5t-20 -119t20 -119t57 -97.5
t90.5 -66t121.5 -24.5q65 0 118 23.5t91 64.5t59 97t21 122t-21 122t-59 97t-91 64.5t-118 23.5zM302 1410h266l191 -300h-206z" />
    <glyph glyph-name="aacute" unicode="&#xe1;" horiz-adv-x="1248" 
d="M1084 0h-209v115q-50 -64 -124 -102t-177 -38q-101 0 -188 37.5t-152 104.5t-102 159.5t-37 202.5t37 202.5t102 159.5t152 104.5t188 37.5q103 0 177 -38.5t124 -102.5v116h209v-958zM599 786q-68 0 -121.5 -24.5t-90.5 -66t-57 -97.5t-20 -119t20 -119t57 -97.5
t90.5 -66t121.5 -24.5q65 0 118 23.5t91 64.5t59 97t21 122t-21 122t-59 97t-91 64.5t-118 23.5zM470 1110l191 300h266l-251 -300h-206z" />
    <glyph glyph-name="acircumflex" unicode="&#xe2;" horiz-adv-x="1248" 
d="M1084 0h-209v115q-50 -64 -124 -102t-177 -38q-101 0 -188 37.5t-152 104.5t-102 159.5t-37 202.5t37 202.5t102 159.5t152 104.5t188 37.5q103 0 177 -38.5t124 -102.5v116h209v-958zM599 786q-68 0 -121.5 -24.5t-90.5 -66t-57 -97.5t-20 -119t20 -119t57 -97.5
t90.5 -66t121.5 -24.5q65 0 118 23.5t91 64.5t59 97t21 122t-21 122t-59 97t-91 64.5t-118 23.5zM752 1100l-131 163l-131 -163h-223l211 300h286l211 -300h-223z" />
    <glyph glyph-name="atilde" unicode="&#xe3;" horiz-adv-x="1248" 
d="M1084 0h-209v115q-50 -64 -124 -102t-177 -38q-101 0 -188 37.5t-152 104.5t-102 159.5t-37 202.5t37 202.5t102 159.5t152 104.5t188 37.5q103 0 177 -38.5t124 -102.5v116h209v-958zM599 786q-68 0 -121.5 -24.5t-90.5 -66t-57 -97.5t-20 -119t20 -119t57 -97.5
t90.5 -66t121.5 -24.5q65 0 118 23.5t91 64.5t59 97t21 122t-21 122t-59 97t-91 64.5t-118 23.5zM250 1264q51 57 107 84.5t133 27.5q51 0 90 -10.5t69.5 -23.5t56 -23.5t49.5 -10.5q33 0 63.5 16.5t68.5 48.5l108 -133q-51 -57 -107 -84.5t-133 -27.5q-50 0 -88.5 10.5
t-69 23.5t-56.5 23.5t-51 10.5q-33 0 -63.5 -16.5t-68.5 -48.5z" />
    <glyph glyph-name="adieresis" unicode="&#xe4;" horiz-adv-x="1248" 
d="M1084 0h-209v115q-50 -64 -124 -102t-177 -38q-101 0 -188 37.5t-152 104.5t-102 159.5t-37 202.5t37 202.5t102 159.5t152 104.5t188 37.5q103 0 177 -38.5t124 -102.5v116h209v-958zM599 786q-68 0 -121.5 -24.5t-90.5 -66t-57 -97.5t-20 -119t20 -119t57 -97.5
t90.5 -66t121.5 -24.5q65 0 118 23.5t91 64.5t59 97t21 122t-21 122t-59 97t-91 64.5t-118 23.5zM420 1399q31 0 58 -11.5t47 -31.5t31.5 -47t11.5 -58t-11.5 -58t-31.5 -46.5t-47 -30.5t-58 -11t-58 11t-46.5 30.5t-30.5 46.5t-11 58t11 58t30.5 47t46.5 31.5t58 11.5z
M820 1399q31 0 58 -11.5t47 -31.5t31.5 -47t11.5 -58t-11.5 -58t-31.5 -46.5t-47 -30.5t-58 -11t-58 11t-46.5 30.5t-30.5 46.5t-11 58t11 58t30.5 47t46.5 31.5t58 11.5z" />
    <glyph glyph-name="aring" unicode="&#xe5;" horiz-adv-x="1248" 
d="M1084 0h-209v115q-50 -64 -124 -102t-177 -38q-101 0 -188 37.5t-152 104.5t-102 159.5t-37 202.5t37 202.5t102 159.5t152 104.5t188 37.5q103 0 177 -38.5t124 -102.5v116h209v-958zM599 786q-68 0 -121.5 -24.5t-90.5 -66t-57 -97.5t-20 -119t20 -119t57 -97.5
t90.5 -66t121.5 -24.5q65 0 118 23.5t91 64.5t59 97t21 122t-21 122t-59 97t-91 64.5t-118 23.5zM620 1083q-51 0 -96 19t-79 52.5t-53.5 78t-19.5 95.5q0 50 19.5 94.5t53.5 77.5t79 52.5t96 19.5t96.5 -19.5t79.5 -52.5t53.5 -77.5t19.5 -94.5q0 -51 -19.5 -95.5
t-53.5 -78t-79.5 -52.5t-96.5 -19zM620 1215q22 0 42 8.5t35 24t24 36t9 44.5q0 23 -9 43.5t-24 35.5t-35 23.5t-42 8.5t-42 -8.5t-35 -23.5t-23.5 -35.5t-8.5 -43.5q0 -24 8.5 -44.5t23.5 -36t35 -24t42 -8.5z" />
    <glyph glyph-name="ae" unicode="&#xe6;" horiz-adv-x="1764" 
d="M1216 983q100 0 183.5 -36.5t143 -103t93 -159t33.5 -204.5q0 -20 -1 -40t-3 -38h-708q10 -65 37 -111t65 -75.5t85 -43.5t98 -14q72 0 144.5 26.5t132.5 74.5l104 -149q-88 -75 -186.5 -105t-207.5 -30q-118 0 -213 42t-161 119q-33 -34 -72 -63.5t-86 -51t-103.5 -34
t-124.5 -12.5q-93 0 -163 23.5t-117 64.5t-70.5 98t-23.5 123t27.5 119t77.5 89.5t120.5 56t156.5 19.5h264q-5 109 -64.5 167t-180.5 58q-40 0 -76.5 -8t-69.5 -21.5t-63 -30.5t-55 -36l-86 165q91 67 186 94t191 27q120 0 207 -40.5t140 -116.5q30 37 68.5 66t83 49.5
t94 31t100.5 10.5zM495 157q31 0 66.5 7t72 22t71.5 39t65 59q-19 57 -27 125h-236q-54 0 -90 -11t-57.5 -28.5t-30.5 -40t-9 -45.5t10 -46t31 -41t54 -29t80 -11zM1212 797q-56 0 -99.5 -17t-75 -48.5t-51.5 -75t-28 -95.5h497q-17 112 -80 174t-163 62z" />
    <glyph glyph-name="ccedilla" unicode="&#xe7;" horiz-adv-x="1027" 
d="M599 983q108 0 201 -38.5t157 -114.5l-134 -143q-51 48 -106 73.5t-124 25.5q-60 0 -112 -22.5t-90 -63t-59.5 -97t-21.5 -124.5t21.5 -124.5t59.5 -97t90 -63t112 -22.5q69 0 129 28.5t106 71.5l129 -144q-66 -76 -158 -114.5t-200 -38.5q-114 0 -207 38.5t-159 106
t-102 159.5t-36 200t36 200t102 159.5t159 106t207 38.5zM588 -321h-219l111 328h209z" />
    <glyph glyph-name="egrave" unicode="&#xe8;" horiz-adv-x="1120" 
d="M572 983q100 0 183.5 -36.5t143 -103t93 -159t33.5 -204.5q0 -20 -1 -40t-3 -38h-708q10 -65 37 -111t65 -75.5t85 -43.5t98 -14q72 0 144.5 26.5t132.5 74.5l104 -149q-88 -75 -186.5 -105t-207.5 -30q-108 0 -198 36t-155 102t-101 159t-36 207q0 112 35 205t98 159.5
t150.5 103t193.5 36.5zM568 797q-56 0 -99.5 -17t-75 -48.5t-51.5 -75t-28 -95.5h497q-17 112 -80 174t-163 62zM248 1410h266l191 -300h-206z" />
    <glyph glyph-name="eacute" unicode="&#xe9;" horiz-adv-x="1120" 
d="M572 983q100 0 183.5 -36.5t143 -103t93 -159t33.5 -204.5q0 -20 -1 -40t-3 -38h-708q10 -65 37 -111t65 -75.5t85 -43.5t98 -14q72 0 144.5 26.5t132.5 74.5l104 -149q-88 -75 -186.5 -105t-207.5 -30q-108 0 -198 36t-155 102t-101 159t-36 207q0 112 35 205t98 159.5
t150.5 103t193.5 36.5zM568 797q-56 0 -99.5 -17t-75 -48.5t-51.5 -75t-28 -95.5h497q-17 112 -80 174t-163 62zM416 1110l191 300h266l-251 -300h-206z" />
    <glyph glyph-name="ecircumflex" unicode="&#xea;" horiz-adv-x="1120" 
d="M572 983q100 0 183.5 -36.5t143 -103t93 -159t33.5 -204.5q0 -20 -1 -40t-3 -38h-708q10 -65 37 -111t65 -75.5t85 -43.5t98 -14q72 0 144.5 26.5t132.5 74.5l104 -149q-88 -75 -186.5 -105t-207.5 -30q-108 0 -198 36t-155 102t-101 159t-36 207q0 112 35 205t98 159.5
t150.5 103t193.5 36.5zM568 797q-56 0 -99.5 -17t-75 -48.5t-51.5 -75t-28 -95.5h497q-17 112 -80 174t-163 62zM698 1100l-131 163l-131 -163h-223l211 300h286l211 -300h-223z" />
    <glyph glyph-name="edieresis" unicode="&#xeb;" horiz-adv-x="1120" 
d="M572 983q100 0 183.5 -36.5t143 -103t93 -159t33.5 -204.5q0 -20 -1 -40t-3 -38h-708q10 -65 37 -111t65 -75.5t85 -43.5t98 -14q72 0 144.5 26.5t132.5 74.5l104 -149q-88 -75 -186.5 -105t-207.5 -30q-108 0 -198 36t-155 102t-101 159t-36 207q0 112 35 205t98 159.5
t150.5 103t193.5 36.5zM568 797q-56 0 -99.5 -17t-75 -48.5t-51.5 -75t-28 -95.5h497q-17 112 -80 174t-163 62zM366 1399q31 0 58 -11.5t47 -31.5t31.5 -47t11.5 -58t-11.5 -58t-31.5 -46.5t-47 -30.5t-58 -11t-58 11t-46.5 30.5t-30.5 46.5t-11 58t11 58t30.5 47
t46.5 31.5t58 11.5zM766 1399q31 0 58 -11.5t47 -31.5t31.5 -47t11.5 -58t-11.5 -58t-31.5 -46.5t-47 -30.5t-58 -11t-58 11t-46.5 30.5t-30.5 46.5t-11 58t11 58t30.5 47t46.5 31.5t58 11.5z" />
    <glyph glyph-name="igrave" unicode="&#xec;" horiz-adv-x="538" 
d="M374 0h-210v958h210v-958zM-50 1410h266l191 -300h-206z" />
    <glyph glyph-name="iacute" unicode="&#xed;" horiz-adv-x="538" 
d="M374 0h-210v958h210v-958zM118 1110l191 300h266l-251 -300h-206z" />
    <glyph glyph-name="icircumflex" unicode="&#xee;" horiz-adv-x="538" 
d="M374 0h-210v958h210v-958zM400 1100l-131 163l-131 -163h-223l211 300h286l211 -300h-223z" />
    <glyph glyph-name="idieresis" unicode="&#xef;" horiz-adv-x="538" 
d="M374 0h-210v958h210v-958zM68 1399q31 0 58 -11.5t47 -31.5t31.5 -47t11.5 -58t-11.5 -58t-31.5 -46.5t-47 -30.5t-58 -11t-58 11t-46.5 30.5t-30.5 46.5t-11 58t11 58t30.5 47t46.5 31.5t58 11.5zM468 1399q31 0 58 -11.5t47 -31.5t31.5 -47t11.5 -58t-11.5 -58
t-31.5 -46.5t-47 -30.5t-58 -11t-58 11t-46.5 30.5t-30.5 46.5t-11 58t11 58t30.5 47t46.5 31.5t58 11.5z" />
    <glyph glyph-name="eth" unicode="&#xf0;" horiz-adv-x="1215" 
d="M933 1322l-156 -96q101 -86 167 -181t105 -191t55 -188.5t16 -173.5q0 -110 -39 -204.5t-107.5 -164t-161.5 -109t-202 -39.5q-111 0 -205.5 37.5t-163 103t-107.5 155t-39 193.5q0 106 36.5 196.5t100.5 156.5t151 103.5t187 37.5q84 0 155.5 -31.5t126.5 -91.5
q-35 72 -95 143.5t-156 139.5l-237 -145l-78 127l172 106q-39 20 -81.5 40t-90.5 39l94 168q76 -29 142.5 -62t123.5 -69l208 127zM610 761q-64 0 -119 -21.5t-95 -60.5t-63 -93.5t-23 -120.5q0 -65 23 -119t63 -92.5t95 -60t119 -21.5t119 21.5t95.5 60t63.5 92.5t23 119
q0 66 -23 120.5t-63.5 93.5t-95.5 60.5t-119 21.5z" />
    <glyph glyph-name="ntilde" unicode="&#xf1;" horiz-adv-x="1209" 
d="M666 983q85 0 156.5 -28t123.5 -78.5t80.5 -120.5t28.5 -154v-602h-210v533q0 121 -58.5 186t-164.5 65q-51 0 -96 -16.5t-78.5 -48.5t-53.5 -79.5t-20 -108.5v-531h-210v958h208v-117q29 42 64.5 69.5t74.5 43.5t78.5 22.5t76.5 6.5zM252 1264q51 57 107 84.5t133 27.5
q51 0 90 -10.5t69.5 -23.5t56 -23.5t49.5 -10.5q33 0 63.5 16.5t68.5 48.5l108 -133q-51 -57 -107 -84.5t-133 -27.5q-50 0 -88.5 10.5t-69 23.5t-56.5 23.5t-51 10.5q-33 0 -63.5 -16.5t-68.5 -48.5z" />
    <glyph glyph-name="ograve" unicode="&#xf2;" horiz-adv-x="1221" 
d="M610 983q111 0 205.5 -38.5t163.5 -106t108 -159.5t39 -200t-39 -200t-108 -159.5t-163.5 -106t-205.5 -38.5t-205.5 38.5t-163 106t-107.5 159.5t-39 200t39 200t107.5 159.5t163 106t205.5 38.5zM610 786q-64 0 -119 -22.5t-95 -63t-63 -97t-23 -124.5t23 -124.5
t63 -97t95 -63t119 -22.5t119 22.5t95.5 63t63.5 97t23 124.5t-23 124.5t-63.5 97t-95.5 63t-119 22.5zM291 1410h266l191 -300h-206z" />
    <glyph glyph-name="oacute" unicode="&#xf3;" horiz-adv-x="1221" 
d="M610 983q111 0 205.5 -38.5t163.5 -106t108 -159.5t39 -200t-39 -200t-108 -159.5t-163.5 -106t-205.5 -38.5t-205.5 38.5t-163 106t-107.5 159.5t-39 200t39 200t107.5 159.5t163 106t205.5 38.5zM610 786q-64 0 -119 -22.5t-95 -63t-63 -97t-23 -124.5t23 -124.5
t63 -97t95 -63t119 -22.5t119 22.5t95.5 63t63.5 97t23 124.5t-23 124.5t-63.5 97t-95.5 63t-119 22.5zM459 1110l191 300h266l-251 -300h-206z" />
    <glyph glyph-name="ocircumflex" unicode="&#xf4;" horiz-adv-x="1221" 
d="M610 983q111 0 205.5 -38.5t163.5 -106t108 -159.5t39 -200t-39 -200t-108 -159.5t-163.5 -106t-205.5 -38.5t-205.5 38.5t-163 106t-107.5 159.5t-39 200t39 200t107.5 159.5t163 106t205.5 38.5zM610 786q-64 0 -119 -22.5t-95 -63t-63 -97t-23 -124.5t23 -124.5
t63 -97t95 -63t119 -22.5t119 22.5t95.5 63t63.5 97t23 124.5t-23 124.5t-63.5 97t-95.5 63t-119 22.5zM741 1100l-131 163l-131 -163h-223l211 300h286l211 -300h-223z" />
    <glyph glyph-name="otilde" unicode="&#xf5;" horiz-adv-x="1221" 
d="M610 983q111 0 205.5 -38.5t163.5 -106t108 -159.5t39 -200t-39 -200t-108 -159.5t-163.5 -106t-205.5 -38.5t-205.5 38.5t-163 106t-107.5 159.5t-39 200t39 200t107.5 159.5t163 106t205.5 38.5zM610 786q-64 0 -119 -22.5t-95 -63t-63 -97t-23 -124.5t23 -124.5
t63 -97t95 -63t119 -22.5t119 22.5t95.5 63t63.5 97t23 124.5t-23 124.5t-63.5 97t-95.5 63t-119 22.5zM239 1264q51 57 107 84.5t133 27.5q51 0 90 -10.5t69.5 -23.5t56 -23.5t49.5 -10.5q33 0 63.5 16.5t68.5 48.5l108 -133q-51 -57 -107 -84.5t-133 -27.5
q-50 0 -88.5 10.5t-69 23.5t-56.5 23.5t-51 10.5q-33 0 -63.5 -16.5t-68.5 -48.5z" />
    <glyph glyph-name="odieresis" unicode="&#xf6;" horiz-adv-x="1221" 
d="M610 983q111 0 205.5 -38.5t163.5 -106t108 -159.5t39 -200t-39 -200t-108 -159.5t-163.5 -106t-205.5 -38.5t-205.5 38.5t-163 106t-107.5 159.5t-39 200t39 200t107.5 159.5t163 106t205.5 38.5zM610 786q-64 0 -119 -22.5t-95 -63t-63 -97t-23 -124.5t23 -124.5
t63 -97t95 -63t119 -22.5t119 22.5t95.5 63t63.5 97t23 124.5t-23 124.5t-63.5 97t-95.5 63t-119 22.5zM409 1399q31 0 58 -11.5t47 -31.5t31.5 -47t11.5 -58t-11.5 -58t-31.5 -46.5t-47 -30.5t-58 -11t-58 11t-46.5 30.5t-30.5 46.5t-11 58t11 58t30.5 47t46.5 31.5
t58 11.5zM809 1399q31 0 58 -11.5t47 -31.5t31.5 -47t11.5 -58t-11.5 -58t-31.5 -46.5t-47 -30.5t-58 -11t-58 11t-46.5 30.5t-30.5 46.5t-11 58t11 58t30.5 47t46.5 31.5t58 11.5z" />
    <glyph glyph-name="divide" unicode="&#xf7;" horiz-adv-x="1200" 
d="M1050 438h-900v190h900v-190zM601 1013q29 0 55 -11.5t46 -31t31.5 -46t11.5 -55.5t-11.5 -55t-31.5 -46t-46 -32t-55 -12t-55 12t-46 32t-32 46t-12 55t12 55.5t32 46t46 31t55 11.5zM601 342q29 0 55 -11.5t46 -31t31.5 -46t11.5 -55.5t-11.5 -55t-31.5 -46t-46 -32
t-55 -12t-55 12t-46 32t-32 46t-12 55t12 55.5t32 46t46 31t55 11.5z" />
    <glyph glyph-name="oslash" unicode="&#xf8;" horiz-adv-x="1221" 
d="M610 983q84 0 158 -22t137 -63l103 103l126 -126l-101 -101q45 -62 69 -136t24 -159q0 -108 -39 -200t-108 -159.5t-163.5 -106t-205.5 -38.5q-84 0 -157.5 21.5t-135.5 61.5l-103 -103l-127 125l101 101q-45 63 -69 138t-24 160q0 108 39 200t107.5 159.5t163 106
t205.5 38.5zM610 786q-64 0 -119 -22.5t-95 -63t-63 -97t-23 -124.5q0 -80 31 -145l416 416q-32 17 -69 26.5t-78 9.5zM911 479q0 78 -31 142l-415 -415q66 -34 145 -34q64 0 119 22.5t95.5 63t63.5 97t23 124.5z" />
    <glyph glyph-name="ugrave" unicode="&#xf9;" horiz-adv-x="1196" 
d="M1042 406q0 -114 -38 -196t-100 -134t-142 -76.5t-164 -24.5t-164 24.5t-142.5 76.5t-100 134t-37.5 196v552h210v-533q0 -69 18 -117.5t49.5 -78.5t74.5 -43.5t92 -13.5t92 13.5t74.5 43.5t49.5 78.5t18 117.5v533h210v-552zM279 1410h266l191 -300h-206z" />
    <glyph glyph-name="uacute" unicode="&#xfa;" horiz-adv-x="1196" 
d="M1042 406q0 -114 -38 -196t-100 -134t-142 -76.5t-164 -24.5t-164 24.5t-142.5 76.5t-100 134t-37.5 196v552h210v-533q0 -69 18 -117.5t49.5 -78.5t74.5 -43.5t92 -13.5t92 13.5t74.5 43.5t49.5 78.5t18 117.5v533h210v-552zM447 1110l191 300h266l-251 -300h-206z" />
    <glyph glyph-name="ucircumflex" unicode="&#xfb;" horiz-adv-x="1196" 
d="M1042 406q0 -114 -38 -196t-100 -134t-142 -76.5t-164 -24.5t-164 24.5t-142.5 76.5t-100 134t-37.5 196v552h210v-533q0 -69 18 -117.5t49.5 -78.5t74.5 -43.5t92 -13.5t92 13.5t74.5 43.5t49.5 78.5t18 117.5v533h210v-552zM729 1100l-131 163l-131 -163h-223l211 300
h286l211 -300h-223z" />
    <glyph glyph-name="udieresis" unicode="&#xfc;" horiz-adv-x="1196" 
d="M1042 406q0 -114 -38 -196t-100 -134t-142 -76.5t-164 -24.5t-164 24.5t-142.5 76.5t-100 134t-37.5 196v552h210v-533q0 -69 18 -117.5t49.5 -78.5t74.5 -43.5t92 -13.5t92 13.5t74.5 43.5t49.5 78.5t18 117.5v533h210v-552zM397 1399q31 0 58 -11.5t47 -31.5t31.5 -47
t11.5 -58t-11.5 -58t-31.5 -46.5t-47 -30.5t-58 -11t-58 11t-46.5 30.5t-30.5 46.5t-11 58t11 58t30.5 47t46.5 31.5t58 11.5zM797 1399q31 0 58 -11.5t47 -31.5t31.5 -47t11.5 -58t-11.5 -58t-31.5 -46.5t-47 -30.5t-58 -11t-58 11t-46.5 30.5t-30.5 46.5t-11 58t11 58
t30.5 47t46.5 31.5t58 11.5z" />
    <glyph glyph-name="yacute" unicode="&#xfd;" horiz-adv-x="1098" 
d="M330 -406h-232l343 603l-425 761h235l308 -550l297 550h230zM403 1110l191 300h266l-251 -300h-206z" />
    <glyph glyph-name="thorn" unicode="&#xfe;" horiz-adv-x="1247" 
d="M673 983q100 0 187.5 -37.5t152.5 -104.5t102 -159.5t37 -202.5t-37 -202.5t-102 -159.5t-152.5 -104.5t-187.5 -37.5q-102 0 -175.5 37.5t-123.5 100.5v-513h-210v1840h210v-595q50 63 123.5 100.5t175.5 37.5zM648 786q-65 0 -118 -23.5t-91 -64.5t-59 -97t-21 -122
t21 -122t59 -97t91 -64.5t118 -23.5q67 0 121 24.5t91 66t57 97.5t20 119t-20 119t-57 97.5t-91 66t-121 24.5z" />
    <glyph glyph-name="ydieresis" unicode="&#xff;" horiz-adv-x="1098" 
d="M330 -406h-232l343 603l-425 761h235l308 -550l297 550h230zM353 1399q31 0 58 -11.5t47 -31.5t31.5 -47t11.5 -58t-11.5 -58t-31.5 -46.5t-47 -30.5t-58 -11t-58 11t-46.5 30.5t-30.5 46.5t-11 58t11 58t30.5 47t46.5 31.5t58 11.5zM753 1399q31 0 58 -11.5t47 -31.5
t31.5 -47t11.5 -58t-11.5 -58t-31.5 -46.5t-47 -30.5t-58 -11t-58 11t-46.5 30.5t-30.5 46.5t-11 58t11 58t30.5 47t46.5 31.5t58 11.5z" />
    <glyph glyph-name="dotlessi" unicode="&#x131;" horiz-adv-x="538" 
d="M374 0h-210v958h210v-958z" />
    <glyph glyph-name="IJ" unicode="&#x132;" horiz-adv-x="1755" 
d="M416 0h-226v1400h226v-1400zM1575 495q0 -126 -37 -223t-102.5 -163t-155 -100t-193.5 -34q-92 0 -163 19.5t-125.5 50.5t-93.5 69.5t-67 75.5l151 155q22 -32 51 -60t66 -48.5t81.5 -32.5t98.5 -12q123 0 193 80.5t70 244.5v883h226v-905z" />
    <glyph glyph-name="ij" unicode="&#x133;" horiz-adv-x="1082" 
d="M918 -118q0 -74 -20.5 -130t-58 -94t-89 -57.5t-113.5 -19.5q-37 0 -76.5 7.5t-68.5 21.5l49 182q37 -14 77 -14q37 0 63.5 26t26.5 88v1066h210v-1076zM811 1437q31 0 58 -11.5t47 -31.5t31.5 -47t11.5 -58t-11.5 -58t-31.5 -46.5t-47 -30.5t-58 -11t-58 11t-46.5 30.5
t-30.5 46.5t-11 58t11 58t30.5 47t46.5 31.5t58 11.5zM374 0h-210v958h210v-958zM268 1437q31 0 58 -11.5t47 -31.5t31.5 -47t11.5 -58t-11.5 -58t-31.5 -46.5t-47 -30.5t-58 -11t-58 11t-46.5 30.5t-30.5 46.5t-11 58t11 58t30.5 47t46.5 31.5t58 11.5z" />
    <glyph glyph-name="Lslash" unicode="&#x141;" horiz-adv-x="1343" 
d="M1305 0h-1001v457l-190 -105v241l190 105v702h226v-576l484 269v-241l-484 -269v-369h775v-214z" />
    <glyph glyph-name="lslash" unicode="&#x142;" horiz-adv-x="690" 
d="M450 921l191 129v-218l-191 -129v-703h-210v561l-191 -129v218l191 129v661h210v-519z" />
    <glyph glyph-name="OE" unicode="&#x152;" horiz-adv-x="2254" 
d="M2102 0h-1261q-164 0 -298.5 50t-229.5 141.5t-147 221t-52 287.5t52 287.5t147 221t229.5 141.5t298.5 50h1248v-212h-782v-377h755v-212h-755v-387h795v-212zM351 700q0 -107 30.5 -196t91.5 -153.5t153 -100.5t215 -36h240v972h-240q-123 0 -215 -36.5t-153 -101
t-91.5 -153.5t-30.5 -195z" />
    <glyph glyph-name="oe" unicode="&#x153;" horiz-adv-x="1935" 
d="M1387 983q100 0 183.5 -36.5t143 -103t93 -159t33.5 -204.5q0 -20 -1 -40t-3 -38h-708q10 -65 37 -111t65 -75.5t85 -43.5t98 -14q72 0 144.5 26.5t132.5 74.5l104 -149q-88 -75 -186.5 -105t-207.5 -30q-131 0 -231 52t-163 147q-66 -93 -168 -146t-228 -53
q-111 0 -205.5 38.5t-163 106t-107.5 159.5t-39 200t39 200t107.5 159.5t163 106t205.5 38.5q126 0 228 -53.5t168 -145.5q61 94 158.5 146.5t222.5 52.5zM610 786q-64 0 -119 -22.5t-95 -63t-63 -97t-23 -124.5t23 -124.5t63 -97t95 -63t119 -22.5t119 22.5t95.5 63
t63.5 97t23 124.5t-23 124.5t-63.5 97t-95.5 63t-119 22.5zM1383 797q-56 0 -99.5 -17t-75 -48.5t-51.5 -75t-28 -95.5h497q-17 112 -80 174t-163 62z" />
    <glyph glyph-name="Scaron" unicode="&#x160;" horiz-adv-x="1352" 
d="M1107 1090q-90 57 -188 88.5t-205 31.5q-70 0 -128 -14.5t-99.5 -42t-64.5 -66t-23 -86.5q0 -44 20 -75t57.5 -52.5t91.5 -35.5t122 -24l97 -13q85 -12 166 -37t144.5 -70t102 -113t38.5 -165q0 -107 -45 -189t-122 -138t-178.5 -85t-215.5 -29q-71 0 -147.5 12
t-151 35.5t-142.5 58.5t-122 82l123 180q36 -33 86.5 -61t108.5 -49t120.5 -32.5t123.5 -11.5q69 0 128.5 14t103.5 41t69.5 65.5t25.5 86.5q0 82 -80.5 125t-234.5 64l-109 15q-78 11 -152.5 36t-133 70.5t-94 114t-35.5 166.5q0 105 43.5 186.5t118.5 137t175.5 84.5
t214.5 29q153 0 276.5 -40.5t229.5 -110.5zM599 1815l131 -163l131 163h223l-211 -300h-286l-211 300h223z" />
    <glyph glyph-name="scaron" unicode="&#x161;" horiz-adv-x="1011" 
d="M816 718q-22 13 -54 27.5t-71 26.5t-82.5 20t-88.5 8q-86 0 -133.5 -31.5t-47.5 -82.5q0 -25 12.5 -42t33.5 -28t50 -17.5t62 -11.5l99 -15q157 -23 245 -91.5t88 -191.5q0 -69 -29.5 -126.5t-85 -99t-137 -64.5t-184.5 -23q-37 0 -86 4.5t-104 18t-112 37.5t-109 63
l97 157q26 -20 56.5 -37.5t69 -31t85 -21.5t105.5 -8q108 0 163 31.5t55 85.5q0 41 -40 67.5t-126 38.5l-100 13q-160 22 -242.5 93.5t-82.5 187.5q0 71 27.5 128t79 96.5t124.5 61t165 21.5q113 0 213 -26.5t175 -74.5zM402 1400l131 -163l131 163h223l-211 -300h-286
l-211 300h223z" />
    <glyph glyph-name="Ydieresis" unicode="&#x178;" horiz-adv-x="1328" 
d="M779 568v-568h-226v572l-544 828h270l388 -627l389 627h263zM466 1814q31 0 58 -11.5t47 -31.5t31.5 -47t11.5 -58t-11.5 -58t-31.5 -46.5t-47 -30.5t-58 -11t-58 11t-46.5 30.5t-30.5 46.5t-11 58t11 58t30.5 47t46.5 31.5t58 11.5zM866 1814q31 0 58 -11.5t47 -31.5
t31.5 -47t11.5 -58t-11.5 -58t-31.5 -46.5t-47 -30.5t-58 -11t-58 11t-46.5 30.5t-30.5 46.5t-11 58t11 58t30.5 47t46.5 31.5t58 11.5z" />
    <glyph glyph-name="Zcaron" unicode="&#x17d;" horiz-adv-x="1292" 
d="M1178 1225l-764 -1011h764v-214h-1064v175l764 1011h-762v214h1062v-175zM516 1815l131 -163l131 163h223l-211 -300h-286l-211 300h223z" />
    <glyph glyph-name="zcaron" unicode="&#x17e;" horiz-adv-x="1041" 
d="M916 806l-523 -616h533v-190h-811v152l532 616h-516v190h785v-152zM393 1400l131 -163l131 163h223l-211 -300h-286l-211 300h223z" />
    <glyph glyph-name="longs" unicode="&#x17f;" horiz-adv-x="634" 
d="M477 1465q85 0 149 -20t118 -52l-74 -176q-37 21 -84 36t-95 15q-61 0 -93 -38t-32 -110v-1120h-210v1120q0 72 18.5 135t58 109.5t100 73.5t144.5 27z" />
    <glyph glyph-name="florin" unicode="&#x192;" horiz-adv-x="1400" 
d="M1083 629h-288l-31 -310q-8 -78 -27.5 -141.5t-56 -108.5t-92 -69t-135.5 -24q-78 0 -138.5 17.5t-110.5 45.5l71 169q33 -18 77 -30.5t87 -12.5q32 0 53.5 10.5t35 30t20.5 48t11 65.5l31 310h-236v192h256l27 260q8 78 28 141.5t56 108.5t91.5 69t135.5 24
q78 0 138 -17.5t111 -45.5l-72 -169q-33 18 -76.5 30.5t-87.5 12.5q-32 0 -53.5 -10.5t-35 -30t-20.5 -48t-11 -65.5l-26 -260h268v-192z" />
    <glyph glyph-name="uni0237" unicode="&#x237;" horiz-adv-x="544" 
d="M380 -118q0 -74 -20.5 -130t-58 -94t-89 -57.5t-113.5 -19.5q-37 0 -76.5 7.5t-68.5 21.5l49 182q37 -14 77 -14q37 0 63.5 26t26.5 88v1066h210v-1076z" />
    <glyph glyph-name="uni02BB" unicode="&#x2bb;" horiz-adv-x="505" 
d="M105 895l120 545h180l-55 -545h-245z" />
    <glyph glyph-name="uni02BC" unicode="&#x2bc;" horiz-adv-x="505" 
d="M400 1440l-120 -545h-180l55 545h245z" />
    <glyph glyph-name="uni02BE" unicode="&#x2be;" horiz-adv-x="556" 
d="M133 887q35 0 66.5 14.5t55 40t37.5 59.5t14 73q0 40 -14 74.5t-37.5 60t-55 40t-66.5 14.5v193q78 0 146.5 -29.5t120 -81.5t81 -121.5t29.5 -149.5q0 -79 -29.5 -148t-81 -120.5t-120 -81.5t-146.5 -30v193z" />
    <glyph glyph-name="uni02BF" unicode="&#x2bf;" horiz-adv-x="556" 
d="M423 1263q-35 0 -66.5 -14.5t-55 -40t-37.5 -59.5t-14 -73q0 -40 14 -74.5t37.5 -60t55 -40t66.5 -14.5v-193q-78 0 -146.5 29.5t-120 81.5t-81 121.5t-29.5 149.5q0 79 29.5 148t81 120.5t120 81.5t146.5 30v-193z" />
    <glyph glyph-name="circumflex" unicode="&#x2c6;" horiz-adv-x="1000" 
d="M631 1100l-131 163l-131 -163h-223l211 300h286l211 -300h-223z" />
    <glyph glyph-name="caron" unicode="&#x2c7;" horiz-adv-x="1000" 
d="M369 1400l131 -163l131 163h223l-211 -300h-286l-211 300h223z" />
    <glyph glyph-name="breve" unicode="&#x2d8;" horiz-adv-x="1000" 
d="M299 1435q29 -90 79 -131.5t122 -41.5t122 41.5t79 131.5l168 -51q-44 -149 -139 -224t-230 -75t-230 75t-139 224z" />
    <glyph glyph-name="dotaccent" unicode="&#x2d9;" horiz-adv-x="622" 
d="M310 1437q31 0 58 -11.5t47 -31.5t31.5 -47t11.5 -58t-11.5 -58t-31.5 -46.5t-47 -30.5t-58 -11t-58 11t-46.5 30.5t-30.5 46.5t-11 58t11 58t30.5 47t46.5 31.5t58 11.5z" />
    <glyph glyph-name="ring" unicode="&#x2da;" horiz-adv-x="1000" 
d="M500 1083q-51 0 -96 19t-79 52.5t-53.5 78t-19.5 95.5q0 50 19.5 94.5t53.5 77.5t79 52.5t96 19.5t96.5 -19.5t79.5 -52.5t53.5 -77.5t19.5 -94.5q0 -51 -19.5 -95.5t-53.5 -78t-79.5 -52.5t-96.5 -19zM500 1215q22 0 42 8.5t35 24t24 36t9 44.5q0 23 -9 43.5t-24 35.5
t-35 23.5t-42 8.5t-42 -8.5t-35 -23.5t-23.5 -35.5t-8.5 -43.5q0 -24 8.5 -44.5t23.5 -36t35 -24t42 -8.5z" />
    <glyph glyph-name="ogonek" unicode="&#x2db;" horiz-adv-x="1108" 
d="M929 -326q-51 -46 -115 -69.5t-135 -23.5q-65 0 -117 17t-89 48.5t-57 75.5t-20 98t21 99t61.5 82.5t100 69t137.5 59.5l93 -118q-61 -21 -102.5 -42t-66.5 -42t-35.5 -42.5t-10.5 -44.5q0 -35 25.5 -57.5t72.5 -22.5q37 0 67.5 13t58.5 36z" />
    <glyph glyph-name="tilde" unicode="&#x2dc;" horiz-adv-x="1000" 
d="M128 1264q51 57 107 84.5t133 27.5q51 0 90 -10.5t69.5 -23.5t56 -23.5t49.5 -10.5q33 0 63.5 16.5t68.5 48.5l108 -133q-51 -57 -107 -84.5t-133 -27.5q-50 0 -88.5 10.5t-69 23.5t-56.5 23.5t-51 10.5q-33 0 -63.5 -16.5t-68.5 -48.5z" />
    <glyph glyph-name="hungarumlaut" unicode="&#x2dd;" horiz-adv-x="1000" 
d="M472 1110l191 300h266l-251 -300h-206zM72 1110l191 300h266l-251 -300h-206z" />
    <glyph glyph-name="gravecomb" unicode="&#x300;" 
d="M-930 1410h266l191 -300h-206z" />
    <glyph glyph-name="acutecomb" unicode="&#x301;" 
d="M-762 1110l191 300h266l-251 -300h-206z" />
    <glyph glyph-name="uni0302" unicode="&#x302;" 
d="M-480 1100l-131 163l-131 -163h-223l211 300h286l211 -300h-223z" />
    <glyph glyph-name="tildecomb" unicode="&#x303;" 
d="M-982 1264q51 57 107 84.5t133 27.5q51 0 90 -10.5t69.5 -23.5t56 -23.5t49.5 -10.5q33 0 63.5 16.5t68.5 48.5l108 -133q-51 -57 -107 -84.5t-133 -27.5q-50 0 -88.5 10.5t-69 23.5t-56.5 23.5t-51 10.5q-33 0 -63.5 -16.5t-68.5 -48.5z" />
    <glyph glyph-name="uni0304" unicode="&#x304;" 
d="M-921 1335h620v-170h-620v170z" />
    <glyph glyph-name="uni0306" unicode="&#x306;" 
d="M-812 1435q29 -90 79 -131.5t122 -41.5t122 41.5t79 131.5l168 -51q-44 -149 -139 -224t-230 -75t-230 75t-139 224z" />
    <glyph glyph-name="uni0307" unicode="&#x307;" 
d="M-612 1437q31 0 58 -11.5t47 -31.5t31.5 -47t11.5 -58t-11.5 -58t-31.5 -46.5t-47 -30.5t-58 -11t-58 11t-46.5 30.5t-30.5 46.5t-11 58t11 58t30.5 47t46.5 31.5t58 11.5z" />
    <glyph glyph-name="uni0308" unicode="&#x308;" 
d="M-812 1399q31 0 58 -11.5t47 -31.5t31.5 -47t11.5 -58t-11.5 -58t-31.5 -46.5t-47 -30.5t-58 -11t-58 11t-46.5 30.5t-30.5 46.5t-11 58t11 58t30.5 47t46.5 31.5t58 11.5zM-412 1399q31 0 58 -11.5t47 -31.5t31.5 -47t11.5 -58t-11.5 -58t-31.5 -46.5t-47 -30.5t-58 -11
t-58 11t-46.5 30.5t-30.5 46.5t-11 58t11 58t30.5 47t46.5 31.5t58 11.5z" />
    <glyph glyph-name="uni030A" unicode="&#x30a;" 
d="M-612 1083q-51 0 -96 19t-79 52.5t-53.5 78t-19.5 95.5q0 50 19.5 94.5t53.5 77.5t79 52.5t96 19.5t96.5 -19.5t79.5 -52.5t53.5 -77.5t19.5 -94.5q0 -51 -19.5 -95.5t-53.5 -78t-79.5 -52.5t-96.5 -19zM-612 1215q22 0 42 8.5t35 24t24 36t9 44.5q0 23 -9 43.5t-24 35.5
t-35 23.5t-42 8.5t-42 -8.5t-35 -23.5t-23.5 -35.5t-8.5 -43.5q0 -24 8.5 -44.5t23.5 -36t35 -24t42 -8.5z" />
    <glyph glyph-name="uni030B" unicode="&#x30b;" 
d="M-553 1110l200 300h245l-235 -300h-210zM-898 1110l178 300h237l-202 -300h-213z" />
    <glyph glyph-name="uni030C" unicode="&#x30c;" 
d="M-742 1400l131 -163l131 163h223l-211 -300h-286l-211 300h223z" />
    <glyph glyph-name="uni0312" unicode="&#x312;" 
d="M-735 1110l83 368h185l-37 -368h-231z" />
    <glyph glyph-name="dotbelowcomb" unicode="&#x323;" 
d="M-611 -122q31 0 58 -11.5t47 -31.5t31.5 -47t11.5 -58t-11.5 -58t-31.5 -46.5t-47 -30.5t-58 -11t-58 11t-46.5 30.5t-30.5 46.5t-11 58t11 58t30.5 47t46.5 31.5t58 11.5z" />
    <glyph glyph-name="uni0326" unicode="&#x326;" 
d="M-488 -87l-83 -368h-185l37 368h231z" />
    <glyph glyph-name="uni0327" unicode="&#x327;" 
d="M-552 -321h-219l111 328h209z" />
    <glyph glyph-name="uni0328" unicode="&#x328;" 
d="M-340 -326q-51 -46 -115 -69.5t-135 -23.5q-66 0 -119.5 17t-91.5 46.5t-58.5 70t-20.5 87.5q0 55 22.5 98.5t67.5 79t112 65.5t156 57l19 -61q-48 -25 -81 -49t-53.5 -49t-29 -50t-8.5 -52q0 -35 25.5 -57.5t72.5 -22.5q37 0 67.5 13t58.5 36z" />
    <glyph glyph-name="uni032E" unicode="&#x32e;" 
d="M-811 -82q29 -90 79 -131.5t122 -41.5t122 41.5t79 131.5l168 -51q-44 -149 -139 -224t-230 -75t-230 75t-139 224z" />
    <glyph glyph-name="uni0331" unicode="&#x331;" 
d="M-920 -180h620v-170h-620v170z" />
    <glyph glyph-name="uni0335" unicode="&#x335;" 
d="M-245 438h-730v190h730v-190z" />
    <glyph glyph-name="uni0336" unicode="&#x336;" 
d="M140 438h-1500v190h1500v-190z" />
    <glyph glyph-name="uni0394" unicode="&#x394;" horiz-adv-x="1399" 
d="M1323 175v-175h-1247v175l483 1225h282zM330 214h739l-369 960z" />
    <glyph glyph-name="uni03A9" unicode="&#x3a9;" horiz-adv-x="1722" 
d="M345 214q-103 91 -160 215t-57 271q0 157 54 290t151 230t232 151.5t296 54.5t296 -54.5t232 -151.5t151 -230t54 -290q0 -147 -57 -271t-160 -215h269v-214h-626v184q75 24 137.5 70.5t106.5 111.5t68.5 147t24.5 177q0 115 -37.5 211t-103.5 164t-157 106t-198 38
t-198 -38t-157 -106t-103.5 -164t-37.5 -211q0 -95 24.5 -177t68.5 -147t106.5 -111.5t137.5 -70.5v-184h-626v214h269z" />
    <glyph glyph-name="uni03BC" unicode="&#x3bc;" horiz-adv-x="1209" 
d="M154 -400v1358h210v-533q0 -121 58.5 -186t164.5 -65q51 0 96 16.5t78.5 48.5t53.5 79t20 109v531h210v-958h-208v117q-29 -42 -64.5 -69.5t-74.5 -43.5t-78.5 -22.5t-76.5 -6.5q-51 0 -96 10t-85 28v-413h-208z" />
    <glyph glyph-name="pi" unicode="&#x3c0;" horiz-adv-x="1208" 
d="M1054 0h-210v768h-470v-768h-210v958h890v-958z" />
    <glyph glyph-name="uni1E9E" unicode="&#x1e9e;" horiz-adv-x="1462" 
d="M661 768l329 372q-44 35 -108.5 51.5t-144.5 16.5q-83 0 -146 -22.5t-106 -62.5t-65 -95.5t-22 -121.5v-906h-227v919q0 99 33 190t103 161.5t177.5 112.5t256.5 42q99 0 181 -16.5t150 -49t124.5 -79.5t103.5 -107l-348 -382q84 -14 156.5 -47t126 -83t83.5 -117
t30 -150q0 -97 -42 -174.5t-114 -131.5t-167.5 -83t-202.5 -29q-92 0 -155 6.5t-119 20.5l53 215q43 -12 89.5 -18.5t96.5 -6.5q155 0 238.5 51.5t83.5 149.5q0 102 -83.5 154t-238.5 52h-126v168z" />
    <glyph glyph-name="uni2007" unicode="&#x2007;" horiz-adv-x="1423" 
 />
    <glyph glyph-name="uni2008" unicode="&#x2008;" horiz-adv-x="529" 
 />
    <glyph glyph-name="uni2009" unicode="&#x2009;" horiz-adv-x="180" 
 />
    <glyph glyph-name="uni200B" unicode="&#x200b;" horiz-adv-x="0" 
 />
    <glyph glyph-name="uni2010" unicode="&#x2010;" horiz-adv-x="846" 
d="M713 438h-580v190h580v-190z" />
    <glyph glyph-name="uni2011" unicode="&#x2011;" horiz-adv-x="846" 
d="M713 438h-580v190h580v-190z" />
    <glyph glyph-name="figuredash" unicode="&#x2012;" horiz-adv-x="1200" 
d="M1075 438h-950v190h950v-190z" />
    <glyph glyph-name="endash" unicode="&#x2013;" horiz-adv-x="1178" 
d="M1064 438h-950v190h950v-190z" />
    <glyph glyph-name="emdash" unicode="&#x2014;" horiz-adv-x="1614" 
d="M1557 438h-1500v190h1500v-190z" />
    <glyph glyph-name="quoteleft" unicode="&#x2018;" horiz-adv-x="505" 
d="M105 895l120 545h180l-55 -545h-245z" />
    <glyph glyph-name="quoteright" unicode="&#x2019;" horiz-adv-x="505" 
d="M400 1440l-120 -545h-180l55 545h245z" />
    <glyph glyph-name="quotesinglbase" unicode="&#x201a;" horiz-adv-x="505" 
d="M400 271l-120 -545h-180l55 545h245z" />
    <glyph glyph-name="quotedblleft" unicode="&#x201c;" horiz-adv-x="895" 
d="M105 895l120 545h180l-55 -545h-245zM495 895l120 545h180l-55 -545h-245z" />
    <glyph glyph-name="quotedblright" unicode="&#x201d;" horiz-adv-x="895" 
d="M790 1440l-120 -545h-180l55 545h245zM400 1440l-120 -545h-180l55 545h245z" />
    <glyph glyph-name="quotedblbase" unicode="&#x201e;" horiz-adv-x="895" 
d="M790 271l-120 -545h-180l55 545h245zM400 271l-120 -545h-180l55 545h245z" />
    <glyph glyph-name="dagger" unicode="&#x2020;" horiz-adv-x="789" 
d="M308 627v431h-213v169h213v213h173v-213h213v-169h-213v-431h-173z" />
    <glyph glyph-name="daggerdbl" unicode="&#x2021;" horiz-adv-x="789" 
d="M481 1267h213v-169h-213v-129h213v-169h-213v-173h-173v173h-213v169h213v129h-213v169h213v173h173v-173z" />
    <glyph glyph-name="bullet" unicode="&#x2022;" horiz-adv-x="846" 
d="M423 821q59 0 111.5 -22.5t91.5 -61.5t62 -91.5t23 -112.5t-23 -112.5t-62 -91.5t-91.5 -61.5t-111.5 -22.5q-60 0 -112.5 22.5t-91.5 61.5t-61.5 91.5t-22.5 112.5t22.5 112.5t61.5 91.5t91.5 61.5t112.5 22.5z" />
    <glyph glyph-name="uni2023" unicode="&#x2023;" horiz-adv-x="1055" 
d="M224 119v830l717 -415z" />
    <glyph glyph-name="ellipsis" unicode="&#x2026;" horiz-adv-x="1629" 
d="M265 325q35 0 66.5 -14t55.5 -38t38 -55.5t14 -66.5t-14 -67t-38 -56t-55.5 -38.5t-66.5 -14.5t-66.5 14.5t-55.5 38.5t-38.5 56t-14.5 67t14.5 66.5t38.5 55.5t55.5 38t66.5 14zM815 325q35 0 66.5 -14t55.5 -38t38 -55.5t14 -66.5t-14 -67t-38 -56t-55.5 -38.5
t-66.5 -14.5t-66.5 14.5t-55.5 38.5t-38.5 56t-14.5 67t14.5 66.5t38.5 55.5t55.5 38t66.5 14zM1365 325q35 0 66.5 -14t55.5 -38t38 -55.5t14 -66.5t-14 -67t-38 -56t-55.5 -38.5t-66.5 -14.5t-66.5 14.5t-55.5 38.5t-38.5 56t-14.5 67t14.5 66.5t38.5 55.5t55.5 38
t66.5 14z" />
    <glyph glyph-name="perthousand" unicode="&#x2030;" horiz-adv-x="2834" 
d="M477 1425q84 0 155 -29t123 -79.5t81.5 -119.5t29.5 -150t-29.5 -150.5t-81.5 -120.5t-123 -79.5t-155 -28.5q-83 0 -153.5 28.5t-122.5 79.5t-81 120.5t-29 150.5t29 150t81 119.5t122.5 79.5t153.5 29zM477 1240q-41 0 -75.5 -14t-59.5 -39.5t-39.5 -61t-14.5 -78.5
t14.5 -79t39.5 -61.5t59.5 -39.5t75.5 -14q42 0 77 14t60.5 39.5t40 61.5t14.5 79t-14.5 78.5t-40 61t-60.5 39.5t-77 14zM659 0h-219l883 1400h219zM1503 732q84 0 155 -29.5t123 -80.5t81.5 -120t29.5 -148q0 -81 -29.5 -150.5t-81.5 -120.5t-123 -79.5t-155 -28.5
q-83 0 -153.5 28.5t-122.5 79.5t-81 120.5t-29 150.5t29 150t81 119.5t122.5 79.5t153.5 29zM1503 547q-41 0 -75.5 -14t-59.5 -39.5t-39.5 -61t-14.5 -78.5t14.5 -79t39.5 -61.5t59.5 -39.5t75.5 -14q42 0 77 14t60.5 39.5t40 61.5t14.5 79t-14.5 78.5t-40 61t-60.5 39.5
t-77 14zM2354 732q84 0 155 -29t123 -79.5t81.5 -119.5t29.5 -150t-29.5 -150.5t-81.5 -120.5t-123 -79.5t-155 -28.5q-83 0 -153.5 28.5t-122.5 79.5t-81 120.5t-29 150.5t29 150t81 119.5t122.5 79.5t153.5 29zM2354 547q-41 0 -75.5 -14t-59.5 -39.5t-39.5 -61
t-14.5 -78.5t14.5 -79t39.5 -61.5t59.5 -39.5t75.5 -14q42 0 77 14t60.5 39.5t40 61.5t14.5 79t-14.5 78.5t-40 61t-60.5 39.5t-77 14z" />
    <glyph glyph-name="minute" unicode="&#x2032;" horiz-adv-x="545" 
d="M440 1400l-140 -659h-200l140 659h200z" />
    <glyph glyph-name="second" unicode="&#x2033;" horiz-adv-x="885" 
d="M780 1400l-140 -659h-200l140 659h200zM440 1400l-140 -659h-200l140 659h200z" />
    <glyph glyph-name="uni2034" unicode="&#x2034;" horiz-adv-x="1185" 
d="M760 1400l-140 -659h-200l140 659h200zM1080 1400l-140 -659h-200l140 659h200zM440 1400l-140 -659h-200l140 659h200z" />
    <glyph glyph-name="guilsinglleft" unicode="&#x2039;" horiz-adv-x="637" 
d="M519 154h-225l-189 379l189 379h225l-189 -379z" />
    <glyph glyph-name="guilsinglright" unicode="&#x203a;" horiz-adv-x="637" 
d="M118 912h225l189 -379l-189 -379h-225l189 379z" />
    <glyph glyph-name="fraction" unicode="&#x2044;" horiz-adv-x="462" 
d="M-106 0h-209l883 1400h209z" />
    <glyph glyph-name="uni2070" unicode="&#x2070;" horiz-adv-x="909" 
d="M454 1414q75 0 140.5 -28.5t114.5 -82.5t77 -132t28 -177t-28 -177t-77 -132t-114.5 -82.5t-140.5 -28.5t-140 28.5t-114 82.5t-77 132t-28 177t28 177t77 132t114 82.5t140 28.5zM454 1249q-38 0 -70.5 -16.5t-56.5 -48.5t-38 -79.5t-14 -110.5t14 -110.5t38 -79.5
t56.5 -48.5t70.5 -16.5t71 16.5t57 48.5t38 79.5t14 110.5t-14 110.5t-38 79.5t-57 48.5t-71 16.5z" />
    <glyph glyph-name="uni2071" unicode="&#x2071;" horiz-adv-x="396" 
d="M284 588h-172v676h172v-676zM197 1602q24 0 45 -8.5t36 -24t24 -36t9 -44.5t-9 -44.5t-24 -35.5t-36 -23.5t-45 -8.5t-44.5 8.5t-35.5 23.5t-23.5 35.5t-8.5 44.5t8.5 44.5t23.5 36t35.5 24t44.5 8.5z" />
    <glyph glyph-name="uni2074" unicode="&#x2074;" horiz-adv-x="724" 
d="M576 889h110v-158h-110v-143h-173v143h-365v124l281 544h191l-268 -510h161v218h173v-218z" />
    <glyph glyph-name="uni2075" unicode="&#x2075;" horiz-adv-x="749" 
d="M616 1241h-330l-3 -145h79q74 0 130.5 -18.5t94.5 -51t57.5 -77.5t19.5 -97q0 -66 -23.5 -117.5t-65 -87.5t-97.5 -55t-121 -19q-94 0 -169 31.5t-126 85.5l102 115q34 -30 85.5 -51.5t106.5 -21.5q65 0 97 30.5t32 76.5q0 21 -8 39.5t-26.5 33t-49 22.5t-75.5 8h-200
l10 458h480v-159z" />
    <glyph glyph-name="uni2076" unicode="&#x2076;" horiz-adv-x="749" 
d="M368 1122q7 1 14 1h15q66 0 119.5 -21t91.5 -57.5t58.5 -85.5t20.5 -106q0 -60 -24 -111.5t-66 -88.5t-100 -58t-125 -21t-124.5 20.5t-100 57.5t-66.5 87t-24 110q0 57 21 110.5t59 110.5l225 330h208zM372 977q-29 0 -53.5 -9.5t-42.5 -26t-28.5 -39.5t-10.5 -50
q0 -28 10.5 -51t28.5 -39.5t42.5 -26t53.5 -9.5t53.5 9.5t42.5 26t28.5 39.5t10.5 51q0 27 -10.5 50t-28.5 39.5t-42.5 26t-53.5 9.5z" />
    <glyph glyph-name="uni2077" unicode="&#x2077;" horiz-adv-x="694" 
d="M646 1265l-335 -677h-205l336 651h-385v161h589v-135z" />
    <glyph glyph-name="uni2078" unicode="&#x2078;" horiz-adv-x="814" 
d="M407 1414q63 0 119 -16t97.5 -46t65.5 -73t24 -98q0 -35 -9.5 -63.5t-26.5 -51t-40 -39.5t-50 -29q30 -12 57 -29t46.5 -40.5t31 -53t11.5 -66.5q0 -56 -26 -99.5t-70 -73.5t-103.5 -46t-126.5 -16q-68 0 -127 16t-103.5 46t-70 73.5t-25.5 99.5q0 37 11.5 66.5t31 53
t46 40.5t56.5 29q-53 24 -89 68.5t-36 114.5q0 55 24 98t65.5 73t97.5 46t119 16zM407 929q-29 0 -54 -6.5t-44 -19.5t-30 -32t-11 -44q0 -26 11 -46t30 -33.5t44 -20t54 -6.5q28 0 53.5 6.5t44.5 20t30 33.5t11 46q0 25 -11 44t-30 32t-44.5 19.5t-53.5 6.5zM407 1264
q-25 0 -47.5 -6.5t-39 -19t-26 -31t-9.5 -42.5t9.5 -42t26 -30t39 -18t47.5 -6t47.5 6t39 18t26 30t9.5 42t-9.5 42.5t-26 31t-39 19t-47.5 6.5z" />
    <glyph glyph-name="uni2079" unicode="&#x2079;" horiz-adv-x="749" 
d="M380 866q-7 -1 -14 -1h-14q-66 0 -119.5 21t-91.5 57.5t-58.5 85.5t-20.5 106q0 60 24 111.5t66 88.5t99.5 58t125.5 21q67 0 124.5 -20.5t100 -57.5t66.5 -87t24 -110q0 -57 -21 -110.5t-59 -110.5l-225 -330h-208zM377 1011q29 0 53.5 9.5t42.5 26t28 39.5t10 50
q0 28 -10 51t-28 39.5t-42.5 26t-53.5 9.5t-53.5 -9.5t-42.5 -26t-28.5 -39.5t-10.5 -51q0 -27 10.5 -50t28.5 -39.5t42.5 -26t53.5 -9.5z" />
    <glyph glyph-name="uni207F" unicode="&#x207f;" horiz-adv-x="852" 
d="M481 1282q58 0 107 -19.5t84 -54.5t55 -83.5t20 -107.5v-429h-173v373q0 77 -36.5 117.5t-102.5 40.5q-31 0 -58.5 -10t-48 -30t-32.5 -50t-12 -69v-372h-173v676h169v-80q38 56 91 77t110 21z" />
    <glyph glyph-name="uni2080" unicode="&#x2080;" horiz-adv-x="909" 
d="M454 441q75 0 140.5 -28.5t114.5 -82.5t77 -132t28 -177t-28 -177t-77 -132t-114.5 -82.5t-140.5 -28.5t-140 28.5t-114 82.5t-77 132t-28 177t28 177t77 132t114 82.5t140 28.5zM454 276q-38 0 -70.5 -16.5t-56.5 -48.5t-38 -79.5t-14 -110.5t14 -110.5t38 -79.5
t56.5 -48.5t70.5 -16.5t71 16.5t57 48.5t38 79.5t14 110.5t-14 110.5t-38 79.5t-57 48.5t-71 16.5z" />
    <glyph glyph-name="uni2081" unicode="&#x2081;" horiz-adv-x="565" 
d="M413 -385h-173v585l-192 -74v171l365 143v-825z" />
    <glyph glyph-name="uni2082" unicode="&#x2082;" horiz-adv-x="721" 
d="M62 300q18 22 44 47t61 46t81 34.5t104 13.5q65 0 117.5 -19t89 -53.5t56.5 -82.5t20 -107q0 -37 -8.5 -68.5t-24.5 -61t-39 -57t-51 -55.5l-164 -161h307v-161h-554v135l290 285q31 31 48 63t17 67q0 50 -33 80.5t-86 30.5q-28 0 -51 -7t-42.5 -18.5t-36.5 -26.5
t-33 -32z" />
    <glyph glyph-name="uni2083" unicode="&#x2083;" horiz-adv-x="730" 
d="M333 441q66 0 121 -16.5t94 -47t61 -73.5t22 -96q0 -65 -32.5 -111.5t-89.5 -72.5q65 -26 102.5 -73t37.5 -112q0 -60 -26 -105t-69.5 -74.5t-99 -44t-115.5 -14.5q-94 0 -168.5 30.5t-122.5 87.5l100 114q35 -37 82.5 -57t100.5 -20q29 0 54 6t44 18t29.5 30t10.5 43
q0 24 -12.5 41.5t-33.5 29.5t-49 18t-59 6h-95v153h96q57 0 96.5 23.5t39.5 69.5q0 45 -36 68.5t-91 23.5q-58 0 -100 -24t-68 -56l-104 111q44 54 112 89t168 35z" />
    <glyph glyph-name="uni2084" unicode="&#x2084;" horiz-adv-x="724" 
d="M576 -84h110v-158h-110v-143h-173v143h-365v124l281 544h191l-268 -510h161v218h173v-218z" />
    <glyph glyph-name="uni2085" unicode="&#x2085;" horiz-adv-x="749" 
d="M616 268h-330l-3 -145h79q74 0 130.5 -18.5t94.5 -51t57.5 -77.5t19.5 -97q0 -66 -23.5 -117.5t-65 -87.5t-97.5 -55t-121 -19q-94 0 -169 31.5t-126 85.5l102 115q34 -30 85.5 -51.5t106.5 -21.5q65 0 97 30.5t32 76.5q0 21 -8 39.5t-26.5 33t-49 22.5t-75.5 8h-200
l10 458h480v-159z" />
    <glyph glyph-name="uni2086" unicode="&#x2086;" horiz-adv-x="749" 
d="M368 149q7 1 14 1h15q66 0 119.5 -21t91.5 -57.5t58.5 -85.5t20.5 -106q0 -60 -24 -111.5t-66 -88.5t-100 -58t-125 -21t-124.5 20.5t-100 57.5t-66.5 87t-24 110q0 57 21 110.5t59 110.5l225 330h208zM372 4q-29 0 -53.5 -9.5t-42.5 -26t-28.5 -39.5t-10.5 -50
q0 -28 10.5 -51t28.5 -39.5t42.5 -26t53.5 -9.5t53.5 9.5t42.5 26t28.5 39.5t10.5 51q0 27 -10.5 50t-28.5 39.5t-42.5 26t-53.5 9.5z" />
    <glyph glyph-name="uni2087" unicode="&#x2087;" horiz-adv-x="694" 
d="M646 292l-335 -677h-205l336 651h-385v161h589v-135z" />
    <glyph glyph-name="uni2088" unicode="&#x2088;" horiz-adv-x="814" 
d="M407 441q63 0 119 -16t97.5 -46t65.5 -73t24 -98q0 -35 -9.5 -63.5t-26.5 -51t-40 -39.5t-50 -29q30 -12 57 -29t46.5 -40.5t31 -53t11.5 -66.5q0 -56 -26 -99.5t-70 -73.5t-103.5 -46t-126.5 -16q-68 0 -127 16t-103.5 46t-70 73.5t-25.5 99.5q0 37 11.5 66.5t31 53
t46 40.5t56.5 29q-53 24 -89 68.5t-36 114.5q0 55 24 98t65.5 73t97.5 46t119 16zM407 -44q-29 0 -54 -6.5t-44 -19.5t-30 -32t-11 -44q0 -26 11 -46t30 -33.5t44 -20t54 -6.5q28 0 53.5 6.5t44.5 20t30 33.5t11 46q0 25 -11 44t-30 32t-44.5 19.5t-53.5 6.5zM407 291
q-25 0 -47.5 -6.5t-39 -19t-26 -31t-9.5 -42.5t9.5 -42t26 -30t39 -18t47.5 -6t47.5 6t39 18t26 30t9.5 42t-9.5 42.5t-26 31t-39 19t-47.5 6.5z" />
    <glyph glyph-name="uni2089" unicode="&#x2089;" horiz-adv-x="749" 
d="M380 -107q-7 -1 -14 -1h-14q-66 0 -119.5 21t-91.5 57.5t-58.5 85.5t-20.5 106q0 60 24 111.5t66 88.5t99.5 58t125.5 21q67 0 124.5 -20.5t100 -57.5t66.5 -87t24 -110q0 -57 -21 -110.5t-59 -110.5l-225 -330h-208zM377 38q29 0 53.5 9.5t42.5 26t28 39.5t10 50
q0 28 -10 51t-28 39.5t-42.5 26t-53.5 9.5t-53.5 -9.5t-42.5 -26t-28.5 -39.5t-10.5 -51q0 -27 10.5 -50t28.5 -39.5t42.5 -26t53.5 -9.5z" />
    <glyph glyph-name="Euro" unicode="&#x20ac;" horiz-adv-x="1400" 
d="M1041 449h-554q47 -129 141.5 -200.5t227.5 -71.5q55 0 102.5 13t88 35.5t75 53.5t64.5 68l138 -146q-86 -105 -200.5 -165t-267.5 -60q-114 0 -211 33t-173.5 94.5t-131.5 149t-84 196.5h-183v173h155q-3 37 -3 78q0 39 3 78h-155v173h183q29 109 84 196.5t131.5 149
t173.5 94.5t211 33q153 0 270 -58.5t203 -159.5l-145 -153q-29 37 -63.5 68t-75 53.5t-88 35.5t-102.5 13q-134 0 -228 -72t-140 -200h554v-173h-591q-3 -38 -3 -78q0 -41 3 -78h591v-173z" />
    <glyph glyph-name="uni20BA" unicode="&#x20ba;" horiz-adv-x="1400" 
d="M1009 646l-465 -210v-228h190q60 0 112.5 14t99 45t88 80.5t79.5 119.5l186 -104q-55 -98 -116 -167t-132 -112.5t-153.5 -63.5t-180.5 -20h-390v338l-185 -83v185l185 83v151l-185 -83v185l185 83v541h217v-443l465 211v-186l-465 -210v-151l465 210v-185z" />
    <glyph glyph-name="uni2100" unicode="&#x2100;" horiz-adv-x="2000" 
d="M521 1425q72 0 130 -19t98 -56.5t61.5 -92t21.5 -126.5v-400h-169v70q-36 -38 -88.5 -63t-121.5 -25q-56 0 -100.5 16t-75 45.5t-46.5 69.5t-16 88t19.5 86t55.5 64.5t87.5 41t115.5 14.5h165q-6 65 -44 99.5t-113 34.5q-57 0 -103.5 -19.5t-81.5 -45.5l-68 133
q115 85 273 85zM493 855q46 0 90 22t78 61v80h-143q-34 0 -57.5 -7t-37.5 -18.5t-20.5 -26.5t-6.5 -30q0 -30 23 -55.5t74 -25.5zM703 0h-209l883 1400h209zM1520 688q83 0 151 -31t115 -91l-122 -107q-32 33 -67.5 50.5t-80.5 17.5q-38 0 -70.5 -14t-56.5 -39.5
t-37.5 -61.5t-13.5 -80t13.5 -79.5t37.5 -61t56 -39.5t70 -14q45 0 84 19t68 50l119 -109q-48 -59 -115.5 -90.5t-150.5 -31.5q-81 0 -147 27t-113 74.5t-73 112.5t-26 142t26 142t73 112.5t113 74.5t147 27z" />
    <glyph glyph-name="uni2101" unicode="&#x2101;" horiz-adv-x="2000" 
d="M529 1425q72 0 130 -19t98 -56.5t61.5 -92t21.5 -126.5v-400h-169v70q-36 -38 -88.5 -63t-121.5 -25q-56 0 -100.5 16t-75 45.5t-46.5 69.5t-16 88t19.5 86t55.5 64.5t87.5 41t115.5 14.5h165q-6 65 -44 99.5t-113 34.5q-57 0 -103.5 -19.5t-81.5 -45.5l-68 133
q115 85 273 85zM501 855q46 0 90 22t78 61v80h-143q-34 0 -57.5 -7t-37.5 -18.5t-20.5 -26.5t-6.5 -30q0 -30 23 -55.5t74 -25.5zM711 0h-209l883 1400h209zM1690 486q-19 10 -44 20t-53 18t-58 13t-59 5q-54 0 -82 -18.5t-28 -48.5q0 -15 8.5 -25.5t23.5 -17t35 -11
t43 -7.5l63 -9q110 -17 170 -66t60 -136q0 -51 -21 -93t-60.5 -72t-97.5 -46t-131 -16q-32 0 -70 3.5t-77 12.5t-78 25t-73 40l71 131q42 -29 96 -48t133 -19q66 0 99 18.5t33 50.5q0 26 -27 41.5t-87 23.5l-59 8q-233 33 -233 203q0 52 19.5 93t56.5 69.5t90 43.5t119 15
q81 0 148.5 -17t131.5 -50z" />
    <glyph glyph-name="uni2105" unicode="&#x2105;" horiz-adv-x="2000" 
d="M531 1425q83 0 151 -31t115 -91l-122 -107q-32 33 -67.5 50.5t-80.5 17.5q-38 0 -70.5 -14t-56.5 -39.5t-37.5 -61.5t-13.5 -80t13.5 -79.5t37.5 -61t56 -39.5t70 -14q45 0 84 19t68 50l119 -109q-48 -59 -115.5 -90.5t-150.5 -31.5q-81 0 -147 27t-113 74.5t-73 112.5
t-26 142t26 142t73 112.5t113 74.5t147 27zM650 0h-209l883 1400h209zM1464 688q79 0 145.5 -27t115.5 -74.5t76.5 -113t27.5 -141.5t-27.5 -141t-76.5 -113t-115.5 -75t-145.5 -27t-146 27t-115.5 75t-76 113t-27.5 141t27.5 141.5t76 113t115.5 74.5t146 27zM1464 527
q-41 0 -75 -14.5t-59.5 -40t-39.5 -61.5t-14 -79t14 -78.5t39.5 -61t59.5 -40t75 -14.5q40 0 74.5 14.5t60 40t40 61t14.5 78.5t-14.5 79t-40 61.5t-60 40t-74.5 14.5z" />
    <glyph glyph-name="uni2106" unicode="&#x2106;" horiz-adv-x="2000" 
d="M527 1425q83 0 151 -31t115 -91l-122 -107q-32 33 -67.5 50.5t-80.5 17.5q-38 0 -70.5 -14t-56.5 -39.5t-37.5 -61.5t-13.5 -80t13.5 -79.5t37.5 -61t56 -39.5t70 -14q45 0 84 19t68 50l119 -109q-48 -59 -115.5 -90.5t-150.5 -31.5q-81 0 -147 27t-113 74.5t-73 112.5
t-26 142t26 142t73 112.5t113 74.5t147 27zM646 0h-209l883 1400h209zM1833 282q0 -80 -26.5 -138t-70.5 -95.5t-101.5 -55t-119.5 -17.5t-119.5 17.5t-101.5 55t-70.5 95.5t-26.5 138v388h173v-373q0 -43 11 -73t30.5 -49t46 -28t57.5 -9t58 9t46.5 28t30.5 49t11 73v373
h172v-388z" />
    <glyph glyph-name="uni2113" unicode="&#x2113;" horiz-adv-x="1057" 
d="M118 545q41 15 79 32t75 35l2 464q0 82 24 153.5t68 123.5t106.5 82t141.5 30q72 0 132 -24t102.5 -67.5t66.5 -103t24 -130.5q0 -98 -34.5 -187t-96 -169t-145 -149.5t-181.5 -128.5v-156q0 -48 12 -82t32.5 -55.5t48 -31.5t59.5 -10q49 0 99.5 19t93.5 46l83 -167
q-58 -39 -130.5 -67t-163.5 -28q-163 0 -253.5 90.5t-90.5 281.5v51q-20 -8 -38.5 -16t-38.5 -16zM483 741q113 88 177 188.5t64 210.5q0 61 -28 95t-82 34q-56 0 -93 -49.5t-37 -143.5z" />
    <glyph glyph-name="uni2116" unicode="&#x2116;" horiz-adv-x="2466" 
d="M2376 396h-687v190h687v-190zM2032 1418q79 0 145.5 -27t115.5 -75t76.5 -113t27.5 -141t-27.5 -141t-76.5 -113t-115.5 -75t-145.5 -27q-78 0 -145 27t-115.5 75t-76 113t-27.5 141t27.5 141t76 113t115.5 75t145 27zM2032 1259q-41 0 -75.5 -14.5t-60 -40.5t-40 -62.5
t-14.5 -79.5q0 -44 14.5 -80t40 -62t60 -40.5t75.5 -14.5t76 14.5t61 40.5t40.5 62t14.5 80q0 43 -14.5 79.5t-40.5 62.5t-61 40.5t-76 14.5zM1402 0h-204l-781 1013l-1 -1013h-226v1400h204l782 -1013v1013h226v-1400z" />
    <glyph glyph-name="uni2117" unicode="&#x2117;" horiz-adv-x="1912" 
d="M956 1522q113 0 218 -29t196 -82t165.5 -127t128 -164t82.5 -193.5t29 -215.5t-29 -216t-82.5 -194t-128 -164.5t-165.5 -127.5t-196 -82t-218 -29t-218 29t-196 82t-165.5 127.5t-128 164.5t-82.5 194t-29 216t29 215.5t82.5 193.5t128 164t165.5 127t196 82t218 29z
M956 1337q-130 0 -244.5 -49t-199.5 -134t-134.5 -199t-49.5 -244q0 -131 49.5 -245t134.5 -199.5t199.5 -134.5t244.5 -49t244.5 49t199.5 134.5t134.5 199.5t49.5 245q0 130 -49.5 244t-134.5 199t-199.5 134t-244.5 49zM1018 1130q86 0 152 -19.5t110.5 -55.5t67 -86.5
t22.5 -112.5t-22.5 -112t-67 -85t-110 -54.5t-151.5 -19.5h-185v-311h-187v856h371zM834 961v-210h180q164 0 164 105t-164 105h-180z" />
    <glyph glyph-name="uni2120" unicode="&#x2120;" horiz-adv-x="1624" 
d="M595 1228q-39 19 -87 34.5t-105 15.5q-54 0 -90 -16t-36 -48q0 -17 11 -27.5t30 -17.5t45 -11t55 -8l35 -4q49 -5 90.5 -19t72 -36t47.5 -53t17 -71q0 -59 -24.5 -101t-65.5 -69t-94 -39.5t-110 -12.5q-79 0 -156.5 18.5t-134.5 56.5l74 123q38 -24 94.5 -43t123.5 -19
q54 0 92 16t38 49q0 31 -36.5 44t-106.5 20l-41 4q-49 5 -89.5 19t-69.5 37t-45 55.5t-16 74.5q0 49 21.5 88.5t60 67t90.5 42.5t114 15q83 0 144.5 -16.5t118.5 -45.5zM1398 760v444l-144 -383h-159l-144 382v-443h-150v640h215l159 -410l158 410h215v-640h-150z" />
    <glyph glyph-name="trademark" unicode="&#x2122;" horiz-adv-x="1580" 
d="M1354 760v444l-144 -383h-159l-144 382v-443h-150v640h215l159 -410l158 410h215v-640h-150zM279 760v502h-203v138h556v-138h-203v-502h-150z" />
    <glyph glyph-name="Omega" unicode="&#x2126;" horiz-adv-x="1722" 
d="M345 214q-103 91 -160 215t-57 271q0 157 54 290t151 230t232 151.5t296 54.5t296 -54.5t232 -151.5t151 -230t54 -290q0 -147 -57 -271t-160 -215h269v-214h-626v184q75 24 137.5 70.5t106.5 111.5t68.5 147t24.5 177q0 115 -37.5 211t-103.5 164t-157 106t-198 38
t-198 -38t-157 -106t-103.5 -164t-37.5 -211q0 -95 24.5 -177t68.5 -147t106.5 -111.5t137.5 -70.5v-184h-626v214h269z" />
    <glyph glyph-name="estimated" unicode="&#x212e;" horiz-adv-x="2000" 
d="M475 331q0 -78 24 -138t89 -103q88 -59 192.5 -89.5t219.5 -30.5q94 0 181.5 21t164.5 60.5t142 97t113 129.5l64 -49q-54 -80 -126 -143t-157.5 -106.5t-182 -66.5t-199.5 -23q-166 0 -312 58t-255.5 164.5t-173 256t-63.5 331.5t63.5 331.5t173 256t255.5 164.5t312 58
t312 -58t255.5 -164.5t173 -256t63.5 -331.5v-21q0 -9 -1 -19h-1328v-329zM1539 740v316q0 77 -23 136.5t-85 104.5q-91 66 -200.5 99.5t-230.5 33.5q-115 0 -219.5 -30.5t-192.5 -89.5q-65 -44 -89 -103.5t-24 -137.5v-329h1064z" />
    <glyph glyph-name="uni214D" unicode="&#x214d;" horiz-adv-x="2000" 
d="M898 672h-184l-48 144h-276l-48 -144h-181l265 728h207zM1745 527q-40 22 -91.5 39.5t-114.5 17.5q-55 0 -90.5 -17.5t-35.5 -49.5q0 -17 12 -28t33 -18.5t49 -12.5t60 -10l33 -5q54 -8 98.5 -24.5t75.5 -41.5t48 -60t17 -80q0 -66 -26.5 -113.5t-71 -77.5t-101.5 -44.5
t-117 -14.5q-89 0 -171.5 21t-143.5 64l83 142q42 -26 100.5 -48t133.5 -22q54 0 90.5 17t36.5 52q0 34 -37.5 46.5t-111.5 22.5l-39 5q-114 14 -175.5 65t-61.5 149q0 55 22.5 99t63 75.5t96.5 48.5t122 17q47 0 86.5 -5t74 -14t65.5 -22t62 -29zM442 973h172l-86 259z
M743 0h-209l883 1400h209z" />
    <glyph glyph-name="uni2150" unicode="&#x2150;" horiz-adv-x="1781" 
d="M489 0h-209l883 1400h209zM1733 677l-335 -677h-205l336 651h-385v161h589v-135zM413 588h-173v585l-192 -74v171l365 143v-825z" />
    <glyph glyph-name="uni2151" unicode="&#x2151;" horiz-adv-x="1806" 
d="M489 0h-209l883 1400h209zM1437 278q-7 -1 -14 -1h-14q-66 0 -119.5 21t-91.5 57.5t-58.5 85.5t-20.5 106q0 60 24 111.5t66 88.5t99.5 58t125.5 21q67 0 124.5 -20.5t100 -57.5t66.5 -87t24 -110q0 -57 -21 -110.5t-59 -110.5l-225 -330h-208zM1434 423q29 0 53.5 9.5
t42.5 26t28 39.5t10 50q0 28 -10 51t-28 39.5t-42.5 26t-53.5 9.5t-53.5 -9.5t-42.5 -26t-28.5 -39.5t-10.5 -51q0 -27 10.5 -50t28.5 -39.5t42.5 -26t53.5 -9.5zM413 588h-173v585l-192 -74v171l365 143v-825z" />
    <glyph glyph-name="uni2152" unicode="&#x2152;" horiz-adv-x="2551" 
d="M489 0h-209l883 1400h209zM1490 0h-173v585l-192 -74v171l365 143v-825zM2096 826q75 0 140.5 -28.5t114.5 -82.5t77 -132t28 -177t-28 -177t-77 -132t-114.5 -82.5t-140.5 -28.5t-140 28.5t-114 82.5t-77 132t-28 177t28 177t77 132t114 82.5t140 28.5zM2096 661
q-38 0 -70.5 -16.5t-56.5 -48.5t-38 -79.5t-14 -110.5t14 -110.5t38 -79.5t56.5 -48.5t70.5 -16.5t71 16.5t57 48.5t38 79.5t14 110.5t-14 110.5t-38 79.5t-57 48.5t-71 16.5zM413 588h-173v585l-192 -74v171l365 143v-825z" />
    <glyph glyph-name="onethird" unicode="&#x2153;" horiz-adv-x="1787" 
d="M489 0h-209l883 1400h209zM1390 826q66 0 121 -16.5t94 -47t61 -73.5t22 -96q0 -65 -32.5 -111.5t-89.5 -72.5q65 -26 102.5 -73t37.5 -112q0 -60 -26 -105t-69.5 -74.5t-99 -44t-115.5 -14.5q-94 0 -168.5 30.5t-122.5 87.5l100 114q35 -37 82.5 -57t100.5 -20
q29 0 54 6t44 18t29.5 30t10.5 43q0 24 -12.5 41.5t-33.5 29.5t-49 18t-59 6h-95v153h96q57 0 96.5 23.5t39.5 69.5q0 45 -36 68.5t-91 23.5q-58 0 -100 -24t-68 -56l-104 111q44 54 112 89t168 35zM413 588h-173v585l-192 -74v171l365 143v-825z" />
    <glyph glyph-name="twothirds" unicode="&#x2154;" horiz-adv-x="1943" 
d="M645 0h-209l883 1400h209zM1546 826q66 0 121 -16.5t94 -47t61 -73.5t22 -96q0 -65 -32.5 -111.5t-89.5 -72.5q65 -26 102.5 -73t37.5 -112q0 -60 -26 -105t-69.5 -74.5t-99 -44t-115.5 -14.5q-94 0 -168.5 30.5t-122.5 87.5l100 114q35 -37 82.5 -57t100.5 -20
q29 0 54 6t44 18t29.5 30t10.5 43q0 24 -12.5 41.5t-33.5 29.5t-49 18t-59 6h-95v153h96q57 0 96.5 23.5t39.5 69.5q0 45 -36 68.5t-91 23.5q-58 0 -100 -24t-68 -56l-104 111q44 54 112 89t168 35zM62 1273q18 22 44 47t61 46t81 34.5t104 13.5q65 0 117.5 -19t89 -53.5
t56.5 -82.5t20 -107q0 -37 -8.5 -68.5t-24.5 -61t-39 -57t-51 -55.5l-164 -161h307v-161h-554v135l290 285q31 31 48 63t17 67q0 50 -33 80.5t-86 30.5q-28 0 -51 -7t-42.5 -18.5t-36.5 -26.5t-33 -32z" />
    <glyph glyph-name="uni2155" unicode="&#x2155;" horiz-adv-x="1806" 
d="M489 0h-209l883 1400h209zM1673 653h-330l-3 -145h79q74 0 130.5 -18.5t94.5 -51t57.5 -77.5t19.5 -97q0 -66 -23.5 -117.5t-65 -87.5t-97.5 -55t-121 -19q-94 0 -169 31.5t-126 85.5l102 115q34 -30 85.5 -51.5t106.5 -21.5q65 0 97 30.5t32 76.5q0 21 -8 39.5t-26.5 33
t-49 22.5t-75.5 8h-200l10 458h480v-159zM413 588h-173v585l-192 -74v171l365 143v-825z" />
    <glyph glyph-name="uni2156" unicode="&#x2156;" horiz-adv-x="1962" 
d="M645 0h-209l883 1400h209zM1829 653h-330l-3 -145h79q74 0 130.5 -18.5t94.5 -51t57.5 -77.5t19.5 -97q0 -66 -23.5 -117.5t-65 -87.5t-97.5 -55t-121 -19q-94 0 -169 31.5t-126 85.5l102 115q34 -30 85.5 -51.5t106.5 -21.5q65 0 97 30.5t32 76.5q0 21 -8 39.5t-26.5 33
t-49 22.5t-75.5 8h-200l10 458h480v-159zM62 1273q18 22 44 47t61 46t81 34.5t104 13.5q65 0 117.5 -19t89 -53.5t56.5 -82.5t20 -107q0 -37 -8.5 -68.5t-24.5 -61t-39 -57t-51 -55.5l-164 -161h307v-161h-554v135l290 285q31 31 48 63t17 67q0 50 -33 80.5t-86 30.5
q-28 0 -51 -7t-42.5 -18.5t-36.5 -26.5t-33 -32z" />
    <glyph glyph-name="uni2157" unicode="&#x2157;" horiz-adv-x="1941" 
d="M624 0h-209l883 1400h209zM1808 653h-330l-3 -145h79q74 0 130.5 -18.5t94.5 -51t57.5 -77.5t19.5 -97q0 -66 -23.5 -117.5t-65 -87.5t-97.5 -55t-121 -19q-94 0 -169 31.5t-126 85.5l102 115q34 -30 85.5 -51.5t106.5 -21.5q65 0 97 30.5t32 76.5q0 21 -8 39.5t-26.5 33
t-49 22.5t-75.5 8h-200l10 458h480v-159zM333 1414q66 0 121 -16.5t94 -47t61 -73.5t22 -96q0 -65 -32.5 -111.5t-89.5 -72.5q65 -26 102.5 -73t37.5 -112q0 -60 -26 -105t-69.5 -74.5t-99 -44t-115.5 -14.5q-94 0 -168.5 30.5t-122.5 87.5l100 114q35 -37 82.5 -57
t100.5 -20q29 0 54 6t44 18t29.5 30t10.5 43q0 24 -12.5 41.5t-33.5 29.5t-49 18t-59 6h-95v153h96q57 0 96.5 23.5t39.5 69.5q0 45 -36 68.5t-91 23.5q-58 0 -100 -24t-68 -56l-104 111q44 54 112 89t168 35z" />
    <glyph glyph-name="uni2158" unicode="&#x2158;" horiz-adv-x="1935" 
d="M618 0h-209l883 1400h209zM1802 653h-330l-3 -145h79q74 0 130.5 -18.5t94.5 -51t57.5 -77.5t19.5 -97q0 -66 -23.5 -117.5t-65 -87.5t-97.5 -55t-121 -19q-94 0 -169 31.5t-126 85.5l102 115q34 -30 85.5 -51.5t106.5 -21.5q65 0 97 30.5t32 76.5q0 21 -8 39.5t-26.5 33
t-49 22.5t-75.5 8h-200l10 458h480v-159zM576 889h110v-158h-110v-143h-173v143h-365v124l281 544h191l-268 -510h161v218h173v-218z" />
    <glyph glyph-name="uni2159" unicode="&#x2159;" horiz-adv-x="1716" 
d="M489 0h-209l883 1400h209zM1335 534q7 1 14 1h15q66 0 119.5 -21t91.5 -57.5t58.5 -85.5t20.5 -106q0 -60 -24 -111.5t-66 -88.5t-100 -58t-125 -21t-124.5 20.5t-100 57.5t-66.5 87t-24 110q0 57 21 110.5t59 110.5l225 330h208zM1339 389q-29 0 -53.5 -9.5t-42.5 -26
t-28.5 -39.5t-10.5 -50q0 -28 10.5 -51t28.5 -39.5t42.5 -26t53.5 -9.5t53.5 9.5t42.5 26t28.5 39.5t10.5 51q0 27 -10.5 50t-28.5 39.5t-42.5 26t-53.5 9.5zM413 588h-173v585l-192 -74v171l365 143v-825z" />
    <glyph glyph-name="uni215A" unicode="&#x215a;" horiz-adv-x="1860" 
d="M633 0h-209l883 1400h209zM1479 534q7 1 14 1h15q66 0 119.5 -21t91.5 -57.5t58.5 -85.5t20.5 -106q0 -60 -24 -111.5t-66 -88.5t-100 -58t-125 -21t-124.5 20.5t-100 57.5t-66.5 87t-24 110q0 57 21 110.5t59 110.5l225 330h208zM1483 389q-29 0 -53.5 -9.5t-42.5 -26
t-28.5 -39.5t-10.5 -50q0 -28 10.5 -51t28.5 -39.5t42.5 -26t53.5 -9.5t53.5 9.5t42.5 26t28.5 39.5t10.5 51q0 27 -10.5 50t-28.5 39.5t-42.5 26t-53.5 9.5zM616 1241h-330l-3 -145h79q74 0 130.5 -18.5t94.5 -51t57.5 -77.5t19.5 -97q0 -66 -23.5 -117.5t-65 -87.5
t-97.5 -55t-121 -19q-94 0 -169 31.5t-126 85.5l102 115q34 -30 85.5 -51.5t106.5 -21.5q65 0 97 30.5t32 76.5q0 21 -8 39.5t-26.5 33t-49 22.5t-75.5 8h-200l10 458h480v-159z" />
    <glyph glyph-name="oneeighth" unicode="&#x215b;" horiz-adv-x="1841" 
d="M489 0h-209l883 1400h209zM1434 826q63 0 119 -16t97.5 -46t65.5 -73t24 -98q0 -35 -9.5 -63.5t-26.5 -51t-40 -39.5t-50 -29q30 -12 57 -29t46.5 -40.5t31 -53t11.5 -66.5q0 -56 -26 -99.5t-70 -73.5t-103.5 -46t-126.5 -16q-68 0 -127 16t-103.5 46t-70 73.5
t-25.5 99.5q0 37 11.5 66.5t31 53t46 40.5t56.5 29q-53 24 -89 68.5t-36 114.5q0 55 24 98t65.5 73t97.5 46t119 16zM1434 341q-29 0 -54 -6.5t-44 -19.5t-30 -32t-11 -44q0 -26 11 -46t30 -33.5t44 -20t54 -6.5q28 0 53.5 6.5t44.5 20t30 33.5t11 46q0 25 -11 44t-30 32
t-44.5 19.5t-53.5 6.5zM1434 676q-25 0 -47.5 -6.5t-39 -19t-26 -31t-9.5 -42.5t9.5 -42t26 -30t39 -18t47.5 -6t47.5 6t39 18t26 30t9.5 42t-9.5 42.5t-26 31t-39 19t-47.5 6.5zM413 588h-173v585l-192 -74v171l365 143v-825z" />
    <glyph glyph-name="threeeighths" unicode="&#x215c;" horiz-adv-x="1976" 
d="M624 0h-209l883 1400h209zM1569 826q63 0 119 -16t97.5 -46t65.5 -73t24 -98q0 -35 -9.5 -63.5t-26.5 -51t-40 -39.5t-50 -29q30 -12 57 -29t46.5 -40.5t31 -53t11.5 -66.5q0 -56 -26 -99.5t-70 -73.5t-103.5 -46t-126.5 -16q-68 0 -127 16t-103.5 46t-70 73.5
t-25.5 99.5q0 37 11.5 66.5t31 53t46 40.5t56.5 29q-53 24 -89 68.5t-36 114.5q0 55 24 98t65.5 73t97.5 46t119 16zM1569 341q-29 0 -54 -6.5t-44 -19.5t-30 -32t-11 -44q0 -26 11 -46t30 -33.5t44 -20t54 -6.5q28 0 53.5 6.5t44.5 20t30 33.5t11 46q0 25 -11 44t-30 32
t-44.5 19.5t-53.5 6.5zM1569 676q-25 0 -47.5 -6.5t-39 -19t-26 -31t-9.5 -42.5t9.5 -42t26 -30t39 -18t47.5 -6t47.5 6t39 18t26 30t9.5 42t-9.5 42.5t-26 31t-39 19t-47.5 6.5zM333 1414q66 0 121 -16.5t94 -47t61 -73.5t22 -96q0 -65 -32.5 -111.5t-89.5 -72.5
q65 -26 102.5 -73t37.5 -112q0 -60 -26 -105t-69.5 -74.5t-99 -44t-115.5 -14.5q-94 0 -168.5 30.5t-122.5 87.5l100 114q35 -37 82.5 -57t100.5 -20q29 0 54 6t44 18t29.5 30t10.5 43q0 24 -12.5 41.5t-33.5 29.5t-49 18t-59 6h-95v153h96q57 0 96.5 23.5t39.5 69.5
q0 45 -36 68.5t-91 23.5q-58 0 -100 -24t-68 -56l-104 111q44 54 112 89t168 35z" />
    <glyph glyph-name="fiveeighths" unicode="&#x215d;" horiz-adv-x="1985" 
d="M633 0h-209l883 1400h209zM1578 826q63 0 119 -16t97.5 -46t65.5 -73t24 -98q0 -35 -9.5 -63.5t-26.5 -51t-40 -39.5t-50 -29q30 -12 57 -29t46.5 -40.5t31 -53t11.5 -66.5q0 -56 -26 -99.5t-70 -73.5t-103.5 -46t-126.5 -16q-68 0 -127 16t-103.5 46t-70 73.5
t-25.5 99.5q0 37 11.5 66.5t31 53t46 40.5t56.5 29q-53 24 -89 68.5t-36 114.5q0 55 24 98t65.5 73t97.5 46t119 16zM1578 341q-29 0 -54 -6.5t-44 -19.5t-30 -32t-11 -44q0 -26 11 -46t30 -33.5t44 -20t54 -6.5q28 0 53.5 6.5t44.5 20t30 33.5t11 46q0 25 -11 44t-30 32
t-44.5 19.5t-53.5 6.5zM1578 676q-25 0 -47.5 -6.5t-39 -19t-26 -31t-9.5 -42.5t9.5 -42t26 -30t39 -18t47.5 -6t47.5 6t39 18t26 30t9.5 42t-9.5 42.5t-26 31t-39 19t-47.5 6.5zM616 1241h-330l-3 -145h79q74 0 130.5 -18.5t94.5 -51t57.5 -77.5t19.5 -97
q0 -66 -23.5 -117.5t-65 -87.5t-97.5 -55t-121 -19q-94 0 -169 31.5t-126 85.5l102 115q34 -30 85.5 -51.5t106.5 -21.5q65 0 97 30.5t32 76.5q0 21 -8 39.5t-26.5 33t-49 22.5t-75.5 8h-200l10 458h480v-159z" />
    <glyph glyph-name="seveneighths" unicode="&#x215e;" horiz-adv-x="1830" 
d="M478 0h-209l883 1400h209zM1423 826q63 0 119 -16t97.5 -46t65.5 -73t24 -98q0 -35 -9.5 -63.5t-26.5 -51t-40 -39.5t-50 -29q30 -12 57 -29t46.5 -40.5t31 -53t11.5 -66.5q0 -56 -26 -99.5t-70 -73.5t-103.5 -46t-126.5 -16q-68 0 -127 16t-103.5 46t-70 73.5
t-25.5 99.5q0 37 11.5 66.5t31 53t46 40.5t56.5 29q-53 24 -89 68.5t-36 114.5q0 55 24 98t65.5 73t97.5 46t119 16zM1423 341q-29 0 -54 -6.5t-44 -19.5t-30 -32t-11 -44q0 -26 11 -46t30 -33.5t44 -20t54 -6.5q28 0 53.5 6.5t44.5 20t30 33.5t11 46q0 25 -11 44t-30 32
t-44.5 19.5t-53.5 6.5zM1423 676q-25 0 -47.5 -6.5t-39 -19t-26 -31t-9.5 -42.5t9.5 -42t26 -30t39 -18t47.5 -6t47.5 6t39 18t26 30t9.5 42t-9.5 42.5t-26 31t-39 19t-47.5 6.5zM646 1265l-335 -677h-205l336 651h-385v161h589v-135z" />
    <glyph glyph-name="uni215F" unicode="&#x215f;" horiz-adv-x="1057" 
d="M489 0h-209l883 1400h209zM413 588h-173v585l-192 -74v171l365 143v-825z" />
    <glyph glyph-name="uni2189" unicode="&#x2189;" horiz-adv-x="2041" 
d="M743 0h-209l883 1400h209zM1644 826q66 0 121 -16.5t94 -47t61 -73.5t22 -96q0 -65 -32.5 -111.5t-89.5 -72.5q65 -26 102.5 -73t37.5 -112q0 -60 -26 -105t-69.5 -74.5t-99 -44t-115.5 -14.5q-94 0 -168.5 30.5t-122.5 87.5l100 114q35 -37 82.5 -57t100.5 -20
q29 0 54 6t44 18t29.5 30t10.5 43q0 24 -12.5 41.5t-33.5 29.5t-49 18t-59 6h-95v153h96q57 0 96.5 23.5t39.5 69.5q0 45 -36 68.5t-91 23.5q-58 0 -100 -24t-68 -56l-104 111q44 54 112 89t168 35zM454 1414q75 0 140.5 -28.5t114.5 -82.5t77 -132t28 -177t-28 -177
t-77 -132t-114.5 -82.5t-140.5 -28.5t-140 28.5t-114 82.5t-77 132t-28 177t28 177t77 132t114 82.5t140 28.5zM454 1249q-38 0 -70.5 -16.5t-56.5 -48.5t-38 -79.5t-14 -110.5t14 -110.5t38 -79.5t56.5 -48.5t70.5 -16.5t71 16.5t57 48.5t38 79.5t14 110.5t-14 110.5
t-38 79.5t-57 48.5t-71 16.5z" />
    <glyph glyph-name="arrowleft" unicode="&#x2190;" horiz-adv-x="2000" 
d="M737 570q-29 0 -61.5 1t-70 2.5t-86.5 4.5q73 -59 143 -126t128 -125l169 -169l-134 -134l-641 641l641 641l134 -134l-169 -169q-58 -58 -128 -125t-143 -126q49 3 86.5 4.5t70 2.5t61.5 1h1079v-190h-1079z" />
    <glyph glyph-name="arrowup" unicode="&#x2191;" horiz-adv-x="2000" 
d="M905 968q0 29 1 61.5t2.5 70t4.5 86.5q-59 -73 -126 -143t-125 -128l-169 -169l-134 134l641 641l641 -641l-134 -134l-169 169q-58 58 -125 128t-126 143q3 -49 4.5 -86.5t2.5 -70t1 -61.5v-1079h-190v1079z" />
    <glyph glyph-name="arrowright" unicode="&#x2192;" horiz-adv-x="2000" 
d="M1263 760q29 0 61.5 -1t70 -2.5t86.5 -4.5q-73 59 -143 126t-128 125l-169 169l134 134l641 -641l-641 -641l-134 134l169 169q58 58 128 125t143 126q-49 -3 -86.5 -4.5t-70 -2.5t-61.5 -1h-1079v190h1079z" />
    <glyph glyph-name="arrowdown" unicode="&#x2193;" horiz-adv-x="2000" 
d="M1095 442q0 -29 -1 -61.5t-2.5 -70t-4.5 -86.5q59 73 126 143t125 128l169 169l134 -134l-641 -641l-641 641l134 134l169 -169q58 -58 125 -128t126 -143q-3 49 -4.5 86.5t-2.5 70t-1 61.5v1079h190v-1079z" />
    <glyph glyph-name="uni2196" unicode="&#x2196;" horiz-adv-x="2000" 
d="M712 797q-20 21 -43 45q-22 23 -47.5 51t-57.5 64q10 -93 12 -190t2 -179v-239h-189v907h906v-190h-239q-82 0 -178.5 2t-190.5 13q37 -33 65 -58.5t51 -48t43.5 -42.5t42.5 -42l721 -721l-135 -134z" />
    <glyph glyph-name="uni2197" unicode="&#x2197;" horiz-adv-x="2000" 
d="M1118 918q21 21 44.5 43.5t51.5 48t64 57.5q-93 -10 -190 -12t-179 -2h-239v189h907v-906h-190v239q0 82 2 178.5t13 190.5q-33 -37 -58.5 -65t-48 -51t-42.5 -43.5t-42 -42.5l-721 -721l-134 135z" />
    <glyph glyph-name="uni2198" unicode="&#x2198;" horiz-adv-x="2000" 
d="M1211 589q22 -22 42.5 -43t43 -44t48 -51t57.5 -64q-10 93 -12 190t-2 179v239h189v-907h-906v190h239q82 0 178.5 -2t190.5 -13q-37 33 -65 58.5t-51 48t-43.5 42.5t-42.5 42l-721 721l135 134z" />
    <glyph glyph-name="uni2199" unicode="&#x2199;" horiz-adv-x="2000" 
d="M891 440q-22 -22 -43 -42.5t-44 -43t-51 -48t-64 -57.5q93 10 190 12t179 2h239v-189h-907v906h190v-239q0 -82 -2 -178.5t-13 -190.5q33 37 58.5 65t48 51t42.5 43.5t42 42.5l721 721l134 -135z" />
    <glyph glyph-name="partialdiff" unicode="&#x2202;" horiz-adv-x="1210" 
d="M375 1453q150 -57 263.5 -129t196.5 -153.5t138 -169t88 -175.5t46.5 -173t13.5 -161q0 -110 -39 -204.5t-108 -164t-163.5 -109t-205.5 -39.5t-205.5 37.5t-163 103t-107.5 155t-39 193.5q0 106 36.5 196.5t100.5 156.5t151.5 103.5t189.5 37.5q82 0 153.5 -32
t126.5 -92q-29 61 -75.5 121t-115 117t-161.5 111t-215 102zM605 761q-64 0 -119 -21.5t-95 -60.5t-63 -93.5t-23 -120.5q0 -65 23 -119t63 -92.5t95 -60t119 -21.5t119 21.5t95.5 60t63.5 92.5t23 119q0 66 -23 120.5t-63.5 93.5t-95.5 60.5t-119 21.5z" />
    <glyph glyph-name="emptyset" unicode="&#x2205;" horiz-adv-x="1456" 
d="M1266 924l-122 -122q42 -61 64.5 -132.5t22.5 -149.5q0 -104 -39.5 -195.5t-108 -160t-160 -108t-195.5 -39.5q-79 0 -150.5 22.5t-131.5 64.5l-122 -122l-134 134l121 121q-42 61 -64.5 132.5t-22.5 150.5q0 103 39.5 195t108 160.5t160.5 108.5t196 40q78 0 150 -23
t132 -65l122 122zM414 520q0 -83 40 -154l426 427q-34 20 -72 30.5t-80 10.5q-65 0 -122 -25t-100 -67.5t-67.5 -100t-24.5 -121.5zM728 207q64 0 121 24.5t100 67.5t67.5 99.5t24.5 121.5q0 41 -10.5 79t-29.5 72l-424 -425q34 -19 71.5 -29t79.5 -10z" />
    <glyph glyph-name="emptyset" unicode="&#x2300;" horiz-adv-x="1456" 
d="M1266 924l-122 -122q42 -61 64.5 -132.5t22.5 -149.5q0 -104 -39.5 -195.5t-108 -160t-160 -108t-195.5 -39.5q-79 0 -150.5 22.5t-131.5 64.5l-122 -122l-134 134l121 121q-42 61 -64.5 132.5t-22.5 150.5q0 103 39.5 195t108 160.5t160.5 108.5t196 40q78 0 150 -23
t132 -65l122 122zM414 520q0 -83 40 -154l426 427q-34 20 -72 30.5t-80 10.5q-65 0 -122 -25t-100 -67.5t-67.5 -100t-24.5 -121.5zM728 207q64 0 121 24.5t100 67.5t67.5 99.5t24.5 121.5q0 41 -10.5 79t-29.5 72l-424 -425q34 -19 71.5 -29t79.5 -10z" />
    <glyph glyph-name="Delta" unicode="&#x2206;" horiz-adv-x="1399" 
d="M1323 175v-175h-1247v175l483 1225h282zM330 214h739l-369 960z" />
    <glyph glyph-name="product" unicode="&#x220f;" horiz-adv-x="1488" 
d="M1298 -265h-226v1451h-656v-1451h-226v1665h1108v-1665z" />
    <glyph glyph-name="summation" unicode="&#x2211;" horiz-adv-x="1310" 
d="M1191 1186h-741l503 -546v-125l-508 -566h751v-214h-1082v175l598 662l-593 653v175h1072v-214z" />
    <glyph glyph-name="minus" unicode="&#x2212;" horiz-adv-x="1200" 
d="M1050 438h-900v190h900v-190z" />
    <glyph glyph-name="uni2219" unicode="&#x2219;" horiz-adv-x="1200" 
d="M600 821q59 0 111.5 -22.5t91.5 -61.5t62 -91.5t23 -112.5t-23 -112.5t-62 -91.5t-91.5 -61.5t-111.5 -22.5q-60 0 -112.5 22.5t-91.5 61.5t-61.5 91.5t-22.5 112.5t22.5 112.5t61.5 91.5t91.5 61.5t112.5 22.5z" />
    <glyph glyph-name="radical" unicode="&#x221a;" horiz-adv-x="1266" 
d="M687 -265h-282l-382 1000h249l273 -735l461 1440h230z" />
    <glyph glyph-name="infinity" unicode="&#x221e;" horiz-adv-x="1700" 
d="M48 520q0 93 32 168t86.5 127.5t126 81t150.5 28.5q60 0 112 -20t100 -55t95.5 -83.5t99.5 -105.5q52 57 99.5 105.5t95.5 83.5t100 55t112 20q79 0 150.5 -28.5t126 -81t86.5 -127.5t32 -168t-32 -168t-86.5 -127.5t-126 -81t-150.5 -28.5q-60 0 -112 19.5t-100 55
t-95.5 83.5t-99.5 105q-52 -57 -99.5 -105t-95.5 -83.5t-100 -55t-112 -19.5q-79 0 -150.5 28.5t-126 81t-86.5 127.5t-32 168zM248 520q0 -52 15.5 -92t41.5 -67.5t61.5 -41.5t76.5 -14q30 0 58.5 13t61 39.5t71 67t88.5 95.5q-51 56 -90 96.5t-70.5 67t-60 39t-58.5 12.5
q-41 0 -76.5 -14t-61.5 -41.5t-41.5 -67.5t-15.5 -92zM1452 520q0 52 -15.5 92t-41.5 67.5t-62 41.5t-76 14q-30 0 -58 -12.5t-59.5 -39t-70.5 -67t-90 -96.5h1l-1 -1q51 -56 90 -96.5t70.5 -66.5t59.5 -38.5t58 -12.5q40 0 76 14t62 41.5t41.5 67.5t15.5 92z" />
    <glyph glyph-name="integral" unicode="&#x222b;" horiz-adv-x="646" 
d="M577 1222q-24 6 -50 6q-61 0 -93 -38t-32 -110v-1025q0 -72 -18.5 -135t-58 -109.5t-100 -73.5t-144.5 -27q-68 0 -121 13l57 190q24 -6 50 -6q61 0 93 38t32 110v1025q0 72 18.5 135t58 109.5t100 73.5t144.5 27q68 0 121 -13z" />
    <glyph glyph-name="congruent" unicode="&#x2245;" horiz-adv-x="1200" 
d="M1050 238h-900v190h900v-190zM1050 638h-900v190h900v-190zM1068 1134q-59 -62 -125.5 -92t-154.5 -30q-73 0 -122.5 12t-90.5 27t-81.5 27t-94.5 12q-38 0 -73 -18.5t-79 -56.5l-114 133q30 31 60.5 54t64.5 38t72.5 22.5t82.5 7.5q73 0 122.5 -12t90.5 -27t81.5 -27
t94.5 -12q38 0 73 18.5t79 56.5z" />
    <glyph glyph-name="approxequal" unicode="&#x2248;" horiz-adv-x="1200" 
d="M1068 722q-59 -62 -125.5 -92t-154.5 -30q-73 0 -122.5 12t-90.5 27t-81.5 27t-94.5 12q-38 0 -73 -18.5t-79 -56.5l-114 133q30 31 60.5 54t64.5 38t72.5 22.5t82.5 7.5q73 0 122.5 -12t90.5 -27t81.5 -27t94.5 -12q38 0 73 18.5t79 56.5zM1068 325q-59 -62 -125.5 -92
t-154.5 -30q-73 0 -122.5 12t-90.5 27t-81.5 27t-94.5 12q-38 0 -73 -18.5t-79 -56.5l-114 133q30 31 60.5 54t64.5 38t72.5 22.5t82.5 7.5q73 0 122.5 -12t90.5 -27t81.5 -27t94.5 -12q38 0 73 18.5t79 56.5z" />
    <glyph glyph-name="uni2259" unicode="&#x2259;" horiz-adv-x="1200" 
d="M1050 238h-900v190h900v-190zM1050 638h-900v190h900v-190zM731 1006l-131 163l-131 -163h-223l211 300h286l211 -300h-223z" />
    <glyph glyph-name="notequal" unicode="&#x2260;" horiz-adv-x="1200" 
d="M1050 238h-494l-116 -238h-200l116 238h-206v190h298l103 210h-401v190h494l116 238h200l-116 -238h206v-190h-299l-103 -210h402v-190z" />
    <glyph glyph-name="lessequal" unicode="&#x2264;" horiz-adv-x="1200" 
d="M1008 874l-577 -211l577 -210v-222l-815 330v205l815 330v-222zM193 190h815v-190h-815v190z" />
    <glyph glyph-name="greaterequal" unicode="&#x2265;" horiz-adv-x="1200" 
d="M193 1096l815 -330v-205l-815 -330v222l577 210l-577 211v222zM1008 0h-815v190h815v-190z" />
    <glyph glyph-name="dotmath" unicode="&#x22c5;" horiz-adv-x="1200" 
d="M600 708q35 0 66.5 -14t55.5 -38t38 -55.5t14 -66.5t-14 -67t-38 -56t-55.5 -38.5t-66.5 -14.5t-66.5 14.5t-55.5 38.5t-38.5 56t-14.5 67t14.5 66.5t38.5 55.5t55.5 38t66.5 14z" />
    <glyph glyph-name="uni2460" unicode="&#x2460;" horiz-adv-x="2050" 
d="M1025 1594q124 0 239.5 -32t215.5 -90t182 -140t140.5 -181t90.5 -213t32 -237t-32 -237.5t-90.5 -214t-140.5 -181t-182 -140t-215.5 -90.5t-239.5 -32t-239.5 32t-215.5 90.5t-182 140t-140.5 181t-90.5 214t-32 237.5t32 237t90.5 213t140.5 181t182 140t215 90
t240 32zM1025 1398q-96 0 -185.5 -25t-167 -70t-141 -108.5t-109 -141t-70.5 -167t-25 -185.5q0 -97 25 -186.5t70.5 -167t109 -141t141 -109t166.5 -70.5t186 -25q96 0 185.5 25t167 70.5t141 109t109 141t70.5 167t25 186.5q0 96 -25 185.5t-70.5 167t-109 141t-141 108.5
t-167 70t-185.5 25zM1158 284h-186v609l-225 -83v184l411 157v-867z" />
    <glyph glyph-name="uni2461" unicode="&#x2461;" horiz-adv-x="2050" 
d="M1025 1594q124 0 239.5 -32t215.5 -90t182 -140t140.5 -181t90.5 -213t32 -237t-32 -237.5t-90.5 -214t-140.5 -181t-182 -140t-215.5 -90.5t-239.5 -32t-239.5 32t-215.5 90.5t-182 140t-140.5 181t-90.5 214t-32 237.5t32 237t90.5 213t140.5 181t182 140t215 90
t240 32zM1025 1398q-96 0 -185.5 -25t-167 -70t-141 -108.5t-109 -141t-70.5 -167t-25 -185.5q0 -97 25 -186.5t70.5 -167t109 -141t141 -109t166.5 -70.5t186 -25q96 0 185.5 25t167 70.5t141 109t109 141t70.5 167t25 186.5q0 96 -25 185.5t-70.5 167t-109 141t-141 108.5
t-167 70t-185.5 25zM713 1004q19 24 46.5 50t66 48t87.5 36.5t112 14.5q70 0 126 -20t96 -57t61.5 -88t21.5 -114q0 -41 -10.5 -75.5t-29 -65.5t-43 -59t-52.5 -54l-173 -163h328v-173h-596v146l312 296q34 32 52 65t18 70q0 51 -35 82.5t-92 31.5q-30 0 -54.5 -7t-45.5 -19
t-39 -28t-34 -33z" />
    <glyph glyph-name="uni2462" unicode="&#x2462;" horiz-adv-x="2050" 
d="M1025 1594q124 0 239.5 -32t215.5 -90t182 -140t140.5 -181t90.5 -213t32 -237t-32 -237.5t-90.5 -214t-140.5 -181t-182 -140t-215.5 -90.5t-239.5 -32t-239.5 32t-215.5 90.5t-182 140t-140.5 181t-90.5 214t-32 237.5t32 237t90.5 213t140.5 181t182 140t215 90
t240 32zM1025 1398q-96 0 -185.5 -25t-167 -70t-141 -108.5t-109 -141t-70.5 -167t-25 -185.5q0 -97 25 -186.5t70.5 -167t109 -141t141 -109t166.5 -70.5t186 -25q96 0 185.5 25t167 70.5t141 109t109 141t70.5 167t25 186.5q0 96 -25 185.5t-70.5 167t-109 141t-141 108.5
t-167 70t-185.5 25zM1016 1153q71 0 130 -17.5t101 -49.5t65.5 -77.5t23.5 -101.5q0 -69 -35.5 -118t-98.5 -75q72 -26 112.5 -75.5t40.5 -118.5q0 -64 -28 -111t-74 -78.5t-106.5 -47t-124.5 -15.5q-101 0 -181 32.5t-131 92.5l107 121q38 -39 89.5 -60t107.5 -21
q31 0 58 6t47 18.5t31.5 31t11.5 43.5t-13 44t-35.5 32t-52.5 19.5t-64 6.5h-103v161h104q31 0 57.5 6t46 18.5t31 30.5t11.5 42q0 46 -38.5 70t-98.5 24q-62 0 -106.5 -25.5t-72.5 -57.5l-113 120q47 57 120.5 93.5t180.5 36.5z" />
    <glyph glyph-name="uni2463" unicode="&#x2463;" horiz-adv-x="2050" 
d="M1025 1594q124 0 239.5 -32t215.5 -90t182 -140t140.5 -181t90.5 -213t32 -237t-32 -237.5t-90.5 -214t-140.5 -181t-182 -140t-215.5 -90.5t-239.5 -32t-239.5 32t-215.5 90.5t-182 140t-140.5 181t-90.5 214t-32 237.5t32 237t90.5 213t140.5 181t182 140t215 90
t240 32zM1025 1398q-96 0 -185.5 -25t-167 -70t-141 -108.5t-109 -141t-70.5 -167t-25 -185.5q0 -97 25 -186.5t70.5 -167t109 -141t141 -109t166.5 -70.5t186 -25q96 0 185.5 25t167 70.5t141 109t109 141t70.5 167t25 186.5q0 96 -25 185.5t-70.5 167t-109 141t-141 108.5
t-167 70t-185.5 25zM1239 606h118v-173h-118v-149h-186v149h-393v132l302 572h206l-285 -531h170v226h186v-226z" />
    <glyph glyph-name="uni2464" unicode="&#x2464;" horiz-adv-x="2050" 
d="M1025 1594q124 0 239.5 -32t215.5 -90t182 -140t140.5 -181t90.5 -213t32 -237t-32 -237.5t-90.5 -214t-140.5 -181t-182 -140t-215.5 -90.5t-239.5 -32t-239.5 32t-215.5 90.5t-182 140t-140.5 181t-90.5 214t-32 237.5t32 237t90.5 213t140.5 181t182 140t215 90
t240 32zM1025 1398q-96 0 -185.5 -25t-167 -70t-141 -108.5t-109 -141t-70.5 -167t-25 -185.5q0 -97 25 -186.5t70.5 -167t109 -141t141 -109t166.5 -70.5t186 -25q96 0 185.5 25t167 70.5t141 109t109 141t70.5 167t25 186.5q0 96 -25 185.5t-70.5 167t-109 141t-141 108.5
t-167 70t-185.5 25zM1308 966h-353l-4 -149h96q77 0 135.5 -19t98 -53t59.5 -81t20 -102q0 -69 -25.5 -123.5t-70 -92.5t-104.5 -58t-130 -20q-101 0 -181.5 33.5t-135.5 89.5l99 134q17 -17 41.5 -32.5t53 -27.5t59.5 -19t63 -7q69 0 103 31t34 79q0 21 -8.5 40.5t-28 33.5
t-52 22.5t-81.5 8.5h-214l10 484h516v-172z" />
    <glyph glyph-name="uni2465" unicode="&#x2465;" horiz-adv-x="2050" 
d="M1025 1594q124 0 239.5 -32t215.5 -90t182 -140t140.5 -181t90.5 -213t32 -237t-32 -237.5t-90.5 -214t-140.5 -181t-182 -140t-215.5 -90.5t-239.5 -32t-239.5 32t-215.5 90.5t-182 140t-140.5 181t-90.5 214t-32 237.5t32 237t90.5 213t140.5 181t182 140t215 90
t240 32zM1025 1398q-96 0 -185.5 -25t-167 -70t-141 -108.5t-109 -141t-70.5 -167t-25 -185.5q0 -97 25 -186.5t70.5 -167t109 -141t141 -109t166.5 -70.5t186 -25q96 0 185.5 25t167 70.5t141 109t109 141t70.5 167t25 186.5q0 96 -25 185.5t-70.5 167t-109 141t-141 108.5
t-167 70t-185.5 25zM1012 846q7 1 13.5 1.5t13.5 0.5q69 0 125.5 -22t97.5 -60.5t63.5 -90.5t22.5 -111q0 -64 -25.5 -118.5t-70.5 -94t-106.5 -61.5t-132.5 -22q-72 0 -133.5 22t-106.5 61t-70.5 92t-25.5 116q0 60 22 117t64 117l238 345h225zM1013 689q-30 0 -56 -9.5
t-44.5 -26.5t-29.5 -40t-11 -51t11 -51.5t29.5 -40t44.5 -26t56 -9.5t55.5 9.5t44.5 26.5t30 40t11 51t-11 51t-30 40t-44.5 26.5t-55.5 9.5z" />
    <glyph glyph-name="uni2466" unicode="&#x2466;" horiz-adv-x="2050" 
d="M1025 1594q124 0 239.5 -32t215.5 -90t182 -140t140.5 -181t90.5 -213t32 -237t-32 -237.5t-90.5 -214t-140.5 -181t-182 -140t-215.5 -90.5t-239.5 -32t-239.5 32t-215.5 90.5t-182 140t-140.5 181t-90.5 214t-32 237.5t32 237t90.5 213t140.5 181t182 140t215 90
t240 32zM1025 1398q-96 0 -185.5 -25t-167 -70t-141 -108.5t-109 -141t-70.5 -167t-25 -185.5q0 -97 25 -186.5t70.5 -167t109 -141t141 -109t166.5 -70.5t186 -25q96 0 185.5 25t167 70.5t141 109t109 141t70.5 167t25 186.5q0 96 -25 185.5t-70.5 167t-109 141t-141 108.5
t-167 70t-185.5 25zM1370 992l-360 -708h-221l361 681h-413v173h633v-146z" />
    <glyph glyph-name="uni2467" unicode="&#x2467;" horiz-adv-x="2050" 
d="M1025 1594q124 0 239.5 -32t215.5 -90t182 -140t140.5 -181t90.5 -213t32 -237t-32 -237.5t-90.5 -214t-140.5 -181t-182 -140t-215.5 -90.5t-239.5 -32t-239.5 32t-215.5 90.5t-182 140t-140.5 181t-90.5 214t-32 237.5t32 237t90.5 213t140.5 181t182 140t215 90
t240 32zM1025 1398q-96 0 -185.5 -25t-167 -70t-141 -108.5t-109 -141t-70.5 -167t-25 -185.5q0 -97 25 -186.5t70.5 -167t109 -141t141 -109t166.5 -70.5t186 -25q96 0 185.5 25t167 70.5t141 109t109 141t70.5 167t25 186.5q0 96 -25 185.5t-70.5 167t-109 141t-141 108.5
t-167 70t-185.5 25zM1025 1153q67 0 126 -17t103.5 -48.5t70.5 -77t26 -103.5q0 -36 -10.5 -65.5t-29 -53.5t-44 -42t-54.5 -31q33 -13 62.5 -31t51 -42.5t34 -55.5t12.5 -70q0 -58 -27.5 -104t-75 -78t-111 -49t-134.5 -17t-134.5 17t-110.5 49t-74.5 78t-27.5 104
q0 39 12.5 70t34 55.5t50.5 42.5t62 30q-29 13 -54.5 31.5t-44 42.5t-29 53.5t-10.5 65.5q0 58 26 103.5t70.5 77t103.5 48.5t126 17zM1025 642q-29 0 -55 -7t-46 -20.5t-32 -33t-12 -45.5t12 -45t32 -32.5t46 -20t55 -6.5t55.5 6.5t46.5 20t32 32.5t12 45t-12 45.5t-32 33
t-46.5 20.5t-55.5 7zM1025 988q-26 0 -49.5 -6.5t-41 -18.5t-27.5 -30.5t-10 -42.5t10 -42.5t27.5 -31.5t41 -19.5t49.5 -6.5q27 0 50.5 6.5t41 19.5t27.5 31.5t10 42.5t-10 42.5t-27.5 30.5t-41 18.5t-50.5 6.5z" />
    <glyph glyph-name="uni2468" unicode="&#x2468;" horiz-adv-x="2050" 
d="M1025 1594q124 0 239.5 -32t215.5 -90t182 -140t140.5 -181t90.5 -213t32 -237t-32 -237.5t-90.5 -214t-140.5 -181t-182 -140t-215.5 -90.5t-239.5 -32t-239.5 32t-215.5 90.5t-182 140t-140.5 181t-90.5 214t-32 237.5t32 237t90.5 213t140.5 181t182 140t215 90
t240 32zM1025 1398q-96 0 -185.5 -25t-167 -70t-141 -108.5t-109 -141t-70.5 -167t-25 -185.5q0 -97 25 -186.5t70.5 -167t109 -141t141 -109t166.5 -70.5t186 -25q96 0 185.5 25t167 70.5t141 109t109 141t70.5 167t25 186.5q0 96 -25 185.5t-70.5 167t-109 141t-141 108.5
t-167 70t-185.5 25zM1035 575q-7 -1 -14 -1h-13q-69 0 -125.5 22t-97.5 60.5t-63.5 90t-22.5 111.5q0 64 25.5 118t70.5 93.5t106.5 61.5t133.5 22q71 0 132.5 -22t106.5 -60.5t70.5 -91.5t25.5 -116q0 -60 -22 -117.5t-64 -117.5l-238 -344h-225zM1035 733q30 0 55.5 9.5
t44 26.5t29.5 40t11 51t-11 51t-29.5 40t-44 26.5t-55.5 9.5t-56 -9.5t-45 -26.5t-30 -40t-11 -51t11 -51t30 -40t45 -26.5t56 -9.5z" />
    <glyph glyph-name="uni24EA" unicode="&#x24ea;" horiz-adv-x="2050" 
d="M1025 1594q124 0 239.5 -32t215.5 -90t182 -140t140.5 -181t90.5 -213t32 -237t-32 -237.5t-90.5 -214t-140.5 -181t-182 -140t-215.5 -90.5t-239.5 -32t-239.5 32t-215.5 90.5t-182 140t-140.5 181t-90.5 214t-32 237.5t32 237t90.5 213t140.5 181t182 140t215 90
t240 32zM1025 1398q-96 0 -185.5 -25t-167 -70t-141 -108.5t-109 -141t-70.5 -167t-25 -185.5q0 -97 25 -186.5t70.5 -167t109 -141t141 -109t166.5 -70.5t186 -25q96 0 185.5 25t167 70.5t141 109t109 141t70.5 167t25 186.5q0 96 -25 185.5t-70.5 167t-109 141t-141 108.5
t-167 70t-185.5 25zM1025 1153q81 0 151.5 -30.5t123 -87.5t82.5 -139t30 -185q0 -104 -30 -186t-82.5 -139t-123 -87.5t-151.5 -30.5q-80 0 -150.5 30.5t-123 87.5t-82.5 139t-30 186q0 103 30 185t82.5 139t123 87.5t150.5 30.5zM1025 974q-40 0 -75 -17t-61 -50
t-41 -82.5t-15 -114.5t15 -114.5t41 -82.5t61 -50t75 -17t75.5 17t61.5 50t41 82.5t15 114.5t-15 114.5t-41 82.5t-61.5 50t-75.5 17z" />
    <glyph glyph-name="uni24FF" unicode="&#x24ff;" horiz-adv-x="2050" 
d="M1025 1153q-80 0 -150.5 -30.5t-123 -87.5t-82.5 -139t-30 -185q0 -104 30 -186t82.5 -139t123 -87.5t150.5 -30.5q81 0 151.5 30.5t123 87.5t82.5 139t30 186q0 103 -30 185t-82.5 139t-123 87.5t-151.5 30.5zM1025 974q40 0 75.5 -17t61.5 -50t41 -82.5t15 -114.5
t-15 -114.5t-41 -82.5t-61.5 -50t-75.5 -17t-75 17t-61 50t-41 82.5t-15 114.5t15 114.5t41 82.5t61 50t75 17zM1025 1576q122 0 235 -31.5t211 -88.5t178 -137t137.5 -177t89 -209t31.5 -232q0 -121 -31.5 -233t-89 -209t-137.5 -177.5t-178 -137.5t-211 -88.5t-235 -31.5
t-235 31.5t-211 88.5t-178 137.5t-137.5 177.5t-89 209t-31.5 233q0 120 31.5 232t89 209t137.5 177t178 137t211 88.5t235 31.5z" />
    <glyph glyph-name="uni2573" unicode="&#x2573;" horiz-adv-x="2141" 
d="M2161 -243l-147 -148l-943 944l-944 -944l-147 148l943 943l-943 943l147 148l944 -943l943 943l147 -148l-943 -943z" />
    <glyph glyph-name="uni2573" unicode="&#x2715;" horiz-adv-x="2141" 
d="M2161 -243l-147 -148l-943 944l-944 -944l-147 148l943 943l-943 943l147 148l944 -943l943 943l147 -148l-943 -943z" />
    <glyph glyph-name="lfblock" unicode="&#x258c;" horiz-adv-x="1800" 
d="M900 1400v-1400h-700v1400h700z" />
    <glyph glyph-name="lfblock" unicode="&#x25ae;" horiz-adv-x="1800" 
d="M900 1400v-1400h-700v1400h700z" />
    <glyph glyph-name="filledbox" unicode="&#x25a0;" horiz-adv-x="1800" 
d="M1600 1400v-1400h-1400v1400h1400z" />
    <glyph glyph-name="H22073" unicode="&#x25a1;" horiz-adv-x="1800" 
d="M1600 1400v-1400h-1400v1400h1400zM394 194h1012v1012h-1012v-1012z" />
    <glyph glyph-name="triagup" unicode="&#x25b2;" horiz-adv-x="1800" 
d="M1720 0h-1640l820 1420z" />
    <glyph glyph-name="uni25B3" unicode="&#x25b3;" horiz-adv-x="1800" 
d="M1720 0h-1640l820 1420zM416 194h968l-484 838z" />
    <glyph glyph-name="uni25B4" unicode="&#x25b4;" horiz-adv-x="1200" 
d="M1015 308h-829l415 716z" />
    <glyph glyph-name="uni25B8" unicode="&#x25b8;" horiz-adv-x="1200" 
d="M303 250v830l717 -415z" />
    <glyph glyph-name="triagdn" unicode="&#x25bc;" horiz-adv-x="1800" 
d="M80 1400h1640l-820 -1420z" />
    <glyph glyph-name="uni25BD" unicode="&#x25bd;" horiz-adv-x="1800" 
d="M80 1400h1640l-820 -1420zM1384 1206h-968l484 -838z" />
    <glyph glyph-name="uni25BE" unicode="&#x25be;" horiz-adv-x="1200" 
d="M185 1023h829l-415 -716z" />
    <glyph glyph-name="uni25C2" unicode="&#x25c2;" horiz-adv-x="1200" 
d="M897 1080v-830l-717 415z" />
    <glyph glyph-name="uni25C6" unicode="&#x25c6;" horiz-adv-x="1800" 
d="M1638 700l-738 -738l-738 738l738 738z" />
    <glyph glyph-name="uni25C7" unicode="&#x25c7;" horiz-adv-x="1800" 
d="M1638 700l-738 -738l-738 738l738 738zM436 700l464 -464l464 464l-464 464z" />
    <glyph glyph-name="lozenge" unicode="&#x25ca;" horiz-adv-x="1547" 
d="M894 0h-242l-557 700l558 700h242l557 -700zM769 1206l-399 -505l408 -507l400 506z" />
    <glyph glyph-name="circle" unicode="&#x25cb;" horiz-adv-x="1800" 
d="M900 -39q-102 0 -196.5 26.5t-176.5 74.5t-149.5 115.5t-115.5 149.5t-74.5 176.5t-26.5 196.5t26.5 196.5t74.5 176.5t115.5 149.5t149.5 115.5t176.5 74.5t196.5 26.5t196.5 -26.5t176.5 -74.5t149.5 -115.5t115.5 -149.5t74.5 -176.5t26.5 -196.5t-26.5 -196.5
t-74.5 -176.5t-115.5 -149.5t-149.5 -115.5t-176.5 -74.5t-196.5 -26.5zM900 155q113 0 212 43t173 117t117 173t43 212t-43 212t-117 173t-173 117t-212 43t-212.5 -43t-173.5 -117t-116.5 -173t-42.5 -212t42.5 -212t116.5 -173t173.5 -117t212.5 -43z" />
    <glyph glyph-name="H18533" unicode="&#x25cf;" horiz-adv-x="1800" 
d="M900 -39q-102 0 -196.5 26.5t-176.5 74.5t-149.5 115.5t-115.5 149.5t-74.5 176.5t-26.5 196.5t26.5 196.5t74.5 176.5t115.5 149.5t149.5 115.5t176.5 74.5t196.5 26.5t196.5 -26.5t176.5 -74.5t149.5 -115.5t115.5 -149.5t74.5 -176.5t26.5 -196.5t-26.5 -196.5
t-74.5 -176.5t-115.5 -149.5t-149.5 -115.5t-176.5 -74.5t-196.5 -26.5z" />
    <glyph glyph-name="uni25D0" unicode="&#x25d0;" horiz-adv-x="1800" 
d="M900 -39q-102 0 -196.5 26.5t-176.5 74.5t-149.5 115.5t-115.5 149.5t-74.5 176.5t-26.5 196.5t26.5 196.5t74.5 176.5t115.5 149.5t149.5 115.5t176.5 74.5t196.5 26.5t196.5 -26.5t176.5 -74.5t149.5 -115.5t115.5 -149.5t74.5 -176.5t26.5 -196.5t-26.5 -196.5
t-74.5 -176.5t-115.5 -149.5t-149.5 -115.5t-176.5 -74.5t-196.5 -26.5zM900 155q113 0 212 43t173 117t117 173t43 212t-43 212t-117 173t-173 117t-212 43v-1090z" />
    <glyph glyph-name="uni25D6" unicode="&#x25d6;" horiz-adv-x="1800" 
d="M900 -39q-102 0 -196.5 26.5t-176.5 74.5t-149.5 115.5t-115.5 149.5t-74.5 176.5t-26.5 196.5t26.5 196.5t74.5 176.5t115.5 149.5t149.5 115.5t176.5 74.5t196.5 26.5v-1478z" />
    <glyph glyph-name="uni25E7" unicode="&#x25e7;" horiz-adv-x="1800" 
d="M1600 1400v-1400h-1400v1400h1400zM900 194h506v1012h-506v-1012z" />
    <glyph glyph-name="uni2610" unicode="&#x2610;" horiz-adv-x="2200" 
d="M1947 1547v-1694h-1694v1694h1694zM413 13h1374v1374h-1374v-1374z" />
    <glyph glyph-name="uni2611" unicode="&#x2611;" horiz-adv-x="2200" 
d="M1947 1547v-1694h-1694v1694h1694zM413 13h1374v1374h-1374v-1374zM1655 1083l-669 -918l-418 506l123 102l287 -347l547 751z" />
    <glyph glyph-name="uni2612" unicode="&#x2612;" horiz-adv-x="2200" 
d="M1947 -147h-1694v1694h1694v-1694zM413 1387v-1374h1374v1374h-1374zM986 700l-363 363l114 114l363 -364l363 364l114 -114l-364 -363l364 -363l-114 -114l-363 363l-363 -363l-114 114z" />
    <glyph glyph-name="heart" unicode="&#x2665;" horiz-adv-x="1800" 
d="M1202 1236q66 0 122.5 -24t97.5 -66t64 -99.5t23 -124.5q0 -99 -49.5 -203.5t-133 -208t-194 -201.5t-232.5 -184q-122 86 -232.5 184t-194 201.5t-133 208t-49.5 203.5q0 67 23 124.5t64 99.5t97.5 66t122.5 24q60 0 114.5 -19t96 -52t66.5 -76q23 -40 25 -84
q2 44 25 84q25 43 66.5 76t96 52t114.5 19z" />
    <glyph glyph-name="uni2713" unicode="&#x2713;" horiz-adv-x="2200" 
d="M1738 1198l-823 -1110l-453 494l140 129l298 -325l685 925z" />
    <glyph glyph-name="uni2717" unicode="&#x2717;" horiz-adv-x="2200" 
d="M1675 259l-134 -134l-441 441l-441 -441l-134 134l441 441l-441 441l134 134l441 -441l441 441l134 -134l-441 -441z" />
    <glyph glyph-name="uni2776" unicode="&#x2776;" horiz-adv-x="2050" 
d="M747 994v-184l225 83v-609h186v867zM1025 1576q122 0 235 -31.5t211 -88.5t178 -137t137.5 -177t89 -209t31.5 -232q0 -121 -31.5 -233t-89 -209t-137.5 -177.5t-178 -137.5t-211 -88.5t-235 -31.5t-235 31.5t-211 88.5t-178 137.5t-137.5 177.5t-89 209t-31.5 233
q0 120 31.5 232t89 209t137.5 177t178 137t211 88.5t235 31.5z" />
    <glyph glyph-name="uni2776" unicode="&#x278a;" horiz-adv-x="2050" 
d="M747 994v-184l225 83v-609h186v867zM1025 1576q122 0 235 -31.5t211 -88.5t178 -137t137.5 -177t89 -209t31.5 -232q0 -121 -31.5 -233t-89 -209t-137.5 -177.5t-178 -137.5t-211 -88.5t-235 -31.5t-235 31.5t-211 88.5t-178 137.5t-137.5 177.5t-89 209t-31.5 233
q0 120 31.5 232t89 209t137.5 177t178 137t211 88.5t235 31.5z" />
    <glyph glyph-name="uni2777" unicode="&#x2777;" horiz-adv-x="2050" 
d="M836 888q16 17 34 33t39 28t45.5 19t54.5 7q57 0 92 -31.5t35 -82.5q0 -37 -18 -70t-52 -65l-312 -296v-146h596v173h-328l173 163q28 26 52.5 54t43 59t29 65.5t10.5 75.5q0 63 -21.5 114t-61.5 88t-96 57t-126 20q-63 0 -112 -14.5t-87.5 -36.5t-66 -48t-46.5 -50z
M1025 1576q122 0 235 -31.5t211 -88.5t178 -137t137.5 -177t89 -209t31.5 -232q0 -121 -31.5 -233t-89 -209t-137.5 -177.5t-178 -137.5t-211 -88.5t-235 -31.5t-235 31.5t-211 88.5t-178 137.5t-137.5 177.5t-89 209t-31.5 233q0 120 31.5 232t89 209t137.5 177t178 137
t211 88.5t235 31.5z" />
    <glyph glyph-name="uni2777" unicode="&#x278b;" horiz-adv-x="2050" 
d="M836 888q16 17 34 33t39 28t45.5 19t54.5 7q57 0 92 -31.5t35 -82.5q0 -37 -18 -70t-52 -65l-312 -296v-146h596v173h-328l173 163q28 26 52.5 54t43 59t29 65.5t10.5 75.5q0 63 -21.5 114t-61.5 88t-96 57t-126 20q-63 0 -112 -14.5t-87.5 -36.5t-66 -48t-46.5 -50z
M1025 1576q122 0 235 -31.5t211 -88.5t178 -137t137.5 -177t89 -209t31.5 -232q0 -121 -31.5 -233t-89 -209t-137.5 -177.5t-178 -137.5t-211 -88.5t-235 -31.5t-235 31.5t-211 88.5t-178 137.5t-137.5 177.5t-89 209t-31.5 233q0 120 31.5 232t89 209t137.5 177t178 137
t211 88.5t235 31.5z" />
    <glyph glyph-name="uni2778" unicode="&#x2778;" horiz-adv-x="2050" 
d="M1025 1576q122 0 235 -31.5t211 -88.5t178 -137t137.5 -177t89 -209t31.5 -232q0 -121 -31.5 -233t-89 -209t-137.5 -177.5t-178 -137.5t-211 -88.5t-235 -31.5t-235 31.5t-211 88.5t-178 137.5t-137.5 177.5t-89 209t-31.5 233q0 120 31.5 232t89 209t137.5 177t178 137
t211 88.5t235 31.5zM1016 1153q-107 0 -180.5 -36.5t-120.5 -93.5l113 -120q28 32 72.5 57.5t106.5 25.5q60 0 98.5 -24t38.5 -70q0 -24 -11.5 -42t-31 -30.5t-46 -18.5t-57.5 -6h-104v-161h103q34 0 64 -6.5t52.5 -19.5t35.5 -32t13 -44t-11.5 -43.5t-31.5 -31t-47 -18.5
t-58 -6q-56 0 -107.5 21t-89.5 60l-107 -121q51 -60 131 -92.5t181 -32.5q64 0 124.5 15.5t106.5 47t74 78.5t28 111q0 69 -40.5 118.5t-112.5 75.5q63 26 98.5 75t35.5 118q0 56 -23.5 101.5t-65.5 77.5t-101 49.5t-130 17.5z" />
    <glyph glyph-name="uni2778" unicode="&#x278c;" horiz-adv-x="2050" 
d="M1025 1576q122 0 235 -31.5t211 -88.5t178 -137t137.5 -177t89 -209t31.5 -232q0 -121 -31.5 -233t-89 -209t-137.5 -177.5t-178 -137.5t-211 -88.5t-235 -31.5t-235 31.5t-211 88.5t-178 137.5t-137.5 177.5t-89 209t-31.5 233q0 120 31.5 232t89 209t137.5 177t178 137
t211 88.5t235 31.5zM1016 1153q-107 0 -180.5 -36.5t-120.5 -93.5l113 -120q28 32 72.5 57.5t106.5 25.5q60 0 98.5 -24t38.5 -70q0 -24 -11.5 -42t-31 -30.5t-46 -18.5t-57.5 -6h-104v-161h103q34 0 64 -6.5t52.5 -19.5t35.5 -32t13 -44t-11.5 -43.5t-31.5 -31t-47 -18.5
t-58 -6q-56 0 -107.5 21t-89.5 60l-107 -121q51 -60 131 -92.5t181 -32.5q64 0 124.5 15.5t106.5 47t74 78.5t28 111q0 69 -40.5 118.5t-112.5 75.5q63 26 98.5 75t35.5 118q0 56 -23.5 101.5t-65.5 77.5t-101 49.5t-130 17.5z" />
    <glyph glyph-name="uni2779" unicode="&#x2779;" horiz-adv-x="2050" 
d="M1025 1576q122 0 235 -31.5t211 -88.5t178 -137t137.5 -177t89 -209t31.5 -232q0 -121 -31.5 -233t-89 -209t-137.5 -177.5t-178 -137.5t-211 -88.5t-235 -31.5t-235 31.5t-211 88.5t-178 137.5t-137.5 177.5t-89 209t-31.5 233q0 120 31.5 232t89 209t137.5 177t178 137
t211 88.5t235 31.5zM1053 832v-226h-170l285 531h-206l-302 -572v-132h393v-149h186v149h118v173h-118v226h-186z" />
    <glyph glyph-name="uni2779" unicode="&#x278d;" horiz-adv-x="2050" 
d="M1025 1576q122 0 235 -31.5t211 -88.5t178 -137t137.5 -177t89 -209t31.5 -232q0 -121 -31.5 -233t-89 -209t-137.5 -177.5t-178 -137.5t-211 -88.5t-235 -31.5t-235 31.5t-211 88.5t-178 137.5t-137.5 177.5t-89 209t-31.5 233q0 120 31.5 232t89 209t137.5 177t178 137
t211 88.5t235 31.5zM1053 832v-226h-170l285 531h-206l-302 -572v-132h393v-149h186v149h118v173h-118v226h-186z" />
    <glyph glyph-name="uni277A" unicode="&#x277a;" horiz-adv-x="2050" 
d="M792 1138l-10 -484h214q49 0 81.5 -8.5t52 -22.5t28 -33.5t8.5 -40.5q0 -48 -34 -79t-103 -31q-32 0 -63 7t-59.5 19t-53 27.5t-41.5 32.5l-99 -134q55 -56 135.5 -89.5t181.5 -33.5q70 0 130 20t104.5 58t70 92.5t25.5 123.5q0 55 -20 102t-59.5 81t-98 53t-135.5 19
h-96l4 149h353v172h-516zM1025 1576q122 0 235 -31.5t211 -88.5t178 -137t137.5 -177t89 -209t31.5 -232q0 -121 -31.5 -233t-89 -209t-137.5 -177.5t-178 -137.5t-211 -88.5t-235 -31.5t-235 31.5t-211 88.5t-178 137.5t-137.5 177.5t-89 209t-31.5 233q0 120 31.5 232
t89 209t137.5 177t178 137t211 88.5t235 31.5z" />
    <glyph glyph-name="uni277A" unicode="&#x278e;" horiz-adv-x="2050" 
d="M792 1138l-10 -484h214q49 0 81.5 -8.5t52 -22.5t28 -33.5t8.5 -40.5q0 -48 -34 -79t-103 -31q-32 0 -63 7t-59.5 19t-53 27.5t-41.5 32.5l-99 -134q55 -56 135.5 -89.5t181.5 -33.5q70 0 130 20t104.5 58t70 92.5t25.5 123.5q0 55 -20 102t-59.5 81t-98 53t-135.5 19
h-96l4 149h353v172h-516zM1025 1576q122 0 235 -31.5t211 -88.5t178 -137t137.5 -177t89 -209t31.5 -232q0 -121 -31.5 -233t-89 -209t-137.5 -177.5t-178 -137.5t-211 -88.5t-235 -31.5t-235 31.5t-211 88.5t-178 137.5t-137.5 177.5t-89 209t-31.5 233q0 120 31.5 232
t89 209t137.5 177t178 137t211 88.5t235 31.5z" />
    <glyph glyph-name="uni277B" unicode="&#x277b;" horiz-adv-x="2050" 
d="M1025 1576q122 0 235 -31.5t211 -88.5t178 -137t137.5 -177t89 -209t31.5 -232q0 -121 -31.5 -233t-89 -209t-137.5 -177.5t-178 -137.5t-211 -88.5t-235 -31.5t-235 31.5t-211 88.5t-178 137.5t-137.5 177.5t-89 209t-31.5 233q0 120 31.5 232t89 209t137.5 177t178 137
t211 88.5t235 31.5zM1001 1138l-238 -345q-42 -60 -64 -117t-22 -117q0 -63 25.5 -116t70.5 -92t106.5 -61t133.5 -22q71 0 132.5 22t106.5 61.5t70.5 94t25.5 118.5q0 59 -22.5 111t-63.5 90.5t-97.5 60.5t-125.5 22q-7 0 -13.5 -0.5t-13.5 -1.5l214 292h-225zM1013 689
q30 0 55.5 -9.5t44.5 -26.5t30 -40t11 -51t-11 -51t-30 -40t-44.5 -26.5t-55.5 -9.5t-56 9.5t-44.5 26t-29.5 40t-11 51.5t11 51t29.5 40t44.5 26.5t56 9.5z" />
    <glyph glyph-name="uni277B" unicode="&#x278f;" horiz-adv-x="2050" 
d="M1025 1576q122 0 235 -31.5t211 -88.5t178 -137t137.5 -177t89 -209t31.5 -232q0 -121 -31.5 -233t-89 -209t-137.5 -177.5t-178 -137.5t-211 -88.5t-235 -31.5t-235 31.5t-211 88.5t-178 137.5t-137.5 177.5t-89 209t-31.5 233q0 120 31.5 232t89 209t137.5 177t178 137
t211 88.5t235 31.5zM1001 1138l-238 -345q-42 -60 -64 -117t-22 -117q0 -63 25.5 -116t70.5 -92t106.5 -61t133.5 -22q71 0 132.5 22t106.5 61.5t70.5 94t25.5 118.5q0 59 -22.5 111t-63.5 90.5t-97.5 60.5t-125.5 22q-7 0 -13.5 -0.5t-13.5 -1.5l214 292h-225zM1013 689
q30 0 55.5 -9.5t44.5 -26.5t30 -40t11 -51t-11 -51t-30 -40t-44.5 -26.5t-55.5 -9.5t-56 9.5t-44.5 26t-29.5 40t-11 51.5t11 51t29.5 40t44.5 26.5t56 9.5z" />
    <glyph glyph-name="uni277C" unicode="&#x277c;" horiz-adv-x="2050" 
d="M737 1138v-173h413l-361 -681h221l360 708v146h-633zM1025 1576q122 0 235 -31.5t211 -88.5t178 -137t137.5 -177t89 -209t31.5 -232q0 -121 -31.5 -233t-89 -209t-137.5 -177.5t-178 -137.5t-211 -88.5t-235 -31.5t-235 31.5t-211 88.5t-178 137.5t-137.5 177.5t-89 209
t-31.5 233q0 120 31.5 232t89 209t137.5 177t178 137t211 88.5t235 31.5z" />
    <glyph glyph-name="uni277C" unicode="&#x2790;" horiz-adv-x="2050" 
d="M737 1138v-173h413l-361 -681h221l360 708v146h-633zM1025 1576q122 0 235 -31.5t211 -88.5t178 -137t137.5 -177t89 -209t31.5 -232q0 -121 -31.5 -233t-89 -209t-137.5 -177.5t-178 -137.5t-211 -88.5t-235 -31.5t-235 31.5t-211 88.5t-178 137.5t-137.5 177.5t-89 209
t-31.5 233q0 120 31.5 232t89 209t137.5 177t178 137t211 88.5t235 31.5z" />
    <glyph glyph-name="uni277D" unicode="&#x277d;" horiz-adv-x="2050" 
d="M1025 1576q122 0 235 -31.5t211 -88.5t178 -137t137.5 -177t89 -209t31.5 -232q0 -121 -31.5 -233t-89 -209t-137.5 -177.5t-178 -137.5t-211 -88.5t-235 -31.5t-235 31.5t-211 88.5t-178 137.5t-137.5 177.5t-89 209t-31.5 233q0 120 31.5 232t89 209t137.5 177t178 137
t211 88.5t235 31.5zM1025 1153q-67 0 -126 -17t-103.5 -48.5t-70.5 -77t-26 -103.5q0 -36 10.5 -65.5t29 -53.5t44 -42.5t54.5 -31.5q-33 -12 -62 -30t-50.5 -42.5t-34 -55.5t-12.5 -70q0 -58 27.5 -104t74.5 -78t110.5 -49t134.5 -17t134.5 17t111 49t75 78t27.5 104
q0 39 -12.5 70t-34 55.5t-51 42.5t-62.5 31q29 13 54.5 31t44 42t29 53.5t10.5 65.5q0 58 -26 103.5t-70.5 77t-103.5 48.5t-126 17zM1025 642q29 0 55.5 -7t46.5 -20.5t32 -33t12 -45.5t-12 -45t-32 -32.5t-46.5 -20t-55.5 -6.5t-55 6.5t-46 20t-32 32.5t-12 45t12 45.5
t32 33t46 20.5t55 7zM1025 988q27 0 50.5 -6.5t41 -18.5t27.5 -30.5t10 -42.5t-10 -42.5t-27.5 -31.5t-41 -19.5t-50.5 -6.5q-26 0 -49.5 6.5t-41 19.5t-27.5 31.5t-10 42.5t10 42.5t27.5 30.5t41 18.5t49.5 6.5z" />
    <glyph glyph-name="uni277D" unicode="&#x2791;" horiz-adv-x="2050" 
d="M1025 1576q122 0 235 -31.5t211 -88.5t178 -137t137.5 -177t89 -209t31.5 -232q0 -121 -31.5 -233t-89 -209t-137.5 -177.5t-178 -137.5t-211 -88.5t-235 -31.5t-235 31.5t-211 88.5t-178 137.5t-137.5 177.5t-89 209t-31.5 233q0 120 31.5 232t89 209t137.5 177t178 137
t211 88.5t235 31.5zM1025 1153q-67 0 -126 -17t-103.5 -48.5t-70.5 -77t-26 -103.5q0 -36 10.5 -65.5t29 -53.5t44 -42.5t54.5 -31.5q-33 -12 -62 -30t-50.5 -42.5t-34 -55.5t-12.5 -70q0 -58 27.5 -104t74.5 -78t110.5 -49t134.5 -17t134.5 17t111 49t75 78t27.5 104
q0 39 -12.5 70t-34 55.5t-51 42.5t-62.5 31q29 13 54.5 31t44 42t29 53.5t10.5 65.5q0 58 -26 103.5t-70.5 77t-103.5 48.5t-126 17zM1025 642q29 0 55.5 -7t46.5 -20.5t32 -33t12 -45.5t-12 -45t-32 -32.5t-46.5 -20t-55.5 -6.5t-55 6.5t-46 20t-32 32.5t-12 45t12 45.5
t32 33t46 20.5t55 7zM1025 988q27 0 50.5 -6.5t41 -18.5t27.5 -30.5t10 -42.5t-10 -42.5t-27.5 -31.5t-41 -19.5t-50.5 -6.5q-26 0 -49.5 6.5t-41 19.5t-27.5 31.5t-10 42.5t10 42.5t27.5 30.5t41 18.5t49.5 6.5z" />
    <glyph glyph-name="uni277E" unicode="&#x277e;" horiz-adv-x="2050" 
d="M1025 1576q122 0 235 -31.5t211 -88.5t178 -137t137.5 -177t89 -209t31.5 -232q0 -121 -31.5 -233t-89 -209t-137.5 -177.5t-178 -137.5t-211 -88.5t-235 -31.5t-235 31.5t-211 88.5t-178 137.5t-137.5 177.5t-89 209t-31.5 233q0 120 31.5 232t89 209t137.5 177t178 137
t211 88.5t235 31.5zM1046 284l238 344q42 60 64 117.5t22 117.5q0 63 -25.5 116t-70.5 91.5t-106.5 60.5t-132.5 22q-72 0 -133.5 -22t-106.5 -61.5t-70.5 -93.5t-25.5 -118q0 -60 22.5 -111.5t63.5 -90t97.5 -60.5t125.5 -22h13q7 0 14 1l-214 -291h225zM1035 733
q-30 0 -56 9.5t-45 26.5t-30 40t-11 51t11 51t30 40t45 26.5t56 9.5t55.5 -9.5t44 -26.5t29.5 -40t11 -51t-11 -51t-29.5 -40t-44 -26.5t-55.5 -9.5z" />
    <glyph glyph-name="uni277E" unicode="&#x2792;" horiz-adv-x="2050" 
d="M1025 1576q122 0 235 -31.5t211 -88.5t178 -137t137.5 -177t89 -209t31.5 -232q0 -121 -31.5 -233t-89 -209t-137.5 -177.5t-178 -137.5t-211 -88.5t-235 -31.5t-235 31.5t-211 88.5t-178 137.5t-137.5 177.5t-89 209t-31.5 233q0 120 31.5 232t89 209t137.5 177t178 137
t211 88.5t235 31.5zM1046 284l238 344q42 60 64 117.5t22 117.5q0 63 -25.5 116t-70.5 91.5t-106.5 60.5t-132.5 22q-72 0 -133.5 -22t-106.5 -61.5t-70.5 -93.5t-25.5 -118q0 -60 22.5 -111.5t63.5 -90t97.5 -60.5t125.5 -22h13q7 0 14 1l-214 -291h225zM1035 733
q-30 0 -56 9.5t-45 26.5t-30 40t-11 51t11 51t30 40t45 26.5t56 9.5t55.5 -9.5t44 -26.5t29.5 -40t11 -51t-11 -51t-29.5 -40t-44 -26.5t-55.5 -9.5z" />
    <glyph glyph-name="uni2B51" unicode="&#x2b51;" horiz-adv-x="1800" 
d="M1668 893l-474 -345l182 -559l-475 346l-474 -346l181 559l-476 345h588l181 559l181 -559h586z" />
    <glyph glyph-name="uni2B52" unicode="&#x2b52;" horiz-adv-x="1800" 
d="M1668 893l-474 -345l182 -559l-475 346l-474 -346l181 559l-476 345h588l181 559l181 -559h586zM901 1036l-88 -271h-286l231 -168l-88 -272l231 168l231 -168l-88 272l231 168h-286z" />
    <glyph glyph-name="uni2E17" unicode="&#x2e17;" horiz-adv-x="920" 
d="M747 732l-574 -209v184l574 209v-184zM747 405l-574 -209v184l574 209v-184z" />
    <glyph glyph-name="uni2E38" unicode="&#x2e38;" horiz-adv-x="789" 
d="M481 1440v-431h213v-169h-213v-213h-173v213h-213v169h213v431h173z" />
    <glyph glyph-name="uniEA00" unicode="&#xea00;" horiz-adv-x="1800" 
d="M1668 893l-474 -345l182 -559l-475 346l-474 -346l181 559l-476 345h588l181 559l181 -559h586zM901 1036v-543l231 -168l-88 272l231 168h-286z" />
    <glyph glyph-name="uniEA01" unicode="&#xea01;" horiz-adv-x="1800" 
d="M427 -11l181 559l-476 345h588l181 559v-1117z" />
    <glyph glyph-name="uniFB00" unicode="&#xfb00;" horiz-adv-x="1668" 
d="M779 768h-328v-768h-210v768h-192v190h192v162q0 72 18.5 135t58 109.5t100 73.5t144.5 27q85 0 149 -20t118 -52l-74 -176q-37 21 -84 36t-95 15q-61 0 -93 -38t-32 -110v-162h328v-190zM1603 768h-328v-768h-210v768h-192v190h192v162q0 72 18.5 135t58 109.5t100 73.5
t144.5 27q85 0 149 -20t118 -52l-74 -176q-37 21 -84 36t-95 15q-61 0 -93 -38t-32 -110v-162h328v-190z" />
    <glyph glyph-name="uniFB01" unicode="&#xfb01;" horiz-adv-x="1382" 
d="M779 768h-328v-768h-210v768h-192v190h192v162q0 72 18.5 135t58 109.5t100 73.5t144.5 27q85 0 149 -20t118 -52l-74 -176q-37 21 -84 36t-95 15q-61 0 -93 -38t-32 -110v-162h328v-190zM1218 0h-210v958h210v-958zM1112 1437q31 0 58 -11.5t47 -31.5t31.5 -47t11.5 -58
t-11.5 -58t-31.5 -46.5t-47 -30.5t-58 -11t-58 11t-46.5 30.5t-30.5 46.5t-11 58t11 58t30.5 47t46.5 31.5t58 11.5z" />
    <glyph glyph-name="uniFB02" unicode="&#xfb02;" horiz-adv-x="1382" 
d="M779 768h-328v-768h-210v768h-192v190h192v162q0 72 18.5 135t58 109.5t100 73.5t144.5 27q85 0 149 -20t118 -52l-74 -176q-37 21 -84 36t-95 15q-61 0 -93 -38t-32 -110v-162h328v-190zM1218 0h-210v1440h210v-1440z" />
    <glyph glyph-name="uniFB03" unicode="&#xfb03;" horiz-adv-x="2206" 
d="M779 768h-328v-768h-210v768h-192v190h192v162q0 72 18.5 135t58 109.5t100 73.5t144.5 27q85 0 149 -20t118 -52l-74 -176q-37 21 -84 36t-95 15q-61 0 -93 -38t-32 -110v-162h328v-190zM1603 768h-328v-768h-210v768h-192v190h192v162q0 72 18.5 135t58 109.5t100 73.5
t144.5 27q85 0 149 -20t118 -52l-74 -176q-37 21 -84 36t-95 15q-61 0 -93 -38t-32 -110v-162h328v-190zM2042 0h-210v958h210v-958zM1936 1437q31 0 58 -11.5t47 -31.5t31.5 -47t11.5 -58t-11.5 -58t-31.5 -46.5t-47 -30.5t-58 -11t-58 11t-46.5 30.5t-30.5 46.5t-11 58
t11 58t30.5 47t46.5 31.5t58 11.5z" />
    <glyph glyph-name="uniFB04" unicode="&#xfb04;" horiz-adv-x="2206" 
d="M779 768h-328v-768h-210v768h-192v190h192v162q0 72 18.5 135t58 109.5t100 73.5t144.5 27q85 0 149 -20t118 -52l-74 -176q-37 21 -84 36t-95 15q-61 0 -93 -38t-32 -110v-162h328v-190zM1603 768h-328v-768h-210v768h-192v190h192v162q0 72 18.5 135t58 109.5t100 73.5
t144.5 27q85 0 149 -20t118 -52l-74 -176q-37 21 -84 36t-95 15q-61 0 -93 -38t-32 -110v-162h328v-190zM2042 0h-210v1440h210v-1440z" />
    <glyph glyph-name="uniFB05" unicode="&#xfb05;" horiz-adv-x="1463" 
d="M1372 768h-367v-417q0 -48 12 -82t32.5 -55.5t48 -31.5t59.5 -10q49 0 99.5 19t93.5 46l83 -167q-58 -39 -130.5 -67t-163.5 -28q-163 0 -253.5 90.5t-90.5 281.5v421h-187v190h187v67q0 67 -16.5 113t-45.5 75t-68 42t-84 13t-84 -13t-68 -42t-45.5 -75t-16.5 -113
v-1025h-210v1039q0 114 36.5 194.5t96 132t135.5 75.5t156 24t156 -24t135.5 -75.5t96 -132t36.5 -194.5v-81h367v-190z" />
    <glyph glyph-name="uniFB06" unicode="&#xfb06;" horiz-adv-x="1919" 
d="M816 718q-22 13 -54 27.5t-71 26.5t-82.5 20t-88.5 8q-86 0 -133.5 -31.5t-47.5 -82.5q0 -25 12.5 -42t33.5 -28t50 -17.5t62 -11.5l99 -15q157 -23 245 -91.5t88 -191.5q0 -69 -29.5 -126.5t-85 -99t-137 -64.5t-184.5 -23q-37 0 -86 4.5t-104 18t-112 37.5t-109 63
l97 157q26 -20 56.5 -37.5t69 -31t85 -21.5t105.5 -8q108 0 163 31.5t55 85.5q0 41 -40 67.5t-126 38.5l-100 13q-160 22 -242.5 93.5t-82.5 187.5q0 71 27.5 128t79 96.5t124.5 61t165 21.5q113 0 213 -26.5t175 -74.5zM1828 768h-367v-417q0 -48 12 -82t32.5 -55.5
t48 -31.5t59.5 -10q49 0 99.5 19t93.5 46l83 -167q-58 -39 -130.5 -67t-163.5 -28q-163 0 -253.5 90.5t-90.5 281.5v421h-191v190h191v290h210v-290h367v-190z" />
    <glyph glyph-name="uniFEFF" unicode="&#xfeff;" horiz-adv-x="0" 
 />
    <glyph glyph-name="glyph2" horiz-adv-x="540" 
 />
    <glyph glyph-name="glyph5" horiz-adv-x="805" 
d="M410 1282q72 0 132 -26t103 -72.5t67 -112t24 -144.5q0 -15 -0.5 -31.5t-2.5 -28.5h-485q7 -39 24 -67t41 -46.5t53.5 -27t62.5 -8.5q46 0 93 17.5t85 49.5l97 -114q-59 -53 -130.5 -77t-154.5 -24q-77 0 -141.5 25.5t-111 72t-72 112t-25.5 145.5q0 79 25 145t70 113
t107.5 73t138.5 26zM408 1132q-69 0 -108.5 -39t-51.5 -105h314q-13 69 -52 106.5t-102 37.5z" />
    <glyph glyph-name="glyph9" horiz-adv-x="730" 
d="M590 1081q-19 10 -44 20t-53 18t-58 13t-59 5q-54 0 -82 -18.5t-28 -48.5q0 -15 8.5 -25.5t23.5 -17t35 -11t43 -7.5l63 -9q110 -17 170 -66t60 -136q0 -51 -21 -93t-60.5 -72t-97.5 -46t-131 -16q-32 0 -70 3.5t-77 12.5t-78 25t-73 40l71 131q42 -29 96 -48t133 -19
q66 0 99 18.5t33 50.5q0 26 -27 41.5t-87 23.5l-59 8q-233 33 -233 203q0 52 19.5 93t56.5 69.5t90 43.5t119 15q81 0 148.5 -17t131.5 -50z" />
    <glyph glyph-name="S.aalt" horiz-adv-x="1121" 
d="M900 797q-67 40 -146 65t-168 25q-48 0 -89 -9t-70.5 -26t-46 -41t-16.5 -55q0 -29 16 -49.5t45.5 -34.5t72 -23.5t96.5 -16.5l67 -10q72 -11 136 -32t112.5 -56.5t77 -86.5t28.5 -121q0 -87 -37 -152t-99 -108t-143.5 -64t-170.5 -21q-60 0 -123 9t-123 26t-114.5 43
t-98.5 60l109 167q30 -23 69 -43.5t84.5 -36.5t95.5 -25t101 -9q48 0 90 8.5t73 25.5t49 42t18 58q0 27 -16.5 47t-47 34.5t-75 24t-100.5 17.5l-73 10q-70 10 -131.5 31t-107.5 57t-72.5 88t-26.5 123q0 81 34 144t93.5 107t140 67t173.5 23q65 0 121.5 -8t107 -23t96 -36
t89.5 -47z" />
    <glyph glyph-name="glyph15" horiz-adv-x="827" 
d="M651 855q-45 26 -100 44.5t-120 18.5q-66 0 -107.5 -23.5t-41.5 -65.5q0 -21 12.5 -35.5t35 -23.5t53 -15t65.5 -11l41 -5q56 -7 103.5 -23t82 -43.5t53.5 -66.5t19 -91q0 -69 -28 -119.5t-74.5 -83.5t-107 -49t-125.5 -16q-91 0 -179.5 24t-152.5 73l84 139
q44 -32 108 -56t142 -24q32 0 59.5 6t48 17.5t32 28t11.5 38.5q0 41 -42 58t-124 28l-48 6q-56 7 -102 23.5t-79 44t-51 68t-18 94.5q0 60 24.5 108t68 81.5t103 51.5t129.5 18q48 0 89 -5.5t77.5 -15.5t69.5 -24.5t65 -32.5z" />
    <glyph glyph-name="eight.oldstyle" horiz-adv-x="1225" 
d="M613 1425q99 0 186 -29t152 -82t102.5 -127t37.5 -165q0 -59 -16 -107.5t-44.5 -87.5t-66.5 -69t-82 -52q50 -21 94 -51t76.5 -70t51.5 -91t19 -113q0 -92 -40.5 -166.5t-109.5 -128t-162 -82.5t-198 -29t-198 29t-162.5 82.5t-110 128t-40.5 166.5q0 62 19 113t51.5 91
t76.5 70t94 51q-44 22 -82 52t-66 69t-44 87.5t-16 107.5q0 91 37.5 165t102.5 127t152 82t186 29zM613 608q-59 0 -111 -15.5t-91 -44t-61.5 -69t-22.5 -89.5t22.5 -88.5t61.5 -67.5t91 -43.5t111 -15.5t111 15.5t90.5 43.5t61 67.5t22.5 88.5t-22.5 89.5t-61 69t-90.5 44
t-111 15.5zM613 1224q-53 0 -99 -15t-80.5 -42.5t-54.5 -66.5t-20 -86q0 -50 20 -89.5t54.5 -68t80.5 -43.5t99 -15q52 0 98 15t80.5 43.5t54.5 68t20 89.5q0 47 -20 86t-54.5 66.5t-80.5 42.5t-98 15z" />
    <glyph glyph-name="A.aalt" horiz-adv-x="1175" 
d="M1147 0h-222l-99 249h-484l-98 -249h-216l433 1060h254zM418 440h333l-167 420z" />
    <glyph glyph-name="AE.aalt" horiz-adv-x="1859" 
d="M1717 0h-820v224h-457l-169 -224h-249l811 1060h877v-191h-605v-239h579v-191h-579v-248h612v-191zM897 416v411l-311 -411h311z" />
    <glyph glyph-name="B.aalt" horiz-adv-x="1170" 
d="M622 1060q94 0 171 -17.5t132 -53.5t85 -91.5t30 -131.5q0 -40 -12 -75.5t-34 -65t-51.5 -51t-64.5 -33.5q38 -12 72 -34.5t59.5 -53.5t40 -69t14.5 -81q0 -77 -28 -133.5t-81.5 -94.5t-131 -56.5t-175.5 -18.5h-471v1060h445zM385 442v-259h253q48 0 87 6t66 20.5t42 40
t15 64.5q0 38 -15 62.5t-42 39t-66 20.5t-87 6h-253zM385 876v-251h231q43 0 80.5 5t65.5 19t44.5 38.5t16.5 64.5q0 38 -16.5 62.5t-45 38t-66 18.5t-80.5 5h-230z" />
    <glyph glyph-name="glyph31" horiz-adv-x="847" 
d="M446 1060q144 0 224 -55t80 -168q0 -60 -32 -104.5t-82 -64.5q27 -9 51 -26t41.5 -40t28 -51.5t10.5 -59.5q0 -114 -77 -171.5t-224 -57.5h-352v798h332zM284 590v-181h173q62 0 98 19t36 72q0 52 -35.5 71t-98.5 19h-173zM284 913v-176h158q28 0 52 4t41.5 13.5t27.5 27
t10 44.5q0 26 -10 43t-27.5 26.5t-41.5 13.5t-52 4h-158z" />
    <glyph glyph-name="E.aalt" horiz-adv-x="1139" 
d="M997 0h-820v1060h813v-191h-605v-239h579v-191h-579v-248h612v-191z" />
    <glyph glyph-name="glyph33" horiz-adv-x="813" 
d="M716 262h-602v798h598v-155h-428v-163h406v-155h-406v-170h432v-155z" />
    <glyph glyph-name="oe.aalt" horiz-adv-x="1824" 
d="M1682 0h-1002q-130 0 -236 38t-181 107t-116 167t-41 218t41 217.5t116 167t181 107.5t236 38h995v-191h-605v-239h579v-191h-579v-248h612v-191zM323 530q0 -74 22 -135.5t67 -106t112.5 -69.5t157.5 -25h180v672h-180q-90 0 -157.5 -25t-112.5 -70t-67 -106.5
t-22 -134.5z" />
    <glyph glyph-name="F.aalt" horiz-adv-x="1088" 
d="M945 432h-560v-432h-208v1060h805v-191h-597v-246h560v-191z" />
    <glyph glyph-name="g.aalt" horiz-adv-x="1288" 
d="M667 1079q128 0 230.5 -43t174.5 -120l-150 -146q-46 52 -111.5 82.5t-148.5 30.5q-74 0 -136.5 -26t-108 -72.5t-71 -111.5t-25.5 -143q0 -82 26 -147.5t72 -112t107 -71.5t132 -25q130 0 206.5 62t99.5 171h-272v175h487q3 -30 3 -58q0 -115 -39 -214t-108 -172
t-165 -115t-210 -42q-109 0 -209 37.5t-176.5 108t-122.5 172.5t-46 231q0 120 42 221t116.5 173.5t177.5 113.5t225 41z" />
    <glyph glyph-name="H.aalt" horiz-adv-x="1304" 
d="M385 631h534v429h208v-1060h-208v437h-534v-437h-208v1060h208v-429z" />
    <glyph glyph-name="glyph40" horiz-adv-x="935" 
d="M284 744h367v316h170v-798h-170v323h-367v-323h-170v798h170v-316z" />
    <glyph glyph-name="C.aalt" horiz-adv-x="1202" 
d="M664 1079q74 0 142 -16t127.5 -46t107.5 -74t81 -101l-176 -108q-44 70 -117.5 108.5t-165.5 38.5q-74 0 -136 -25.5t-107.5 -72t-71 -111t-25.5 -142.5q0 -81 26.5 -145.5t72 -110.5t107.5 -70.5t134 -24.5q91 0 165 38t120 108l168 -120q-72 -106 -188 -165.5
t-264 -59.5q-123 0 -225.5 41t-176.5 114.5t-115 174.5t-41 220t41 220t115 174t176.5 114t225.5 41z" />
    <glyph glyph-name="glyph45" horiz-adv-x="763" 
d="M428 1282q83 0 151 -31t115 -91l-122 -107q-32 33 -67.5 50.5t-80.5 17.5q-38 0 -70.5 -14t-56.5 -39.5t-37.5 -61.5t-13.5 -80t13.5 -79.5t37.5 -61t56 -39.5t70 -14q45 0 84 19t68 50l119 -109q-48 -59 -115.5 -90.5t-150.5 -31.5q-81 0 -147 27t-113 74.5t-73 112.5
t-26 142t26 142t73 112.5t113 74.5t147 27z" />
    <glyph glyph-name="D.aalt" horiz-adv-x="1272" 
d="M614 1060q125 0 227 -38t174 -107.5t111.5 -167t39.5 -217.5t-39.5 -218t-111.5 -167t-174 -107t-227 -38h-437v1060h437zM384 866v-672h228q85 0 148.5 25t105.5 70t63 106.5t21 134.5q0 74 -21 135.5t-63 106t-105.5 69.5t-148.5 25h-228z" />
    <glyph glyph-name="glyph50" horiz-adv-x="942" 
d="M448 1060q93 0 169.5 -28.5t131 -80.5t84 -126t29.5 -164t-29.5 -164t-84 -126t-131 -80.5t-169.5 -28.5h-334v798h334zM284 902v-482h161q60 0 105 18t75 50.5t44.5 76.5t14.5 96q0 53 -14.5 97t-44.5 76t-75 50t-105 18h-161z" />
    <glyph glyph-name="Eth.aalt" horiz-adv-x="1385" 
d="M727 1060q125 0 227 -38t174 -107.5t111.5 -167t39.5 -217.5t-39.5 -218t-111.5 -167t-174 -107t-227 -38h-437v438h-184v190h184v432h437zM766 438h-269v-244h228q85 0 148.5 25t105.5 70t63 106.5t21 134.5q0 74 -21 135.5t-63 106t-105.5 69.5t-148.5 25h-228v-238
h269v-190z" />
    <glyph glyph-name="I.aalt" horiz-adv-x="562" 
d="M385 0h-208v1060h208v-1060z" />
    <glyph glyph-name="one.oldstyle" horiz-adv-x="779" 
d="M587 0h-212v798l-309 -99v209l521 179v-1087z" />
    <glyph glyph-name="one.tnum" horiz-adv-x="1200" 
d="M561 206v919l-376 -135v221l593 211v-1216h336v-206h-910v206h357z" />
    <glyph glyph-name="one.oldstyle.tnum" horiz-adv-x="1200" 
d="M547 205v609l-359 -105v214l571 164v-882l328 1v-206h-880v204z" />
    <glyph glyph-name="J.ss02" horiz-adv-x="847" 
d="M77 203q23 -5 48 -8t53 -3q123 0 193 80.5t70 244.5v883h226v-905q0 -126 -37 -223t-102.5 -163t-155 -100t-193.5 -34q-39 0 -74 4t-67 11z" />
    <glyph glyph-name="j.aalt" horiz-adv-x="945" 
d="M777 385q0 -99 -29.5 -174.5t-82 -126.5t-124.5 -77t-157 -26q-70 0 -125.5 13.5t-99 34.5t-75.5 47.5t-54 53.5l126 150q34 -41 87.5 -70.5t133.5 -29.5q91 0 141.5 54t50.5 170v656h208v-675z" />
    <glyph glyph-name="j.aalt.ss02" horiz-adv-x="709" 
d="M65 187q34 -7 76 -7q91 0 142 54t51 170v656h207v-675q0 -99 -29.5 -174.5t-81.5 -126.5t-124.5 -77t-157.5 -26q-60 0 -113 11z" />
    <glyph glyph-name="K.aalt" horiz-adv-x="1178" 
d="M385 629h112l374 431h263l-470 -517l505 -543h-273l-402 438h-109v-438h-208v1060h208v-431z" />
    <glyph glyph-name="L.aalt" horiz-adv-x="1013" 
d="M978 0h-801v1060h208v-866h593v-194z" />
    <glyph glyph-name="glyph68" horiz-adv-x="746" 
d="M699 262h-585v798h170v-639h415v-159z" />
    <glyph glyph-name="Lslash.aalt" horiz-adv-x="1101" 
d="M1066 0h-801v336l-159 -85v210l159 84v515h208v-404l343 183v-209l-343 -183v-253h593v-194z" />
    <glyph glyph-name="M.aalt" horiz-adv-x="1548" 
d="M1371 0h-208v810l-279 -708h-220l-279 703v-805h-208v1060h308l289 -720l288 720h309v-1060z" />
    <glyph glyph-name="glyph72" horiz-adv-x="1116" 
d="M1002 262h-170v582l-183 -506h-181l-184 503v-579h-170v798h246l198 -527l198 527h246v-798z" />
    <glyph glyph-name="N.aalt" horiz-adv-x="1333" 
d="M1156 0h-193l-578 713v-713h-208v1060h194l578 -713v713h207v-1060z" />
    <glyph glyph-name="Oslash.aalt" horiz-adv-x="1329" 
d="M665 1079q95 0 177 -25t150 -70l103 103l126 -126l-101 -101q50 -68 76.5 -151.5t26.5 -178.5q0 -119 -41 -219.5t-115 -174t-176.5 -115t-225.5 -41.5q-96 0 -178.5 25t-150.5 71l-101 -101l-127 125l100 100q-49 68 -75.5 151t-26.5 179q0 118 41 219t115.5 174
t177 114.5t225.5 41.5zM1007 530q0 50 -10.5 94t-30.5 82l-481 -481q78 -46 180 -46q74 0 137 25.5t108.5 72t71 111t25.5 142.5zM665 881q-75 0 -137.5 -25.5t-108 -72t-71 -111t-25.5 -142.5q0 -98 40 -175l480 480q-78 46 -178 46z" />
    <glyph glyph-name="O.aalt" horiz-adv-x="1329" 
d="M665 1079q123 0 225.5 -41.5t176.5 -114.5t115 -174t41 -219q0 -119 -41 -219.5t-115 -174t-176.5 -115t-225.5 -41.5t-225.5 41.5t-177 115t-115.5 174t-41 219.5q0 118 41 219t115.5 174t177 114.5t225.5 41.5zM665 881q-75 0 -137.5 -25.5t-108 -72t-71 -111
t-25.5 -142.5t25.5 -142.5t71 -111t108 -72t137.5 -25.5q74 0 137 25.5t108.5 72t71 111t25.5 142.5t-25.5 142.5t-71 111t-108.5 72t-137 25.5z" />
    <glyph glyph-name="Q.aalt" horiz-adv-x="1329" 
d="M665 1079q123 0 225.5 -41.5t176.5 -114.5t115 -174t41 -219q0 -98 -28.5 -181t-80.5 -151l148 -198h-243l-50 65q-64 -40 -140 -62.5t-164 -22.5q-123 0 -225.5 41.5t-177 115t-115.5 174t-41 219.5q0 118 41 219t115.5 174t177 114.5t225.5 41.5zM978 380q29 69 29 150
q0 78 -25.5 142.5t-71 111t-108.5 72t-137 25.5q-75 0 -137.5 -25.5t-108 -72t-71 -111t-25.5 -142.5t25.5 -142.5t71 -111t108 -72t137.5 -25.5q51 0 97 12.5t85 35.5l-216 287h248z" />
    <glyph glyph-name="zero.dnom" horiz-adv-x="909" 
d="M454 826q75 0 140.5 -28.5t114.5 -82.5t77 -132t28 -177t-28 -177t-77 -132t-114.5 -82.5t-140.5 -28.5t-140 28.5t-114 82.5t-77 132t-28 177t28 177t77 132t114 82.5t140 28.5zM454 661q-38 0 -70.5 -16.5t-56.5 -48.5t-38 -79.5t-14 -110.5t14 -110.5t38 -79.5
t56.5 -48.5t70.5 -16.5t71 16.5t57 48.5t38 79.5t14 110.5t-14 110.5t-38 79.5t-57 48.5t-71 16.5z" />
    <glyph glyph-name="zero.tnum" horiz-adv-x="1200" 
d="M604 1424q106 0 202.5 -42.5t169.5 -131t116 -225t43 -325.5q0 -200 -43 -338t-116 -223.5t-169.5 -124t-202.5 -38.5q-108 0 -205.5 38.5t-172 124t-118.5 223.5t-44 338t44 338t118.5 224t172 124t205.5 38zM604 1216q-62 0 -119 -24.5t-100.5 -84t-69.5 -159
t-26 -248.5t26 -248.5t69.5 -159t100.5 -84t119 -24.5q60 0 115.5 24.5t97.5 84t67.5 159t25.5 248.5q0 138 -25.5 236t-67.5 160t-97.5 91t-115.5 29z" />
    <glyph glyph-name="zero.oldstyle" horiz-adv-x="1370" 
d="M685 1085q117 0 219.5 -39t179.5 -111.5t121.5 -175t44.5 -229.5t-44.5 -229.5t-121.5 -175t-179.5 -111.5t-219.5 -39t-220 39t-179.5 111.5t-121 175t-44.5 229.5t44.5 229.5t121 175t179.5 111.5t220 39zM685 887q-73 0 -137 -24.5t-111 -70.5t-74.5 -112t-27.5 -150
t27.5 -150.5t74.5 -112t111 -70t137 -24.5t137 24.5t111.5 70t74.5 112t27 150.5t-27 150t-74.5 112t-111.5 70.5t-137 24.5z" />
    <glyph glyph-name="zero.oldstyle.zero" horiz-adv-x="1370" 
d="M685 1085q117 0 219.5 -39t179.5 -111.5t121.5 -175t44.5 -229.5t-44.5 -229.5t-121.5 -175t-179.5 -111.5t-219.5 -39t-220 39t-179.5 111.5t-121 175t-44.5 229.5t44.5 229.5t121 175t179.5 111.5t220 39zM1035 530q0 56 -12 103.5t-35 87.5l-496 -496q84 -52 193 -52
q73 0 137 24.5t111.5 70t74.5 112t27 150.5zM685 887q-73 0 -137 -24.5t-111 -70.5t-74.5 -112t-27.5 -150q0 -97 37 -173l488 488q-38 20 -82.5 31t-92.5 11z" />
    <glyph glyph-name="zero.tnum.zero" horiz-adv-x="1200" 
d="M604 1424q106 0 202.5 -42.5t169.5 -131t116 -225t43 -325.5q0 -200 -43 -338t-116 -223.5t-169.5 -124t-202.5 -38.5q-108 0 -205.5 38.5t-172 124t-118.5 223.5t-44 338t44 338t118.5 224t172 124t205.5 38zM910 700q0 49 -3.5 92.5t-9.5 82.5l-539 -539q22 -42 50 -71
t59.5 -47t66 -26t70.5 -8q60 0 115.5 24.5t97.5 84t67.5 159t25.5 248.5zM604 1216q-62 0 -119 -24.5t-100.5 -84t-69.5 -159t-26 -248.5q0 -48 3 -90t8 -80l535 535q-43 79 -103.5 115t-127.5 36z" />
    <glyph glyph-name="zero.oldstyle.tnum" horiz-adv-x="1200" 
d="M599 1084q110 0 207.5 -39t170 -111.5t115 -175t42.5 -229.5t-42.5 -230t-115 -175.5t-170 -111.5t-207.5 -39t-207.5 39t-170 111.5t-114.5 175.5t-42 230t42 229.5t114.5 175t170 111.5t207.5 39zM599 891q-66 0 -124.5 -24.5t-102 -71t-68.5 -114t-25 -152.5
q0 -86 25 -153t68.5 -113.5t102 -71t124.5 -24.5q67 0 125 24.5t101.5 71t68.5 113.5t25 153q0 85 -25 152.5t-68.5 114t-101.5 71t-125 24.5z" />
    <glyph glyph-name="zero.oldstyle.tnum.zero" horiz-adv-x="1200" 
d="M599 1084q110 0 207.5 -39t170 -111.5t115 -175t42.5 -229.5t-42.5 -230t-115 -175.5t-170 -111.5t-207.5 -39t-207.5 39t-170 111.5t-114.5 175.5t-42 230t42 229.5t114.5 175t170 111.5t207.5 39zM599 891q-66 0 -124.5 -24.5t-102 -71t-68.5 -114t-25 -152.5
q0 -93 29 -166l472 472q-39 27 -84.5 41.5t-96.5 14.5zM919 529q0 47 -7.5 88t-21.5 76l-471 -471q78 -55 180 -55q67 0 125 24.5t101.5 71t68.5 113.5t25 153z" />
    <glyph glyph-name="zero.zero" horiz-adv-x="1423" 
d="M711 1424q122 0 229.5 -49.5t188 -142.5t127 -227.5t46.5 -304.5t-46.5 -304t-127 -227.5t-188 -143t-229.5 -49.5t-229.5 49.5t-187.5 143t-126.5 227.5t-46.5 304t46.5 304.5t126.5 227.5t187.5 142.5t229.5 49.5zM711 1216q-75 0 -141 -33t-115.5 -98t-78 -161.5
t-28.5 -223.5q0 -60 6.5 -113t18.5 -100l597 597q-50 66 -116.5 99t-142.5 33zM1075 700q0 118 -26 211l-595 -595q50 -66 116 -99t141 -33q76 0 142 33t115.5 98t78 161.5t28.5 223.5z" />
    <glyph glyph-name="P.aalt" horiz-adv-x="1110" 
d="M385 391v-391h-208v1060h444q98 0 173 -23.5t125.5 -67.5t76.5 -106t26 -139q0 -76 -26 -137.5t-76.5 -105t-125 -67t-172.5 -23.5h-237zM385 869v-289h232q191 0 191 144q0 145 -191 145h-232z" />
    <glyph glyph-name="Thorn.aalt" horiz-adv-x="1110" 
d="M385 876h236q98 0 173 -23.5t125.5 -67.5t76.5 -106t26 -138t-26 -138t-76.5 -105.5t-125 -67t-172.5 -23.5h-237v-207h-208v1060h208v-184zM385 685v-288h232q191 0 191 144t-191 144h-232z" />
    <glyph glyph-name="R.aalt" horiz-adv-x="1138" 
d="M632 1060q197 0 299 -84.5t102 -236.5q0 -65 -23 -119t-66 -94.5t-105 -66t-140 -32.5l347 -427h-262l-330 424h-69v-424h-208v1060h455zM385 868v-263h243q191 0 191 134q0 66 -48.5 97.5t-142.5 31.5h-243z" />
    <glyph glyph-name="glyph103" horiz-adv-x="832" 
d="M455 1060q146 0 221 -65.5t75 -181.5q0 -98 -62 -160.5t-175 -76.5l240 -314h-205l-225 311h-40v-311h-170v798h341zM284 904v-185h168q60 0 92.5 23t32.5 71t-32.5 69.5t-92.5 21.5h-168z" />
    <glyph glyph-name="T.aalt" horiz-adv-x="973" 
d="M938 866h-348v-866h-208v866h-347v194h903v-194z" />
    <glyph glyph-name="glyph106" horiz-adv-x="751" 
d="M704 901h-243v-639h-171v639h-243v159h657v-159z" />
    <glyph glyph-name="U.aalt" horiz-adv-x="1245" 
d="M1086 425q0 -110 -34.5 -193.5t-96.5 -139t-147 -83.5t-186 -28t-185.5 28t-146.5 83.5t-96.5 139t-34.5 193.5v635h208v-624q0 -67 18.5 -115t52.5 -79.5t80.5 -46.5t103.5 -15t104 15t81 46.5t52.5 79.5t18.5 115v624h208v-635z" />
    <glyph glyph-name="V.aalt" horiz-adv-x="1145" 
d="M700 0h-255l-417 1060h221l326 -855l326 855h216z" />
    <glyph glyph-name="W.aalt" horiz-adv-x="1716" 
d="M1353 0h-253l-242 774l-243 -774h-253l-317 1060h216l231 -824l252 824h231l252 -824l231 824h213z" />
    <glyph glyph-name="X.aalt" horiz-adv-x="1085" 
d="M670 538l380 -538h-245l-264 387l-265 -387h-241l380 538l-368 522h245l252 -372l254 372h241z" />
    <glyph glyph-name="Y.aalt" horiz-adv-x="1073" 
d="M643 414v-414h-208v415l-427 645h245l287 -454l286 454h239z" />
    <glyph glyph-name="Z.ss04" horiz-adv-x="1292" 
d="M1046 593h-346l-286 -379h764v-214h-1064v175l321 425h-189v207h346l286 379h-762v214h1062v-175l-321 -425h189v-207z" />
    <glyph glyph-name="Z.c2sc" horiz-adv-x="1071" 
d="M965 898l-583 -707h583v-191h-859v161l583 708h-582v191h858v-162z" />
    <glyph glyph-name="Z.c2sc.ss04" horiz-adv-x="1071" 
d="M868 437h-283l-203 -246h583v-191h-859v161l237 282h-141v183h286l201 243h-582v191h858v-162l-233 -278h136v-183z" />
    <glyph glyph-name="z.ss04" horiz-adv-x="1041" 
d="M855 404h-281l-181 -214h533v-190h-811v152l223 259h-152v160h290l171 197h-516v190h785v-152l-205 -242h144v-160z" />
    <glyph glyph-name="two.oldstyle" horiz-adv-x="1101" 
d="M78 862q25 34 65 73t95.5 72t127.5 55t161 22q93 0 173 -28t138.5 -78t92 -119t33.5 -151q0 -78 -28.5 -140t-73 -112.5t-98.5 -90t-106 -70.5l-152 -91h511v-204h-893v175l415 267q55 35 93 68t62 64.5t35 62.5t11 61q0 37 -15 69.5t-43 57.5t-69.5 39.5t-93.5 14.5
q-53 0 -95 -12t-77 -32t-64 -46.5t-54 -56.5z" />
    <glyph glyph-name="seven.oldstyle" horiz-adv-x="1103" 
d="M1031 891l-610 -1234h-248l603 1198h-704v202h959v-166z" />
    <glyph glyph-name="seven.oldstyle.ss03" horiz-adv-x="1103" 
d="M1031 891l-216 -436h193v-197h-290l-297 -601h-248l308 608h-312v197h412l200 393h-709v202h959v-166z" />
    <glyph glyph-name="seven.ss03" horiz-adv-x="1096" 
d="M1035 1230l-214 -434h173v-199h-271l-294 -597h-253l302 604h-332v199h432l196 392h-701v205h962v-170z" />
    <glyph glyph-name="seven.tnum.ss03" horiz-adv-x="1200" 
d="M1084 1230l-214 -434h173v-199h-271l-294 -597h-253l302 604h-332v199h432l196 392h-701v205h962v-170z" />
    <glyph glyph-name="seven.oldstyle.tnum.ss03" horiz-adv-x="1200" 
d="M1097 891l-216 -436h193v-197h-290l-297 -601h-248l308 608h-312v197h412l200 393h-709v202h959v-166z" />
    <glyph glyph-name="glyph138" horiz-adv-x="668" 
d="M593 1110h-249v-260q0 -32 8 -54.5t22 -36.5t33 -20.5t40 -6.5q33 0 67 13.5t63 30.5l64 -136q-43 -29 -96 -49.5t-123 -20.5q-123 0 -186.5 67.5t-63.5 200.5v272h-132v154h132v202h172v-202h249v-154z" />
    <glyph glyph-name="glyph139" horiz-adv-x="858" 
d="M747 876q0 -80 -26.5 -138t-70.5 -95.5t-101.5 -55t-119.5 -17.5t-119.5 17.5t-101.5 55t-70.5 95.5t-26.5 138v388h173v-373q0 -43 11 -73t30.5 -49t46 -28t57.5 -9t58 9t46.5 28t30.5 49t11 73v373h172v-388z" />
    <glyph glyph-name="three.oldstyle" horiz-adv-x="1128" 
d="M527 1084q105 0 191 -29t147.5 -81.5t95 -126.5t33.5 -165q0 -111 -56.5 -191t-150.5 -126q54 -22 98 -53.5t75.5 -72.5t48.5 -91t17 -107q0 -103 -41 -179.5t-108.5 -127t-155.5 -75.5t-181 -25q-156 0 -280 53t-200 149l140 143q30 -34 69 -60.5t82.5 -45t90.5 -28
t94 -9.5q57 0 105.5 13t84.5 39.5t56 66.5t20 94t-23.5 94.5t-64.5 68t-95.5 41.5t-115.5 14h-165v196h164q55 0 104 13t86 39t58 65.5t21 92.5q0 51 -21 90.5t-56 66t-82.5 40.5t-99.5 14q-48 0 -89.5 -13t-76.5 -34t-63 -48t-47 -56l-158 128q28 48 71 88.5t99.5 70.5
t126.5 47t152 17z" />
    <glyph glyph-name="four.oldstyle" horiz-adv-x="1151" 
d="M868 202h235v-202h-235v-343h-212v343h-608v167l483 890h230l-460 -855h355v313h212v-313z" />
    <glyph glyph-name="five.oldstyle" horiz-adv-x="1161" 
d="M979 855h-585l-5 -342h188q123 0 212.5 -35.5t148 -94.5t87 -134.5t28.5 -155.5q0 -115 -40.5 -201.5t-108 -144.5t-156 -87t-183.5 -29q-306 0 -487 229l148 135q31 -38 71 -67.5t84 -50t90.5 -31t92.5 -10.5q69 0 119 20.5t82.5 54.5t48 76.5t15.5 86.5
q0 45 -14.5 87.5t-50.5 75.5t-98 53t-157 20h-322l11 747h781v-202z" />
    <glyph glyph-name="six.oldstyle" horiz-adv-x="1164" 
d="M505 889q20 6 47 10.5t65 4.5q95 0 180.5 -35t149.5 -97.5t101.5 -147.5t37.5 -185q0 -99 -38.5 -184t-106 -147.5t-160.5 -97.5t-202 -35q-108 0 -201 35t-161 97.5t-106.5 147.5t-38.5 185q0 92 32.5 175.5t93.5 176.5l403 608h262zM579 705q-61 0 -113 -19.5
t-90.5 -54.5t-60.5 -83.5t-22 -107.5q0 -60 22 -109t60.5 -84t90.5 -54t113 -19t113.5 19.5t90.5 54.5t60 84t22 108t-22 107.5t-60 83.5t-90.5 54.5t-113.5 19.5z" />
    <glyph glyph-name="nine.oldstyle" horiz-adv-x="1164" 
d="M658 169q-20 -6 -47 -10t-64 -4q-95 0 -180.5 35t-149.5 97.5t-101.5 147.5t-37.5 185q0 99 38.5 184t106 147.5t160.5 97.5t202 35q108 0 201 -35.5t161 -97.5t106.5 -147t38.5 -185q0 -92 -32.5 -175.5t-93.5 -176.5l-403 -608h-262zM585 354q61 0 113 19.5t90.5 54.5
t60.5 83.5t22 107.5q0 60 -22 109t-60.5 84t-90.5 54t-113 19t-113.5 -19.5t-90.5 -54.5t-60 -84t-22 -108t22 -107.5t60 -83.5t90.5 -54.5t113.5 -19.5z" />
    <glyph glyph-name="hyphen.ss06" horiz-adv-x="920" 
d="M747 732l-574 -209v184l574 209v-184zM747 405l-574 -209v184l574 209v-184z" />
    <glyph glyph-name="guillemotright.aalt" horiz-adv-x="1062" 
d="M118 1079h225l189 -379l-189 -379h-225l189 379zM543 1079h225l189 -379l-189 -379h-225l189 379z" />
    <glyph glyph-name="guilsinglright.aalt" horiz-adv-x="637" 
d="M118 1079h225l189 -379l-189 -379h-225l189 379z" />
    <glyph glyph-name="slash.case" horiz-adv-x="1080" 
d="M321 0h-245l683 1400h245z" />
    <glyph glyph-name="backslash.case" horiz-adv-x="855" 
d="M-43 1400h245l683 -1400h-245z" />
    <glyph glyph-name="tildecomb.c2sc" 
d="M-1035 1366q51 57 107 84.5t133 27.5q51 0 90 -10.5t69.5 -23.5t56 -23.5t49.5 -10.5q33 0 63.5 16.5t68.5 48.5l108 -133q-51 -57 -107 -84.5t-133 -27.5q-50 0 -88.5 10.5t-69 23.5t-56.5 23.5t-51 10.5q-33 0 -63.5 -16.5t-68.5 -48.5z" />
    <glyph glyph-name="gravecomb.c2sc" 
d="M-983 1512h266l191 -300h-206z" />
    <glyph glyph-name="acutecomb.c2sc" 
d="M-815 1212l191 300h266l-251 -300h-206z" />
    <glyph glyph-name="uni030B.c2sc" 
d="M-606 1212l200 300h245l-235 -300h-210zM-951 1212l178 300h237l-202 -300h-213z" />
    <glyph glyph-name="uni0302.c2sc" 
d="M-533 1202l-131 163l-131 -163h-223l211 300h286l211 -300h-223z" />
    <glyph glyph-name="glyph158" 
d="M-719 1050v390h216l-40 -390h-176z" />
    <glyph glyph-name="uni030C.c2sc" 
d="M-795 1502l131 -163l131 163h223l-211 -300h-286l-211 300h223z" />
    <glyph glyph-name="uni0308.c2sc" 
d="M-865 1500q31 0 58 -11.5t47 -31.5t31.5 -47t11.5 -58t-11.5 -58t-31.5 -46.5t-47 -30.5t-58 -11t-58 11t-46.5 30.5t-30.5 46.5t-11 58t11 58t30.5 47t46.5 31.5t58 11.5zM-465 1500q31 0 58 -11.5t47 -31.5t31.5 -47t11.5 -58t-11.5 -58t-31.5 -46.5t-47 -30.5t-58 -11
t-58 11t-46.5 30.5t-30.5 46.5t-11 58t11 58t30.5 47t46.5 31.5t58 11.5z" />
    <glyph glyph-name="uni0307.c2sc" 
d="M-665 1500q31 0 58 -11.5t47 -31.5t31.5 -47t11.5 -58t-11.5 -58t-31.5 -46.5t-47 -30.5t-58 -11t-58 11t-46.5 30.5t-30.5 46.5t-11 58t11 58t30.5 47t46.5 31.5t58 11.5z" />
    <glyph glyph-name="uni0304.c2sc" 
d="M-974 1437h620v-170h-620v170z" />
    <glyph glyph-name="uni0306.c2sc" 
d="M-865 1537q29 -90 79 -131.5t122 -41.5t122 41.5t79 131.5l168 -51q-44 -149 -139 -224t-230 -75t-230 75t-139 224z" />
    <glyph glyph-name="uni030A.c2sc" 
d="M-665 1185q-51 0 -96 19t-79 52.5t-53.5 78t-19.5 95.5q0 50 19.5 94.5t53.5 77.5t79 52.5t96 19.5t96.5 -19.5t79.5 -52.5t53.5 -77.5t19.5 -94.5q0 -51 -19.5 -95.5t-53.5 -78t-79.5 -52.5t-96.5 -19zM-665 1317q22 0 42 8.5t35 24t24 36t9 44.5q0 23 -9 43.5t-24 35.5
t-35 23.5t-42 8.5t-42 -8.5t-35 -23.5t-23.5 -35.5t-8.5 -43.5q0 -24 8.5 -44.5t23.5 -36t35 -24t42 -8.5z" />
    <glyph glyph-name="glyph165" 
d="M-387 -337q-48 -44 -99.5 -63t-110.5 -19q-51 0 -94.5 13.5t-75 38t-49 60t-17.5 79.5q0 49 18 89.5t53.5 77.5t87 71t119.5 70l49 -80q-71 -53 -100 -99t-29 -86q0 -25 15.5 -39.5t41.5 -14.5q23 0 42.5 10.5t37.5 27.5z" />
    <glyph glyph-name="glyph166" 
d="M-497 21q-50 -22 -84 -44t-55 -44t-30 -45t-9 -47q0 -35 25.5 -57.5t72.5 -22.5q37 0 67.5 13t58.5 36l111 -136q-51 -46 -115 -69.5t-135 -23.5q-66 0 -119.5 17t-91.5 46.5t-58.5 70t-20.5 87.5q0 55 22.5 98.5t67.5 79t112 65.5t156 57z" />
    <glyph glyph-name="glyph167" 
d="M-387 -337q-48 -44 -99.5 -63t-110.5 -19q-51 0 -94.5 13.5t-75 38t-49 60t-17.5 79.5q0 49 22.5 89.5t65.5 77.5t106 71t144 70l49 -80q-103 -54 -146 -99.5t-43 -85.5q0 -25 15.5 -39.5t41.5 -14.5q23 0 42.5 10.5t37.5 27.5z" />
    <glyph glyph-name="glyph168" 
d="M-340 -326q-51 -46 -115 -69.5t-135 -23.5q-66 0 -119.5 17t-91.5 46.5t-58.5 70t-20.5 87.5q0 55 22.5 98.5t67.5 79t112 65.5t156 57l25 -81q-50 -22 -84 -44t-55 -44t-30 -45t-9 -47q0 -35 25.5 -57.5t72.5 -22.5q37 0 67.5 13t58.5 36z" />
    <glyph glyph-name="uni0328.c2sc" 
d="M-442 -337q-48 -44 -99.5 -63t-110.5 -19q-51 0 -94.5 13.5t-75 38t-49 60t-17.5 79.5q0 49 18 89.5t53.5 77.5t87 71t119.5 70l49 -80q-71 -53 -100 -99t-29 -86q0 -25 15.5 -39.5t41.5 -14.5q23 0 42.5 10.5t37.5 27.5z" />
    <glyph glyph-name="uni0327.c2sc" 
d="M-607 -321h-219l111 328h207z" />
    <glyph glyph-name="uni0327.case" 
d="M-784 -321h-229l113 328h219z" />
    <glyph glyph-name="uni0326.c2sc" 
d="M-543 -87l-83 -368h-185l37 368h231z" />
    <glyph glyph-name="one.dnom" horiz-adv-x="565" 
d="M413 0h-173v585l-192 -74v171l365 143v-825z" />
    <glyph glyph-name="two.dnom" horiz-adv-x="721" 
d="M62 685q18 22 44 47t61 46t81 34.5t104 13.5q65 0 117.5 -19t89 -53.5t56.5 -82.5t20 -107q0 -37 -8.5 -68.5t-24.5 -61t-39 -57t-51 -55.5l-164 -161h307v-161h-554v135l290 285q31 31 48 63t17 67q0 50 -33 80.5t-86 30.5q-28 0 -51 -7t-42.5 -18.5t-36.5 -26.5
t-33 -32z" />
    <glyph glyph-name="seven.dnom" horiz-adv-x="694" 
d="M646 677l-335 -677h-205l336 651h-385v161h589v-135z" />
    <glyph glyph-name="glyph178" horiz-adv-x="885" 
d="M485 1282q70 0 130.5 -27t105 -74.5t70 -113t25.5 -141.5q0 -77 -25.5 -142t-70 -112.5t-105 -74.5t-130.5 -27q-71 0 -121.5 26t-83.5 68v-76h-169v1008h172v-405q33 41 83 66t119 25zM456 1121q-41 0 -74.5 -14.5t-57.5 -41t-37.5 -62t-13.5 -77.5t13.5 -77.5
t37.5 -61.5t57.5 -40.5t74.5 -14.5q42 0 75.5 15.5t57.5 41.5t36.5 61.5t12.5 75.5t-12.5 76t-36.5 62t-57.5 41.5t-75.5 15.5z" />
    <glyph glyph-name="glyph180" horiz-adv-x="885" 
d="M400 1282q69 0 118.5 -25t83.5 -67v406h172v-1008h-169v77q-34 -43 -84 -69t-122 -26q-70 0 -130.5 27t-104.5 74.5t-69.5 112.5t-25.5 142q0 76 25.5 141.5t69.5 113t104.5 74.5t131.5 27zM429 1121q-42 0 -76 -15.5t-58 -41.5t-36.5 -62t-12.5 -76t12.5 -75.5
t36.5 -61.5t58 -41.5t76 -15.5q40 0 73.5 14.5t57.5 40.5t37.5 61.5t13.5 77.5t-13.5 77.5t-37.5 62t-57.5 41t-73.5 14.5z" />
    <glyph glyph-name="glyph186" horiz-adv-x="852" 
d="M284 1190q38 52 90 72t107 20q58 0 107 -19.5t84 -54.5t55 -83.5t20 -107.5v-429h-173v373q0 77 -36.5 117.5t-102.5 40.5q-31 0 -58.5 -10t-48 -30t-32.5 -50t-12 -69v-372h-173v1008h173v-406z" />
    <glyph glyph-name="glyph188" horiz-adv-x="395" 
d="M284 588h-173v1008h173v-1008z" />
    <glyph glyph-name="glyph191" horiz-adv-x="1315" 
d="M941 1282q60 0 109.5 -19.5t85 -54.5t55 -83.5t19.5 -107.5v-429h-172v373q0 77 -36.5 117.5t-102.5 40.5q-31 0 -58.5 -10t-48.5 -30t-33 -50t-12 -69v-372h-173v373q0 77 -36.5 117.5t-102.5 40.5q-31 0 -58.5 -10t-48 -30t-32.5 -50t-12 -69v-372h-173v676h169v-80
q38 56 91 77t110 21q75 0 133 -31.5t93 -86.5q20 34 47 56.5t57.5 36t63.5 19.5t66 6z" />
    <glyph glyph-name="three.dnom" horiz-adv-x="730" 
d="M333 826q66 0 121 -16.5t94 -47t61 -73.5t22 -96q0 -65 -32.5 -111.5t-89.5 -72.5q65 -26 102.5 -73t37.5 -112q0 -60 -26 -105t-69.5 -74.5t-99 -44t-115.5 -14.5q-94 0 -168.5 30.5t-122.5 87.5l100 114q35 -37 82.5 -57t100.5 -20q29 0 54 6t44 18t29.5 30t10.5 43
q0 24 -12.5 41.5t-33.5 29.5t-49 18t-59 6h-95v153h96q57 0 96.5 23.5t39.5 69.5q0 45 -36 68.5t-91 23.5q-58 0 -100 -24t-68 -56l-104 111q44 54 112 89t168 35z" />
    <glyph glyph-name="four.dnom" horiz-adv-x="724" 
d="M576 301h110v-158h-110v-143h-173v143h-365v124l281 544h191l-268 -510h161v218h173v-218z" />
    <glyph glyph-name="five.dnom" horiz-adv-x="749" 
d="M616 653h-330l-3 -145h79q74 0 130.5 -18.5t94.5 -51t57.5 -77.5t19.5 -97q0 -66 -23.5 -117.5t-65 -87.5t-97.5 -55t-121 -19q-94 0 -169 31.5t-126 85.5l102 115q34 -30 85.5 -51.5t106.5 -21.5q65 0 97 30.5t32 76.5q0 21 -8 39.5t-26.5 33t-49 22.5t-75.5 8h-200
l10 458h480v-159z" />
    <glyph glyph-name="six.dnom" horiz-adv-x="749" 
d="M368 534q7 1 14 1h15q66 0 119.5 -21t91.5 -57.5t58.5 -85.5t20.5 -106q0 -60 -24 -111.5t-66 -88.5t-100 -58t-125 -21t-124.5 20.5t-100 57.5t-66.5 87t-24 110q0 57 21 110.5t59 110.5l225 330h208zM372 389q-29 0 -53.5 -9.5t-42.5 -26t-28.5 -39.5t-10.5 -50
q0 -28 10.5 -51t28.5 -39.5t42.5 -26t53.5 -9.5t53.5 9.5t42.5 26t28.5 39.5t10.5 51q0 27 -10.5 50t-28.5 39.5t-42.5 26t-53.5 9.5z" />
    <glyph glyph-name="eight.dnom" horiz-adv-x="814" 
d="M407 826q63 0 119 -16t97.5 -46t65.5 -73t24 -98q0 -35 -9.5 -63.5t-26.5 -51t-40 -39.5t-50 -29q30 -12 57 -29t46.5 -40.5t31 -53t11.5 -66.5q0 -56 -26 -99.5t-70 -73.5t-103.5 -46t-126.5 -16q-68 0 -127 16t-103.5 46t-70 73.5t-25.5 99.5q0 37 11.5 66.5t31 53
t46 40.5t56.5 29q-53 24 -89 68.5t-36 114.5q0 55 24 98t65.5 73t97.5 46t119 16zM407 341q-29 0 -54 -6.5t-44 -19.5t-30 -32t-11 -44q0 -26 11 -46t30 -33.5t44 -20t54 -6.5q28 0 53.5 6.5t44.5 20t30 33.5t11 46q0 25 -11 44t-30 32t-44.5 19.5t-53.5 6.5zM407 676
q-25 0 -47.5 -6.5t-39 -19t-26 -31t-9.5 -42.5t9.5 -42t26 -30t39 -18t47.5 -6t47.5 6t39 18t26 30t9.5 42t-9.5 42.5t-26 31t-39 19t-47.5 6.5z" />
    <glyph glyph-name="glyph199" horiz-adv-x="611" 
d="M471 1282q61 0 100 -16l-29 -171q-23 11 -53 17t-58 6q-67 0 -107.5 -41.5t-40.5 -118.5v-370h-172v676h168v-74q32 48 80.5 70t111.5 22z" />
    <glyph glyph-name="nine.dnom" horiz-adv-x="749" 
d="M380 278q-7 -1 -14 -1h-14q-66 0 -119.5 21t-91.5 57.5t-58.5 85.5t-20.5 106q0 60 24 111.5t66 88.5t99.5 58t125.5 21q67 0 124.5 -20.5t100 -57.5t66.5 -87t24 -110q0 -57 -21 -110.5t-59 -110.5l-225 -330h-208zM377 423q29 0 53.5 9.5t42.5 26t28 39.5t10 50
q0 28 -10 51t-28 39.5t-42.5 26t-53.5 9.5t-53.5 -9.5t-42.5 -26t-28.5 -39.5t-10.5 -51q0 -27 10.5 -50t28.5 -39.5t42.5 -26t53.5 -9.5z" />
    <glyph glyph-name="Udieresis.ss05" horiz-adv-x="1530" 
d="M599 1425q29 0 54 -11.5t43.5 -31t29 -46t10.5 -56.5t-10.5 -56.5t-29 -45.5t-43.5 -30t-54 -11t-53.5 11t-42.5 30t-28.5 45.5t-10.5 56.5t10.5 56.5t28.5 46t42.5 31t53.5 11.5zM929 1425q29 0 54 -11.5t43.5 -31t29 -46t10.5 -56.5t-10.5 -56.5t-29 -45.5t-43.5 -30
t-54 -11t-53.5 11t-42.5 30t-28.5 45.5t-10.5 56.5t10.5 56.5t28.5 46t42.5 31t53.5 11.5zM1359 552q0 -146 -46.5 -254.5t-126.5 -180t-188.5 -107t-232.5 -35.5t-232.5 35.5t-188.5 107t-126.5 180t-46.5 254.5v848h226v-831q0 -100 27 -171.5t75.5 -117t116.5 -67
t149 -21.5t149 21.5t116.5 67t75.5 117t27 171.5v831h226v-848z" />
    <glyph glyph-name="Odieresis.ss05" horiz-adv-x="1694" 
d="M186 1425q52 0 91.5 -30.5t52.5 -81.5q-46 -35 -88 -82.5t-72 -98.5q-60 7 -95 48t-35 97q0 31 11 58t30.5 47t46.5 31.5t58 11.5zM1508 1425q31 0 58 -11.5t46.5 -31.5t30.5 -47t11 -58q0 -56 -35 -97t-95 -48q-30 51 -72 98.5t-88 82.5q13 51 52.5 81.5t91.5 30.5z
M847 1426q161 0 296 -54.5t232 -151.5t151 -230t54 -290t-54 -290t-151 -230t-232 -151.5t-296 -54.5t-296 54.5t-232 151.5t-151 230t-54 290t54 290t151 230t232 151.5t296 54.5zM847 1209q-107 0 -198 -37t-157 -104t-103.5 -161t-37.5 -207t37.5 -207t103.5 -161
t157 -104t198 -37t198 37t157 104t103.5 161t37.5 207t-37.5 207t-103.5 161t-157 104t-198 37z" />
    <glyph glyph-name="Adieresis.ss05" horiz-adv-x="1448" 
d="M213 1425q31 0 58 -11.5t47 -31.5t31.5 -47t11.5 -58t-11.5 -58t-31.5 -46.5t-47 -30.5t-58 -11t-58 11t-46.5 30.5t-30.5 46.5t-11 58t11 58t30.5 47t46.5 31.5t58 11.5zM1233 1425q31 0 58 -11.5t47 -31.5t31.5 -47t11.5 -58t-11.5 -58t-31.5 -46.5t-47 -30.5t-58 -11
t-58 11t-46.5 30.5t-30.5 46.5t-11 58t11 58t30.5 47t46.5 31.5t58 11.5zM1418 0h-243l-138 357h-634l-138 -357h-235l553 1400h282zM486 571h468l-234 604z" />
    <glyph glyph-name="seven.c2sc.ss03" horiz-adv-x="907" 
d="M846 903l-151 -294h138v-179h-230l-221 -430h-236l232 436h-236v179h331l138 258h-538v187h773v-157z" />
    <glyph glyph-name="zero.c2sc.zero" horiz-adv-x="1159" 
d="M579 1078q98 0 184.5 -37.5t151 -108t101.5 -172t37 -230.5t-37 -230.5t-101.5 -172.5t-151 -108.5t-184.5 -37.5t-184.5 37.5t-150.5 108.5t-101 172.5t-37 230.5t37 230.5t101 172t150.5 108t184.5 37.5zM579 887q-55 0 -103 -23t-84 -68t-56.5 -111.5t-20.5 -154.5
q0 -37 3.5 -69.5t10.5 -61.5l419 419q-35 35 -78 52t-91 17zM844 530q0 36 -3.5 68.5t-10.5 61.5l-419 -419q70 -68 168 -68q55 0 103.5 23t84.5 68t56.5 111.5t20.5 154.5z" />
    <glyph glyph-name="uni0335.case" 
d="M-452 598h-790v214h790v-214z" />
    <glyph glyph-name="glyph389" horiz-adv-x="813" 
d="M716 262h-602v798h598v-155h-428v-163h406v-155h-406v-170h432v-155zM210 1309h187l117 -184h-151z" />
    <glyph glyph-name="uni2E38.aalt" horiz-adv-x="628" 
d="M389 1060v-314h150v-147h-150v-150h-150v150h-150v147h150v314h150z" />
    <glyph glyph-name="uni2117.aalt" horiz-adv-x="1503" 
d="M752 1150q86 0 166 -22t149 -62t126 -96t97.5 -124t63 -146t22.5 -162q0 -127 -49 -238.5t-133.5 -195t-198.5 -131.5t-243 -48q-130 0 -244 48t-198.5 131.5t-133.5 195t-49 238.5q0 84 22.5 162t63 146t97.5 124t126.5 96t149 62t166.5 22zM752 986q-94 0 -177 -35
t-144.5 -96t-97 -142.5t-35.5 -174.5t35.5 -175t97 -142.5t144.5 -96t177 -35.5t176.5 35.5t144 96t97 142.5t35.5 175t-35.5 174.5t-97 142.5t-144 96t-176.5 35zM801 846q66 0 115.5 -15t83 -42.5t50.5 -66.5t17 -86q0 -93 -67 -150t-197 -57h-125v-209h-161v626h284z
M678 706v-140h121q104 0 104 70t-104 70h-121z" />
    <glyph glyph-name="uni2116.aalt" horiz-adv-x="2149" 
d="M2048 80h-688v190h688v-190zM1704 1079q79 0 145.5 -27t115.5 -75t76.5 -113t27.5 -141t-27.5 -141t-76.5 -113t-115.5 -75t-145.5 -27q-78 0 -145 27t-115.5 75t-76 113t-27.5 141t27.5 141t76 113t115.5 75t145 27zM1703 920q-41 0 -75.5 -14.5t-60 -40.5t-40 -62.5
t-14.5 -79.5q0 -44 14.5 -80t40 -62t60 -40.5t75.5 -14.5t76 14.5t61 40.5t40.5 62t14.5 80q0 43 -14.5 79.5t-40.5 62.5t-61 40.5t-76 14.5zM1156 0h-193l-578 713v-713h-208v1060h194l578 -713v713h207v-1060z" />
    <glyph glyph-name="uni20BA.aalt" horiz-adv-x="1200" 
d="M852 500l-343 -148v-162h135q90 0 157.5 41t123.5 136l165 -97q-41 -68 -87.5 -119t-103 -84.5t-123 -50t-146.5 -16.5h-322v266l-137 -59v148l137 59v100l-137 -59v148l137 59v399h201v-312l343 148v-148l-343 -148v-101l343 148v-148z" />
    <glyph glyph-name="Euro.aalt" horiz-adv-x="1200" 
d="M881 339h-411q38 -85 108 -130.5t164 -45.5q81 0 141 31t105 79l115 -143q-68 -70 -156.5 -109.5t-203.5 -39.5q-92 0 -170.5 24.5t-140.5 71t-107 113t-69 149.5h-140v139h116q-1 13 -1 25v27q0 13 0.5 26t1.5 26h-117v139h140q24 83 69 149t107 112.5t140.5 71
t170.5 24.5q114 0 204 -38t159 -107l-120 -146q-45 48 -104.5 79t-140.5 31q-96 0 -165.5 -46.5t-106.5 -129.5h412v-139h-446q-1 -13 -1.5 -25.5t-0.5 -26.5t0.5 -26.5t1.5 -25.5h446v-139z" />
    <glyph glyph-name="uni207F.aalt" horiz-adv-x="950" 
d="M836 262h-161l-390 516l-1 -516h-170v798h161l390 -516v516h171v-798z" />
    <glyph glyph-name="uni2071.aalt" horiz-adv-x="398" 
d="M284 262h-170v798h170v-798z" />
    <glyph glyph-name="uni2034.aalt" horiz-adv-x="987" 
d="M641 1060l-113 -514h-184l113 514h184zM914 1060l-113 -514h-184l113 514h184zM367 1060l-113 -514h-184l113 514h184z" />
    <glyph glyph-name="second.aalt" horiz-adv-x="730" 
d="M657 1060l-113 -514h-184l113 514h184zM367 1060l-113 -514h-184l113 514h184z" />
    <glyph glyph-name="minute.aalt" horiz-adv-x="440" 
d="M367 1060l-113 -514h-184l113 514h184z" />
    <glyph glyph-name="perthousand.aalt" horiz-adv-x="2284" 
d="M392 1083q66 0 122.5 -22t98 -60.5t64.5 -91.5t23 -115t-23 -115t-64.5 -91.5t-98 -60.5t-122.5 -22t-122 22t-97.5 60.5t-64.5 91.5t-23 115t23 115t64.5 91.5t97.5 60.5t122 22zM392 926q-30 0 -55 -10t-43.5 -27.5t-29 -41.5t-10.5 -53t10.5 -53.5t29 -42t43.5 -27.5
t55 -10t55.5 10t44 27.5t29 42t10.5 53.5t-10.5 53t-29 41.5t-44 27.5t-55.5 10zM537 0h-196l728 1060h196zM1215 559q66 0 123 -22t98 -61t64.5 -92t23.5 -114q0 -62 -23.5 -115t-64.5 -91.5t-98 -60.5t-123 -22t-122 22t-97 60.5t-64.5 91.5t-23.5 115q0 61 23.5 114
t64.5 92t97 61t122 22zM1215 403q-30 0 -55 -10t-43 -27.5t-28.5 -42t-10.5 -53.5t10.5 -53.5t28.5 -42t43 -27.5t55 -10t56 10t44.5 27.5t29 42t10.5 53.5t-10.5 53.5t-29 42t-44.5 27.5t-56 10zM1890 559q66 0 123 -22t98 -60.5t64.5 -91.5t23.5 -115t-23.5 -115
t-64.5 -91.5t-98 -60.5t-123 -22t-122 22t-97.5 60.5t-64.5 91.5t-23 115q0 61 23 114t64.5 92t97.5 61t122 22zM1890 403q-30 0 -55 -10t-43.5 -27.5t-29 -42t-10.5 -53.5t10.5 -53.5t29 -42t43.5 -27.5t55 -10t55.5 10t44 27.5t29 42t10.5 53.5t-10.5 53.5t-29 42
t-44 27.5t-55.5 10z" />
    <glyph glyph-name="daggerdbl.aalt" horiz-adv-x="628" 
d="M239 449v117h-150v137h150v104h-150v137h150v116h150v-116h150v-137h-150v-104h150v-137h-150v-117h-150z" />
    <glyph glyph-name="dagger.aalt" horiz-adv-x="628" 
d="M239 449v314h-150v147h150v150h150v-150h150v-147h-150v-314h-150z" />
    <glyph glyph-name="quotedblbase.aalt" horiz-adv-x="738" 
d="M665 326l-109 -495h-164l50 495h223zM343 326l-109 -495h-164l50 495h223z" />
    <glyph glyph-name="quotedblright.aalt" horiz-adv-x="738" 
d="M665 1060l-109 -495h-164l50 495h223zM343 1060l-109 -495h-164l50 495h223z" />
    <glyph glyph-name="quotedblleft.aalt" horiz-adv-x="738" 
d="M395 565l109 495h164l-50 -495h-223zM73 565l109 495h164l-50 -495h-223z" />
    <glyph glyph-name="quotesinglbase.aalt" horiz-adv-x="416" 
d="M343 326l-109 -495h-164l50 495h223z" />
    <glyph glyph-name="quoteright.aalt" horiz-adv-x="416" 
d="M343 1060l-109 -495h-164l50 495h223z" />
    <glyph glyph-name="quoteleft.aalt" horiz-adv-x="416" 
d="M73 565l109 495h164l-50 -495h-223z" />
    <glyph glyph-name="uni1E9E.aalt" horiz-adv-x="1214" 
d="M566 583l232 257q-33 24 -79.5 35t-104.5 11q-60 0 -106 -15t-77 -42.5t-47 -66t-16 -84.5v-678h-209v687q0 75 25.5 145.5t81 125t142.5 88t210 33.5q82 0 149 -14t122 -40t99.5 -62t80.5 -80l-256 -283q65 -13 119.5 -38.5t93.5 -63.5t60.5 -87t21.5 -108
q0 -74 -32.5 -133.5t-89.5 -101.5t-134 -64.5t-167 -22.5q-68 0 -116 4.5t-91 14.5l40 189q63 -15 135 -15q114 0 175.5 32.5t61.5 96.5q0 66 -61.5 99t-175.5 33h-87v148z" />
    <glyph glyph-name="uni0336.aalt" 
d="M-66 318h-1196v163h1196v-163z" />
    <glyph glyph-name="uni0335.c2sc" 
d="M-334 438h-660v190h660v-190z" />
    <glyph glyph-name="florin.aalt" horiz-adv-x="1200" 
d="M905 467h-217l-22 -213q-7 -65 -24.5 -115.5t-48.5 -85.5t-77.5 -53.5t-110.5 -18.5q-69 0 -119.5 16.5t-91.5 40.5l72 147q26 -13 57.5 -21t63.5 -8q48 0 66.5 27t23.5 80l21 204h-181v164h198l19 177q7 64 24.5 114.5t48.5 85t77.5 52.5t110.5 18q69 0 119.5 -16
t91.5 -40l-73 -147q-25 12 -56.5 20.5t-64.5 8.5q-47 0 -65.5 -27.5t-23.5 -79.5l-18 -166h200v-164z" />
    <glyph glyph-name="questiondown.c2sc" horiz-adv-x="775" 
d="M582 681v-247h-74q-119 0 -181 -33.5t-62 -100.5q0 -59 61 -91.5t179 -32.5q34 0 66 2l59 5l15 -194q-33 -5 -76.5 -8.5t-83.5 -3.5q-104 0 -184.5 22t-136.5 62.5t-85 97.5t-29 127q0 134 89 214t259 103l6 78h178zM492 778q-31 0 -58.5 12t-48.5 33t-33.5 49t-12.5 59
t12.5 59t33.5 49t48.5 33.5t58.5 12.5t59 -12.5t49 -33.5t33.5 -49t12.5 -59t-12.5 -59t-33.5 -49t-49 -33t-59 -12z" />
    <glyph glyph-name="ordmasculine.aalt" horiz-adv-x="999" 
d="M500 1075q92 0 169 -31t132.5 -86.5t86.5 -131.5t31 -165t-31 -165t-86.5 -131.5t-132.5 -86.5t-169 -31t-169.5 31t-133 86.5t-86.5 131.5t-31 165t31 165t86.5 131.5t133 86.5t169.5 31zM500 911q-53 0 -97.5 -18.5t-76.5 -51.5t-50 -79t-18 -101q0 -56 18 -102t50 -79
t76.5 -51t97.5 -18t97.5 18t76.5 51t50 79t18 102q0 55 -18 101t-50 79t-76.5 51.5t-97.5 18.5z" />
    <glyph glyph-name="degree.aalt" horiz-adv-x="696" 
d="M348 504q-63 0 -119 23t-97.5 62.5t-65.5 92.5t-24 113t24 113.5t65.5 93t97.5 62.5t119 23t119 -23t97.5 -62.5t65.5 -93t24 -113.5t-24 -113t-65.5 -92.5t-97.5 -62.5t-119 -23zM348 656q29 0 55.5 10.5t46.5 29.5t31.5 44.5t11.5 54.5q0 28 -11.5 53t-31.5 44
t-46.5 29.5t-55.5 10.5q-30 0 -56 -10.5t-45.5 -29.5t-31 -44t-11.5 -53q0 -29 11.5 -54.5t31 -44.5t45.5 -29.5t56 -10.5z" />
    <glyph glyph-name="ordfeminine.aalt" horiz-adv-x="904" 
d="M864 262h-182l-66 179h-332l-66 -179h-178l309 798h206zM341 597h217l-108 294z" />
    <glyph glyph-name="copyright.aalt" horiz-adv-x="1503" 
d="M752 1150q86 0 166 -22t149 -62t126 -96t97.5 -124t63 -146t22.5 -162q0 -127 -49 -238.5t-133.5 -195t-198.5 -131.5t-243 -48q-130 0 -244 48t-198.5 131.5t-133.5 195t-49 238.5q0 84 22.5 162t63 146t97.5 124t126.5 96t149 62t166.5 22zM752 986q-94 0 -177 -35
t-144.5 -96t-97 -142.5t-35.5 -174.5t35.5 -175t97 -142.5t144.5 -96t177 -35.5t176.5 35.5t144 96t97 142.5t35.5 175t-35.5 174.5t-97 142.5t-144 96t-176.5 35zM897 624q-46 78 -135 78q-32 0 -59.5 -12t-47.5 -34t-31.5 -52t-11.5 -66q0 -41 12.5 -72t33.5 -51t48 -30
t56 -10q87 0 138 77l132 -94q-44 -64 -111 -101t-157 -37q-71 0 -129.5 23.5t-101.5 65.5t-66.5 100.5t-23.5 128.5t23.5 128.5t66.5 100.5t101.5 65.5t129.5 23.5q88 0 161 -39.5t112 -111.5z" />
    <glyph glyph-name="section.aalt" horiz-adv-x="1045" 
d="M824 829q-57 29 -126 51t-150 22q-44 0 -81.5 -7t-64.5 -20.5t-42.5 -33t-15.5 -44.5q0 -24 15.5 -41t44 -28.5t68.5 -19t89 -13.5l58 -7q68 -8 126.5 -26.5t101.5 -49t67.5 -73t24.5 -99.5q0 -67 -29 -116t-79 -82q44 -31 69 -74.5t25 -102.5q0 -79 -34 -136.5t-91 -95
t-131.5 -55.5t-155.5 -18q-55 0 -111 7t-108.5 20.5t-100.5 34.5t-87 48l97 158q27 -18 61 -34.5t74 -29.5t84.5 -20.5t91.5 -7.5q44 0 82.5 6.5t66.5 20t44 33.5t16 47q0 23 -15 39t-43 27t-68.5 19t-91.5 15l-66 9q-65 9 -121.5 27t-98.5 48.5t-66 75t-24 105.5
q0 59 28 106.5t79 81.5q-44 32 -68.5 77.5t-24.5 108.5q0 69 30.5 123.5t84.5 93t127 59t159 20.5q116 0 203 -24t164 -67zM519 515q-26 3 -52.5 5.5t-54.5 7.5q-38 -14 -60 -40t-22 -61q0 -25 15.5 -42t45 -29t71.5 -19t95 -13q21 -2 46.5 -5t53.5 -9q37 14 58.5 39.5
t21.5 63.5q0 48 -57.5 69t-160.5 33z" />
    <glyph glyph-name="yen.aalt" horiz-adv-x="1200" 
d="M996 204h-290v-204h-201v204h-290v140h290v103h-290v139h219l-332 474h235l268 -392l263 392h230l-326 -474h224v-139h-290v-103h290v-140z" />
    <glyph glyph-name="currency.aalt" horiz-adv-x="1200" 
d="M275 951l120 -117q45 28 96.5 43t108.5 15t108 -15.5t96 -42.5l119 117l111 -110l-118 -115q29 -43 44.5 -92.5t15.5 -103.5q0 -55 -15.5 -104.5t-43.5 -91.5l118 -115l-111 -110l-119 116q-45 -28 -96.5 -43t-108.5 -15t-109 15t-97 43l-118 -116l-110 110l117 115
q-29 42 -44 91.5t-15 104.5q0 54 15.5 103.5t43.5 91.5l-118 116zM600 321q46 0 86.5 16t70.5 44.5t47 66.5t17 82q0 43 -17 81t-47 66.5t-70.5 44.5t-86.5 16t-86 -16t-70 -44.5t-47 -66.5t-17 -81q0 -44 17 -82t47 -66.5t70 -44.5t86 -16z" />
    <glyph glyph-name="sterling.aalt" horiz-adv-x="1200" 
d="M1022 0h-838v188h128v260h-128v164h128v49q0 105 32.5 183.5t88.5 130.5t130.5 77.5t158.5 25.5q90 0 168.5 -27t135.5 -83l-134 -142q-32 31 -75.5 46t-94.5 15q-45 0 -83.5 -13.5t-66.5 -42t-44 -73t-16 -106.5v-40h385v-164h-385v-260h510v-188z" />
    <glyph glyph-name="cent.aalt" horiz-adv-x="1200" 
d="M723 1060v-151q74 -11 135.5 -43.5t106.5 -85.5l-127 -114q-54 47 -115 65v-402q66 18 119 66l123 -116q-45 -53 -107 -86t-135 -44v-149h-168v154q-74 14 -133 48t-100.5 83t-64 111.5t-22.5 133.5t22.5 133t64 110.5t100.5 82.5t133 48v156h168zM426 530
q0 -69 35.5 -119t93.5 -73v384q-58 -23 -93.5 -73t-35.5 -119z" />
    <glyph glyph-name="exclamdown.c2sc" horiz-adv-x="529" 
d="M175 671h178l28 -671h-234zM264 778q-31 0 -58.5 12t-48.5 33t-33.5 49t-12.5 59t12.5 59t33.5 49t48.5 33.5t58.5 12.5t59 -12.5t49 -33.5t33.5 -49t12.5 -59t-12.5 -59t-33.5 -49t-49 -33t-59 -12z" />
    <glyph glyph-name="braceright.c2sc" horiz-adv-x="747" 
d="M71 987v173h59q85 0 150 -23t107.5 -65.5t62.5 -103t17 -135.5l-4 -74q-3 -69 42.5 -106t127.5 -37v-171q-82 0 -127.5 -36.5t-42.5 -105.5l4 -75q3 -75 -17 -135.5t-62.5 -103.5t-107.5 -66t-150 -23h-59v174h47q72 0 113.5 36t38.5 104l-4 73q-5 88 34 150t131 94
q-92 31 -131 93t-34 150l4 73q3 68 -38.5 104t-113.5 36h-47z" />
    <glyph glyph-name="braceleft.c2sc" horiz-adv-x="747" 
d="M629 987q-72 0 -113.5 -36t-38.5 -104l4 -73q5 -88 -34 -150t-131 -93q92 -32 131 -94t34 -150l-4 -73q-3 -68 38.5 -104t113.5 -36h47v-174h-59q-86 0 -150.5 23t-107 66t-62.5 103.5t-17 135.5l4 75q3 69 -42.5 105.5t-127.5 36.5v171q82 0 127.5 37t42.5 106l-4 74
q-3 75 17 135.5t62.5 103t107 65.5t150.5 23h59v-173h-47z" />
    <glyph glyph-name="bracketright.c2sc" horiz-adv-x="669" 
d="M71 1160h421v-1259h-421v176h223v908h-223v175z" />
    <glyph glyph-name="backslash.c2sc" horiz-adv-x="907" 
d="M71 1060h225l540 -1060h-226z" />
    <glyph glyph-name="bracketleft.c2sc" horiz-adv-x="669" 
d="M598 -99h-421v1259h421v-176h-223v-908h223v-175z" />
    <glyph glyph-name="at.c2sc" horiz-adv-x="1526" 
d="M1049 506q0 -69 16 -104t55 -35q49 0 80.5 49.5t31.5 163.5q0 93 -34.5 171.5t-97 135.5t-148.5 89t-188 32t-188 -34.5t-148.5 -96.5t-97 -149.5t-34.5 -192.5q0 -106 34.5 -193.5t97 -150t148.5 -97t188 -34.5q81 0 152.5 21.5t134.5 66.5l94 -116q-85 -64 -182 -92.5
t-199 -28.5q-140 0 -257 47t-201.5 130.5t-131.5 197.5t-47 249q0 134 47 248t131.5 197t201.5 130t257 47t257 -44.5t201 -122.5t130.5 -183.5t46.5 -226.5q0 -77 -19.5 -142.5t-56.5 -113t-90.5 -74.5t-120.5 -27q-78 0 -124.5 27.5t-69.5 69.5q-29 -38 -74 -62.5
t-110 -24.5q-64 0 -117 23t-90.5 63.5t-58.5 96t-21 119.5t20.5 119.5t57.5 96.5t89.5 64t116.5 23q54 0 93.5 -21.5t68.5 -55.5v61h156v-316zM754 688q-33 0 -59 -12t-45 -32.5t-29 -48.5t-10 -60t10 -59.5t29 -48t45 -32.5t59 -12q32 0 58.5 11.5t45 31.5t29 48t10.5 61
t-10.5 61t-29 48.5t-45 32t-58.5 11.5z" />
    <glyph glyph-name="question.aalt" horiz-adv-x="775" 
d="M193 379v247h74q119 0 181 33.5t62 100.5q0 59 -61 91.5t-179 32.5q-34 0 -67 -3l-58 -4l-15 194q33 5 76.5 8.5t83.5 3.5q103 0 184 -22t137 -62.5t85 -97.5t29 -127q0 -134 -89 -214t-259 -103l-6 -78h-178zM283 282q31 0 58.5 -12t48.5 -33t33.5 -49t12.5 -59
t-12.5 -59t-33.5 -49t-48.5 -33.5t-58.5 -12.5t-59 12.5t-49 33.5t-33.5 49t-12.5 59t12.5 59t33.5 49t49 33t59 12z" />
    <glyph glyph-name="nine.c2sc" horiz-adv-x="945" 
d="M502 372q-14 -3 -28 -4t-28 -1q-80 0 -148.5 27t-119.5 74.5t-80 111.5t-29 139q0 78 31 144t85.5 114t129 75t160.5 27t160.5 -27t129 -74.5t85.5 -113t31 -142.5q0 -72 -26 -140t-77 -140l-305 -442h-243zM475 543q42 0 78 13t62.5 36.5t42 56t15.5 71.5t-15.5 72
t-42 56t-62.5 36t-78 13t-78 -13t-62.5 -36.5t-42 -56t-15.5 -71.5t15.5 -71.5t42 -56t62.5 -36.5t78 -13z" />
    <glyph glyph-name="eight.c2sc" horiz-adv-x="1027" 
d="M513 1078q81 0 153.5 -20.5t126.5 -59.5t85.5 -95.5t31.5 -128.5q0 -44 -13 -81t-36 -66.5t-54.5 -52.5t-67.5 -39q41 -16 77 -38.5t63 -53.5t42.5 -69.5t15.5 -85.5q0 -72 -33.5 -129t-91.5 -96.5t-135 -60.5t-164 -21t-163.5 21t-134.5 60.5t-91.5 96.5t-33.5 129
q0 47 15.5 85.5t42 69.5t62.5 53.5t77 38.5q-36 16 -67.5 39t-54.5 52.5t-36 66.5t-13 81q0 72 31.5 128.5t86 95.5t126.5 59.5t153 20.5zM513 452q-42 0 -79.5 -9.5t-66 -28t-45.5 -46t-17 -63.5t17 -63t45.5 -45t66 -27.5t79.5 -9.5t79.5 9.5t66 27.5t45.5 45t17 63
t-17 63.5t-45.5 46t-66 28t-79.5 9.5zM513 897q-37 0 -70.5 -9t-58.5 -26.5t-39.5 -43t-14.5 -59.5q0 -35 14.5 -61t39.5 -44t58.5 -27t70.5 -9t71 9t59 27t40 44t15 61q0 34 -15 59.5t-40 43t-59 26.5t-71 9z" />
    <glyph glyph-name="seven.c2sc" horiz-adv-x="901" 
d="M837 903l-464 -903h-236l465 873h-538v187h773v-157z" />
    <glyph glyph-name="six.c2sc" horiz-adv-x="945" 
d="M443 688q14 2 28 3.5t28 1.5q79 0 148 -27t120 -74.5t80 -111.5t29 -139q0 -78 -31 -144t-85.5 -114t-129 -75t-160.5 -27t-160.5 27t-129 74.5t-85.5 113t-31 142.5q0 72 26 140t77 140l305 442h243zM470 517q-42 0 -78 -13t-62.5 -36.5t-42 -56t-15.5 -71.5t15.5 -72
t42 -56t62.5 -36t78 -13t78 13t62.5 36.5t42 56t15.5 71.5t-15.5 71.5t-42 56t-62.5 36.5t-78 13z" />
    <glyph glyph-name="five.c2sc" horiz-adv-x="952" 
d="M797 874h-452l-5 -217h133q97 0 169 -25t120 -68.5t71.5 -101t23.5 -123.5q0 -86 -31.5 -152.5t-86 -112.5t-127 -69.5t-154.5 -23.5q-123 0 -221 42t-168 118l118 139q23 -24 54 -44.5t66.5 -36t73.5 -24t76 -8.5q49 0 85 12.5t60 34t35.5 49.5t11.5 60q0 30 -11 57.5
t-38 48.5t-72 33.5t-113 12.5h-260l11 585h631v-186z" />
    <glyph glyph-name="four.c2sc" horiz-adv-x="935" 
d="M734 382h159v-187h-159v-195h-200v195h-492v146l396 718h224l-379 -677h251v283h200v-283z" />
    <glyph glyph-name="three.c2sc" horiz-adv-x="930" 
d="M428 1078q87 0 158 -21.5t122 -61.5t79 -96t28 -125q0 -88 -46 -148t-125 -92q90 -31 143 -92.5t53 -150.5q0 -78 -34 -136.5t-90 -97t-128.5 -57.5t-150.5 -19q-125 0 -223 40.5t-161 112.5l121 131q48 -50 116 -77t140 -27q42 0 78.5 8.5t64 26t43 44t15.5 62.5
q0 35 -17.5 62t-48 45t-71 27t-86.5 9h-131v179h131q42 0 78.5 8.5t63.5 26t42.5 43t15.5 59.5q0 33 -15 58t-40.5 42t-60.5 26t-75 9q-39 0 -72.5 -9t-61.5 -24t-50.5 -34.5t-38.5 -40.5l-132 126q26 35 62 65t81.5 52t101 34.5t121.5 12.5z" />
    <glyph glyph-name="two.c2sc" horiz-adv-x="914" 
d="M69 897q22 28 53.5 59.5t76.5 58.5t104 45t136 18q86 0 155 -25t117.5 -70t74.5 -107.5t26 -138.5q0 -49 -12.5 -91.5t-33.5 -80t-49.5 -71.5t-60.5 -65l-249 -241h433v-188h-725v157l394 386q45 44 69.5 88t24.5 95q0 72 -47.5 116.5t-128.5 44.5q-39 0 -70.5 -9
t-58 -24t-48.5 -35.5t-43 -42.5z" />
    <glyph glyph-name="one.c2sc" horiz-adv-x="714" 
d="M544 0h-200v794l-291 -113v202l491 193v-1076z" />
    <glyph glyph-name="zero.c2sc" horiz-adv-x="1159" 
d="M579 1078q98 0 184.5 -37.5t151 -108t101.5 -172t37 -230.5t-37 -230.5t-101.5 -172.5t-151 -108.5t-184.5 -37.5t-184.5 37.5t-150.5 108.5t-101 172.5t-37 230.5t37 230.5t101 172t150.5 108t184.5 37.5zM579 887q-55 0 -103 -23t-84 -68t-56.5 -111.5t-20.5 -154.5
t20.5 -154.5t56.5 -111.5t84 -68t103 -23t103.5 23t84.5 68t56.5 111.5t20.5 154.5t-20.5 154.5t-56.5 111.5t-84.5 68t-103.5 23z" />
    <glyph glyph-name="slash.c2sc" horiz-adv-x="907" 
d="M297 0h-226l540 1060h225z" />
    <glyph glyph-name="asterisk.aalt" horiz-adv-x="795" 
d="M323 870v190h149v-190l188 61l46 -142l-190 -56l118 -152l-121 -88l-116 158l-116 -158l-121 88l118 152l-189 56l46 142z" />
    <glyph glyph-name="parenright.c2sc" horiz-adv-x="698" 
d="M71 37q77 34 136 85.5t99 115.5t60.5 138t20.5 154t-20.5 154t-60.5 138t-99 115t-136 86l63 173q102 -39 186.5 -104t145 -151t93.5 -190t33 -221t-33 -221t-93.5 -190t-145 -151t-186.5 -104z" />
    <glyph glyph-name="parenleft.c2sc" horiz-adv-x="698" 
d="M627 1023q-77 -35 -136 -86t-99 -115t-60.5 -138t-20.5 -154t20.5 -154t60.5 -138t99 -115.5t136 -85.5l-63 -173q-102 39 -186.5 104t-145 151t-93.5 190t-33 221t33 221t93.5 190t145 151t186.5 104z" />
    <glyph glyph-name="ampersand.aalt" horiz-adv-x="1180" 
d="M891 0l-131 118q-31 -29 -66.5 -54t-77 -43.5t-90 -29t-104.5 -10.5q-78 0 -139.5 19.5t-104.5 55.5t-65.5 88t-22.5 118q0 47 15.5 88t42 77t61.5 68t74 61q-35 34 -61.5 65t-44 62t-26.5 63.5t-9 71.5q0 56 22.5 103.5t64 82.5t99.5 55t129 20q70 0 127.5 -18.5
t98.5 -52.5t63.5 -82t22.5 -106q0 -43 -17.5 -80t-46.5 -70.5t-66.5 -64t-78.5 -58.5l189 -175l157 221l145 -94l-173 -246l274 -253h-261zM436 152q60 0 105.5 20.5t88.5 59.5l-223 208q-51 -39 -84 -79t-33 -86q0 -56 39.5 -89.5t106.5 -33.5zM336 806q0 -17 4.5 -31
t16 -30.5t30.5 -36.5t49 -48q30 20 56 39t45 38t30 38t11 39q0 43 -32 68.5t-89 25.5q-58 0 -89.5 -26.5t-31.5 -75.5z" />
    <glyph glyph-name="percent.aalt" horiz-adv-x="1609" 
d="M392 1083q66 0 122.5 -22t98 -60.5t64.5 -91.5t23 -115t-23 -115t-64.5 -91.5t-98 -60.5t-122.5 -22t-122 22t-97.5 60.5t-64.5 91.5t-23 115t23 115t64.5 91.5t97.5 60.5t122 22zM392 926q-30 0 -55 -10t-43.5 -27.5t-29 -41.5t-10.5 -53t10.5 -53.5t29 -42t43.5 -27.5
t55 -10t55.5 10t44 27.5t29 42t10.5 53.5t-10.5 53t-29 41.5t-44 27.5t-55.5 10zM537 0h-196l728 1060h196zM1215 559q66 0 123 -22t98 -60.5t64.5 -91.5t23.5 -115t-23.5 -115t-64.5 -91.5t-98 -60.5t-123 -22t-122 22t-97 60.5t-64.5 91.5t-23.5 115q0 61 23.5 114
t64.5 92t97 61t122 22zM1215 403q-30 0 -55 -10t-43 -27.5t-28.5 -42t-10.5 -53.5t10.5 -53.5t28.5 -42t43 -27.5t55 -10t56 10t44.5 27.5t29 42t10.5 53.5t-10.5 53.5t-29 42t-44.5 27.5t-56 10z" />
    <glyph glyph-name="dollar.aalt" horiz-adv-x="1200" 
d="M695 1185v-141q99 -8 178.5 -36t151.5 -69l-95 -161q-51 30 -110 52.5t-125 31.5v-247q70 -10 132.5 -30.5t109 -54.5t73.5 -81.5t27 -111.5q0 -72 -27.5 -127t-74.5 -95t-109 -64t-131 -33v-149h-168v146q-103 8 -202 40t-172 87l103 157q48 -35 118.5 -63.5
t151.5 -39.5v249l-8 1q-69 11 -129.5 32t-104.5 54.5t-69.5 82.5t-25.5 115q0 70 27.5 124t74 93t107.5 62.5t128 32.5v143h169zM695 200q22 4 46 13t44.5 23t33.5 34t13 48q0 39 -35.5 62.5t-101.5 38.5v-219zM393 745q0 -42 34 -66t99 -38v218q-61 -13 -97 -42t-36 -72z
" />
    <glyph glyph-name="numbersign.aalt" horiz-adv-x="1216" 
d="M392 808l57 252h178l-56 -252h196l57 252h178l-56 -252h164l-35 -166h-166l-48 -218h164l-36 -167h-165l-57 -257h-179l57 257h-196l-57 -257h-179l57 257h-164l36 167h165l48 218h-165l36 166h166zM486 424h196l48 218h-196z" />
    <glyph glyph-name="exclam.aalt" horiz-adv-x="529" 
d="M354 389h-178l-28 671h234zM265 282q31 0 58.5 -12t48.5 -33t33.5 -49t12.5 -59t-12.5 -59t-33.5 -49t-48.5 -33.5t-58.5 -12.5t-59 12.5t-49 33.5t-33.5 49t-12.5 59t12.5 59t33.5 49t49 33t59 12z" />
    <glyph glyph-name="glyph450" horiz-adv-x="805" 
d="M410 1282q72 0 132 -26t103 -72.5t67 -112t24 -144.5q0 -15 -0.5 -31.5t-2.5 -28.5h-485q7 -39 24 -67t41 -46.5t53.5 -27t62.5 -8.5q46 0 93 17.5t85 49.5l97 -114q-59 -53 -130.5 -77t-154.5 -24q-77 0 -141.5 25.5t-111 72t-72 112t-25.5 145.5q0 79 25 145t70 113
t107.5 73t138.5 26zM174 1582h210l138 -218h-165zM408 1132q-69 0 -108.5 -39t-51.5 -105h314q-13 69 -52 106.5t-102 37.5z" />
    <glyph glyph-name="f_t.dlig" horiz-adv-x="1548" 
d="M1457 768h-367v-417q0 -48 12 -82t32.5 -55.5t48 -31.5t59.5 -10q49 0 99.5 19t93.5 46l83 -167q-58 -39 -130.5 -67t-163.5 -28q-163 0 -253.5 90.5t-90.5 281.5v421h-428v-768h-210v768h-193v190h193v81q0 114 36.5 194.5t96 132t135.5 75.5t156 24t156 -24
t135.5 -75.5t96 -132t36.5 -194.5v-81h367v-190zM452 958h428v67q0 67 -16.5 113t-45.5 75t-68 42t-84 13t-84 -13t-68 -42t-45.5 -75t-16.5 -113v-67z" />
    <glyph glyph-name="longs_t.dlig" horiz-adv-x="1463" 
d="M1372 768h-367v-417q0 -48 12 -82t32.5 -55.5t48 -31.5t59.5 -10q49 0 99.5 19t93.5 46l83 -167q-58 -39 -130.5 -67t-163.5 -28q-163 0 -253.5 90.5t-90.5 281.5v421h-187v190h187v67q0 67 -16.5 113t-45.5 75t-68 42t-84 13t-84 -13t-68 -42t-45.5 -75t-16.5 -113
v-1025h-210v1039q0 114 36.5 194.5t96 132t135.5 75.5t156 24t156 -24t135.5 -75.5t96 -132t36.5 -194.5v-81h367v-190z" />
    <glyph glyph-name="hyphen.case.ss06" horiz-adv-x="962" 
d="M747 870l-574 -209v184l574 209v-184zM747 543l-574 -209v184l574 209v-184z" />
    <glyph glyph-name="Zcaron.c2sc.ss04" horiz-adv-x="1071" 
d="M868 437h-283l-203 -246h583v-191h-859v161l237 282h-141v183h286l201 243h-582v191h858v-162l-233 -278h136v-183zM405 1502l131 -163l131 163h223l-211 -300h-286l-211 300h223z" />
    <glyph glyph-name="zcaron.ss04" horiz-adv-x="1041" 
d="M855 404h-281l-181 -214h533v-190h-811v152l223 259h-152v160h290l171 197h-516v190h785v-152l-205 -242h144v-160zM403 1400l131 -163l131 163h223l-211 -300h-286l-211 300h223z" />
    </font>
</defs>
</svg>
